<?xml version="1.0" standalone="no"?>
<!DOCTYPE svg PUBLIC "-//W3C//DTD SVG 1.1//EN" "http://www.w3.org/Graphics/SVG/1.1/DTD/svg11.dtd" >
<svg>
<metadata>
Created by FontForge 20090914 at Thu Mar 21 20:27:36 2013
 By www-data
Copyright &#194;&#169; 1996, 1997 Br&#195;&#184;derbund Software.
</metadata>
<defs>
<font id="Tabitha" horiz-adv-x="333" >
  <font-face 
    font-family="Tabitha"
    font-weight="400"
    font-stretch="normal"
    units-per-em="1000"
    panose-1="0 0 4 0 0 0 0 0 0 0"
    ascent="800"
    descent="-200"
    x-height="427.001"
    cap-height="712.999"
    bbox="-166 -282.998 1244 998"
    underline-thickness="20"
    underline-position="-190"
    unicode-range="U+0020-U+F002"
  />
<missing-glyph horiz-adv-x="500" 
d="M63 0v815h375v-815h-375zM125 63h250v690h-250v-690z" />
    <glyph glyph-name=".notdef" horiz-adv-x="500" 
d="M63 0v815h375v-815h-375zM125 63h250v690h-250v-690z" />
    <glyph glyph-name="space" unicode=" " horiz-adv-x="282" 
 />
    <glyph glyph-name="exclam" unicode="!" horiz-adv-x="267" 
d="M53 204c0 8 1.99902 19.668 5.99902 35.001s6 27 6 35c0 59.333 2.66699 128.666 8 207.999l14 208c1.33301 15.333 7.33301 26.333 18 33c30.667 -4.66699 57.334 -7 80.001 -7c8 0 16.5 -3.83301 25.5 -11.5s13.5 -15.5 13.5 -23.5
c0 -4.66699 -5.16699 -17.5 -15.5 -38.5s-15.833 -36.5 -16.5 -46.5c-10.667 -122.667 -16 -256.334 -16 -401.001c0 -13.333 -7.33301 -21.666 -22 -24.999c-6 -1.33301 -19 -2 -39 -2c-10.667 0 -23 3.33301 -37 10c-16.667 8 -25 16.667 -25 26zM135.999 137.001
c14.667 0 27.333 -11.333 38 -34c9.33301 -19.333 14 -37.333 14 -54c0 -17.333 -10 -32.333 -30 -45c-17.333 -11.333 -35.333 -17 -54 -17c-18 0 -33 6.83301 -45 20.5s-18 29.5 -18 47.5c0 18.667 11.167 37 33.5 55s42.833 27 61.5 27z" />
    <glyph glyph-name="quotedbl" unicode="&#x22;" horiz-adv-x="343" 
d="M40 568c0 10 -1.16699 24.5 -3.5 43.5s-3.5 33.5 -3.5 43.5c0 36.667 10.333 56.667 31 60c12.667 2 23.667 3 33 3c23.333 0 38 -6.33301 44 -19c4 -8 6 -24.333 6 -49l-12 -136c-2 -24 -3.66699 -37.333 -5 -40c-4.66699 -9.33301 -15.667 -15.333 -33 -18l-7 -1
c-5.33301 -1.33301 -10 -2 -14 -2c-25.333 0 -38 25.333 -38 76c0 11.333 0.666992 24.333 2 39zM190 568c0 10 -1.16699 24.5 -3.5 43.5s-3.5 33.5 -3.5 43.5c0 36.667 10.333 56.667 31 60c12.667 2 23.667 3 33 3c23.333 0 38 -6.33301 44 -19c4 -8 6 -24.333 6 -49
l-12 -136c-2 -24 -3.66699 -37.333 -5 -40c-4.66699 -9.33301 -15.667 -15.333 -33 -18l-7 -1c-5.33301 -1.33301 -10 -2 -14 -2c-25.333 0 -38 25.333 -38 76c0 11.333 0.666992 24.333 2 39z" />
    <glyph glyph-name="numbersign" unicode="#" horiz-adv-x="709" 
d="M317 382c-5.33301 -25.333 -11.333 -51.333 -18 -78l81 2l16 77zM552 389c-3.33301 -0.666992 -21.3301 -1.66602 -53.9971 -2.99902c-6 -24.667 -12 -50.667 -18 -78c98.667 0.666992 148.334 -4 149.001 -14c3.33301 -49.333 -37.334 -76.666 -122.001 -81.999
c-7.33301 0 -23.666 -0.666992 -48.999 -2c-14.667 -63.333 -24.667 -105 -30 -125c-8 -30 -15 -49 -21 -57c-8.66699 -12.667 -25.334 -23.334 -50.001 -32.001c-12.667 -4.66699 -22.667 -6 -30 -4c-4 0.666992 -3.66699 20 1 58c1.33301 10.667 11.666 63 30.999 157
l-82 -2l-29 -120c-8 -29.333 -15 -48.333 -21 -57c-8.66699 -12.667 -25.334 -23.334 -50.001 -32.001c-12.667 -4.66699 -22.667 -6 -30 -4c-4 0.666992 -3.66699 20 1 58c1.33301 10.667 11.333 62 30 154c-56 -0.666992 -88.667 -0.666992 -98 0
c-18 1.33301 -28.333 2.33301 -31 3c-16.667 1.33301 -25.334 3.66602 -26.001 6.99902c0 8 3.33301 17.667 10 29c12.667 21.333 26.334 35.333 41.001 42c8 3.33301 28 6.66602 60 9.99902c15.333 1.33301 36.666 3 63.999 5l17 80c-14.667 0 -35 0.333008 -61 1
c-28.667 1.33301 -49 2 -61 2c-16.667 2 -25 4.66699 -25 8c-0.666992 6.66699 2.66602 16 9.99902 28c14 22.667 27.333 37 40 43c9.33301 4 29.333 7.33301 60 10c6.66699 0.666992 26 2 58 4c13.333 62.667 22.333 102.334 27 119.001c18.667 70.667 46 106 82 106
c6.66699 0 13.667 -1 21 -3c2.66699 -0.666992 4 -5.66699 4 -15c0 -29.333 -11 -97 -33 -203l80 2c13.333 60.667 22 98.334 26 113.001c18.667 70.667 46 106 82 106c6.66699 0 13.667 -1 21 -3c2.66699 -0.666992 4 -5.66699 4 -15c0 -28.667 -10.667 -95 -32 -199
c102.667 1.33301 154.334 -3 155.001 -13c3.33301 -50 -37 -77.333 -121 -82z" />
    <glyph glyph-name="dollar" unicode="$" horiz-adv-x="474" 
d="M198 636c0 6.66699 -0.333008 16.6641 -1 29.9971s-1 23.333 -1 30c0 20.667 6.33301 35 19 43c10 6 26.333 9 49 9c26.667 0 40 -22 40 -66c0 -6 -0.333008 -14.5 -1 -25.5s-1 -19.5 -1 -25.5c35.333 -13.333 66.333 -40 93 -80s40 -79 40 -117
c0 -19.333 -11.667 -29 -35 -29c-24 0 -43.333 4.33301 -58 13c0.666992 1.33301 1 3 1 5c0 12.667 -11.667 34.667 -35 66c-27.333 36.667 -48 55 -62 55c-20.667 0 -36.667 -12.333 -48 -37c-8.66699 -18.667 -13 -40 -13 -64c0 -37.333 22.333 -63.333 67 -78
c10 -3.33301 51.333 -15 124 -35c44 -17.333 66 -45 66 -83c0 -40.667 -12.5 -78 -37.5 -112s-56.833 -56 -95.5 -66c-4.66699 -9.33301 -7.66699 -18 -9 -26c-0.666992 -6.66699 -0.666992 -15.667 0 -27l2 -27c0 -24 -25.333 -36 -76 -36c-20.667 0 -31 21.667 -31 65
c0 6.66699 0.5 16.667 1.5 30s1.5 23.333 1.5 30c-42.667 4.66699 -81.667 21 -117 49c-39.333 30.667 -59 66.334 -59 107.001c0 13.333 8 24.333 24 33c14 7.33301 28.333 11 43 11c25.333 0 43.333 -9.33301 54 -28l28 -50c14.667 -18.667 37.667 -28 69 -28
c41.333 0 62 15.333 62 46c0 27.333 -22 48 -66 62c-72 22.667 -113.333 37.334 -124 44.001c-44.667 27.333 -67 71.333 -67 132c0 50.667 13.667 90.334 41 119.001c22 22.667 59.333 43 112 61z" />
    <glyph glyph-name="percent" unicode="%" horiz-adv-x="650" 
d="M127 47c0 26 50.667 129.667 152 311c86 154 149.333 261 190 321c14.667 22 25.667 33 33 33c13.333 0 29 -3.33301 47 -10c21.333 -8 32 -17.333 32 -28l-138 -230c-80 -134 -159.333 -278 -238 -432c-4 -8 -11.667 -12 -23 -12c-5.33301 0 -15.833 6.66699 -31.5 20
s-23.5 22.333 -23.5 27zM19 527c0 16.667 3.33301 37.001 10 61.001c12 43.333 23.667 71.666 35 84.999c17.333 20.667 46 31 86 31c44 0 79.833 -14.333 107.5 -43s41.5 -65 41.5 -109c0 -68.667 -21.667 -116.667 -65 -144l-1 -1c-44 -6.66699 -64 -10 -60 -10
c-40.667 0 -75.667 11.333 -105 34c-32.667 24.667 -49 56.667 -49 96zM352 150.001c7.33301 99.333 45.001 148.998 113.001 148.998c51.333 0 91.666 -13.667 120.999 -41s44 -66.666 44 -117.999c0 -37.333 -8.33301 -69.666 -25 -96.999c-20 -32 -47.333 -48 -82 -48
c-20.667 0 -47 6 -79 18c-34 12 -57.333 25 -70 39c-18 20 -25.667 48.333 -23 85zM163.001 454.999c29.333 0 44 31.999 44 95.999c0 18.667 -2.66699 35.667 -8 51c-7.33301 22 -18.333 33 -33 33c-15.333 0 -27.333 -14.667 -36 -44c-6.66699 -22 -10 -43 -10 -63
c0 -17.333 3 -32.666 9 -45.999c8 -18 19.333 -27 34 -27zM456.001 97.998c0 -26.667 10.666 -40.001 31.999 -40.001c28.667 0 43 31.333 43 94c0 31.333 -8 57 -24 77c-17.333 -7.33301 -30.666 -26.666 -39.999 -57.999c-7.33301 -24 -11 -48.333 -11 -73z" />
    <glyph glyph-name="ampersand" unicode="&#x26;" horiz-adv-x="656" 
d="M202 307c-112 6.66699 -167.998 47.001 -167.998 121.001c0 54 50.333 102.333 151 145c86 36.667 161 55 225 55c38.667 0 68.834 -11.5 90.501 -34.5s32.5 -54.167 32.5 -93.5c0 -28 -12 -42 -36 -42c-33.333 0 -61.666 25 -84.999 75h-3
c-32.667 0 -78.334 -11.667 -137.001 -35c-55.333 -22 -97.333 -44 -126 -66l-2 -20c15.333 -21.333 52.333 -32 111 -32h51c38 0 65 -3.33301 81 -10c26.667 -11.333 40 -32.666 40 -63.999c0 -12 -27.333 -29 -82 -51c-86.667 -35.333 -137.334 -56.333 -152.001 -63
c-54.667 -26 -82 -50.333 -82 -73c0 -12.667 12.667 -22.334 38 -29.001c20 -5.33301 38 -8 54 -8c105.333 0 199.333 25.333 282 76c-14.667 0.666992 -34 6 -58 16c-28 11.333 -42.333 22.666 -43 33.999c-0.666992 20.667 33.333 38 102 52c52 10.667 93 16 123 16
c40.667 0 61 -23 61 -69c0 -18.667 -27.667 -32.667 -83 -42c-17.333 -59.333 -62.333 -104.333 -135 -135c-58.667 -24.667 -124.667 -37 -198 -37c-54.667 0 -105.334 13.333 -152.001 40c-55.333 32 -83 73.667 -83 125c0 46 35.667 85 107 117
c13.333 6 38.666 16.667 75.999 32z" />
    <glyph glyph-name="quotesingle" unicode="'" horiz-adv-x="189" 
d="M40 568c0 10 -1.16699 24.5 -3.5 43.5s-3.5 33.5 -3.5 43.5c0 36.667 10.333 56.667 31 60c12.667 2 23.667 3 33 3c23.333 0 38 -6.33301 44 -19c4 -8 6 -24.333 6 -49l-12 -136c-2 -24 -3.66699 -37.333 -5 -40c-4.66699 -9.33301 -15.667 -15.333 -33 -18l-7 -1
c-5.33301 -1.33301 -10 -2 -14 -2c-25.333 0 -38 25.333 -38 76c0 11.333 0.666992 24.333 2 39z" />
    <glyph glyph-name="parenleft" unicode="(" horiz-adv-x="280" 
d="M41 321c0 126.667 4.33301 214.666 13 263.999c21.333 120.667 66.666 181 135.999 181c11.333 0 22 -2.33301 32 -7c12.667 -6 19 -14 19 -24s-2.33301 -19.333 -7 -28c-17.333 -4 -31.666 -9.33301 -42.999 -16c-20.667 -12 -31 -120.667 -31 -326
c0 -15.333 -0.5 -37.833 -1.5 -67.5s-1.5 -52.167 -1.5 -67.5c0 -174.667 34.333 -267.667 103 -279l5 -7c-0.666992 -21.333 -17.667 -32 -51 -32c-74 0 -124.333 53.667 -151 161c-14.667 58.667 -22 141.334 -22 248.001z" />
    <glyph glyph-name="parenright" unicode=")" horiz-adv-x="277" 
d="M14 721c-2 4 -3 8 -3 12c0 19.333 15 29 45 29c116.667 0 175 -116.667 175 -350c0 -9.33301 1 -44.333 3 -105c1.33301 -42 0.666016 -76.667 -2.00098 -104c-4.66699 -39.333 -9.66699 -79.333 -15 -120c-15.333 -117.333 -59.666 -176 -132.999 -176
c-12 0 -23 2.33301 -33 7c-12.667 6 -19 14 -19 24s2.33301 19.333 7 28c10 2.66699 24.667 8 44 16c20.667 11.333 31 120 31 326c0 112 -1.33301 185.333 -4 220c-8.66699 111.333 -30 172.333 -64 183z" />
    <glyph glyph-name="asterisk" unicode="*" horiz-adv-x="369" 
d="M123 639c0.666992 6 -0.330078 14.502 -2.99707 25.502s-4 18.833 -4 23.5c0 9.33301 4.16699 17.5 12.5 24.5s17.166 10.5 26.499 10.5c17.333 0 38.333 -24.333 63 -73c5.33301 12.667 15.166 26.5 29.499 41.5s27.166 22.5 38.499 22.5
c10.667 0 19.834 -3.83301 27.501 -11.5s11.5 -16.834 11.5 -27.501c0 -24 -14.333 -46.667 -43 -68c13.333 -2.66699 26 -9 38 -19c14 -12 21 -24 21 -36c0 -9.33301 -3.5 -17.833 -10.5 -25.5s-15.167 -11.5 -24.5 -11.5c-4 0 -9.33301 0.333008 -16 1h-16
c-20.667 0 -30 0.333008 -28 1c10 -17.333 15 -36.333 15 -57c0 -20 -11 -30 -33 -30c-13.333 0 -27 6.16699 -41 18.5s-23.333 25.166 -28 38.499c-5.33301 -9.33301 -15 -20 -29 -32s-25.333 -18 -34 -18c-27.333 0 -41 14 -41 42c0 28.667 12 50 36 64
c-4 4 -17.333 11 -40 21c-18 8 -27 15.333 -27 22c0 38.667 15.667 58 47 58c17.333 0 34.666 -1.66699 51.999 -5z" />
    <glyph glyph-name="plus" unicode="+" horiz-adv-x="503" 
d="M205 301c1.33301 22 3.66797 57.333 7.00098 106c8 39.333 25.333 59 52 59c11.333 0 18.833 -1.66699 22.5 -5s6.5 -10.666 8.5 -21.999c5.33301 -29.333 7.33301 -81 6 -155h13c65.333 0 100.666 -1.33301 105.999 -4c40 -6 60 -22.333 60 -49
c0 -15.333 -6.66699 -25.333 -20 -30c-4.66699 -2 -18.334 -4.33301 -41.001 -7c-36 -4.66699 -76.667 -6.66699 -122 -6l-1 -28c0.666992 -16.667 1 -47 1 -91c-0.666992 -44 -16.667 -66 -48 -66c-12 0 -22.333 3 -31 9c-4 3.33301 -8 28 -12 74
c-2 23.333 -3 58.333 -3 105l-28 -1c-13.333 -0.666992 -32.666 -1.83398 -57.999 -3.50098s-36.333 -2.5 -33 -2.5c-45.333 0 -68 16.333 -68 49c0 12 2.66699 22 8 30c3.33301 4 27.666 8.66699 72.999 14c50.667 6 86.334 9 107.001 9z" />
    <glyph glyph-name="comma" unicode="," horiz-adv-x="189" 
d="M28 -63c0 17.333 3.33301 40.334 10 69.001c0.666992 25.333 2.66699 52.666 6 81.999c4 40 17.667 60 41 60c50 0 75 -13 75 -39c0 -21.333 -12 -78.333 -36 -171c-6 -23.333 -9.66699 -36.333 -11 -39c-6 -8.66699 -18 -13 -36 -13h-7c-28 0 -42 17 -42 51z" />
    <glyph glyph-name="hyphen" unicode="-" horiz-adv-x="359" 
d="M212 286c37.333 0 65 -3.33203 83 -9.99902c29.333 -10.667 44 -31.667 44 -63c0 -15.333 -30.333 -23 -91 -23h-111c-30 0 -50.333 2 -61 6c-14 5.33301 -28.333 18.333 -43 39c-8 11.333 -12 20.666 -12 27.999c0 15.333 63.667 23 191 23z" />
    <glyph glyph-name="hyphen" unicode="&#x2010;" horiz-adv-x="359" 
d="M212 286c37.333 0 65 -3.33203 83 -9.99902c29.333 -10.667 44 -31.667 44 -63c0 -15.333 -30.333 -23 -91 -23h-111c-30 0 -50.333 2 -61 6c-14 5.33301 -28.333 18.333 -43 39c-8 11.333 -12 20.666 -12 27.999c0 15.333 63.667 23 191 23z" />
    <glyph glyph-name="period" unicode="." horiz-adv-x="203" 
d="M122 137c14.667 0 27.333 -11.333 38 -34c9.33301 -19.333 14 -37.333 14 -54c0 -17.333 -10 -32.333 -30 -45c-17.333 -11.333 -35.333 -17 -54 -17c-18 0 -33 6.83301 -45 20.5s-18 29.5 -18 47.5c0 18.667 11 37 33 55s42.667 27 62 27z" />
    <glyph glyph-name="slash" unicode="/" horiz-adv-x="278" 
d="M14 71l17.999 45.998c1.33301 3.33301 4.66602 16.333 9.99902 39c22.667 96 55.334 221 98.001 375l34 123c9.33301 34.667 17 52 23 52c45.333 -28 68 -58.333 68 -91c0 -7.33301 -7 -23.666 -21 -48.999c-15.333 -27.333 -24 -44.666 -26 -51.999l-108 -396
c-13.333 -81.333 -28 -122 -44 -122c-17.333 0 -30.666 8.66699 -39.999 26c-8 14 -12 30.333 -12 49z" />
    <glyph glyph-name="zero" unicode="0" horiz-adv-x="612" 
d="M29 277c0 93.333 21 174.334 63 243.001c49.333 80.667 116.666 121 201.999 121c81.333 0 150.333 -32 207 -96c54.667 -62 82 -134.333 82 -217c0 -91.333 -20.667 -167.333 -62 -228c-47.333 -70 -114.666 -105 -201.999 -105c-83.333 0 -152.5 26.167 -207.5 78.5
s-82.5 120.166 -82.5 203.499zM300 58.001c56 0 101.334 31.333 136.001 94c29.333 52.667 44 108.667 44 168c0 67.333 -10.667 122.333 -32 165c-28 56.667 -72.333 85 -133 85c-55.333 0 -100 -43 -134 -129c-26.667 -67.333 -40 -134 -40 -200
c0 -50.667 13.667 -93 41 -127c29.333 -37.333 68.666 -56 117.999 -56z" />
    <glyph glyph-name="one" unicode="1" horiz-adv-x="615" 
d="M244 80c0.666992 102 3.33398 255 8.00098 459c-4.66699 -1.33301 -10.334 -2 -17.001 -2c-46 0 -69 12 -69 36c0 16.667 21 30 63 40c31.333 7.33301 59.333 11 84 11c36.667 0 55 -18.333 55 -55c0 -39.333 -2.66699 -97.833 -8 -175.5s-8 -136.167 -8 -175.5v-127
c47.333 -6 71 -28 71 -66c0 -20 -75.667 -30 -227 -30c-37.333 0 -56 9.33301 -56 28c0 20 13 34.667 39 44c11.333 4 33 8.33301 65 13z" />
    <glyph glyph-name="two" unicode="2" horiz-adv-x="612" 
d="M295 120c60 2 97.334 3.00195 112.001 3.00195c91.333 0 137 -19.333 137 -58c0 -20 -15.333 -30 -46 -30c-6 0 -15.333 0.666992 -28 2s-22 2 -28 2c-106.667 0 -209 -11.667 -307 -35c-4.66699 -1.33301 -11.834 -5 -21.501 -11s-17.834 -9 -24.501 -9
c-20.667 0 -31 23.667 -31 71c0 13.333 5.33301 24.333 16 33c4.66699 4 16.334 9.33301 35.001 16c74 27.333 147 77.666 219 150.999c80 81.333 120 157 120 227c0 24.667 -6.33301 46.167 -19 64.5s-30.667 27.5 -54 27.5c-43.333 0 -89.5 -29 -138.5 -87
s-73.5 -109 -73.5 -153c0 -6.66699 -2.66699 -13 -8 -19s-11.333 -9 -18 -9c-16.667 0 -31.5 6.5 -44.5 19.5s-19.5 27.833 -19.5 44.5c0 62 27 124.5 81 187.5s111.667 94.5 173 94.5c58.667 0 110.834 -21.333 156.501 -64s68.5 -93.334 68.5 -152.001s-30 -120 -90 -184
c-46.667 -50 -102.334 -94 -167.001 -132z" />
    <glyph glyph-name="three" unicode="3" horiz-adv-x="612" 
d="M405 299l8.99902 0.00292969c32.667 0 62 -13.833 88 -41.5s39 -57.834 39 -90.501c0 -58 -33.333 -104.333 -100 -139c-54 -28 -113.333 -42 -178 -42c-46.667 0 -88.667 8.66699 -126 26c-48 22 -72 53.667 -72 95c0 13.333 5.16699 25 15.5 35s22.166 15 35.499 15
c12.667 0 20 -7.33301 22 -22c2.66699 -18 8.66699 -31 18 -39c18 -14.667 52 -22 102 -22c43.333 0 87.333 12.333 132 37c35.333 19.333 53 42 53 68c0 16 -21 29.667 -63 41c-32.667 8.66699 -61 13 -85 13c-9.33301 0 -22.666 -2.16699 -39.999 -6.5
s-30.666 -6.5 -39.999 -6.5c-20.667 0 -31 25 -31 75c0 20 7 30 21 30c4 0 10.333 -0.666992 19 -2s15 -2 19 -2c40 0 83 18.667 129 56s69 75.666 69 114.999c0 17.333 -7.33301 31.666 -22 42.999s-31 17 -49 17c-41.333 0 -86.333 -20.667 -135 -62
c-50.667 -42 -76 -83.333 -76 -124l-3 -9l-11 -2c-17.333 0 -35 6 -53 18c-20 12.667 -30 27.334 -30 44.001c0 55.333 32.333 107.333 97 156c60.667 46 119.667 69 177 69c39.333 0 84 -20.333 134 -61c52 -42.667 78 -83 78 -121c0 -32.667 -16.333 -65.334 -49 -98.001
c-28 -28.667 -59.333 -49.667 -94 -63z" />
    <glyph glyph-name="four" unicode="4" horiz-adv-x="611" 
d="M479 235l21 1.00098c52 2.66699 78 -16 78 -56c0 -15.333 -13 -25.666 -39 -30.999c-8 -1.33301 -28.333 -5.33301 -61 -12c0 -10.667 0.666992 -26.167 2 -46.5s2 -35.833 2 -46.5c0 -20.667 -8 -34 -24 -40c-8.66699 -3.33301 -26 -5 -52 -5c-27.333 0 -41 10 -41 30
c0 4.66699 0.333008 11.167 1 19.5s1 14.833 1 19.5v73c-89.333 -10.667 -195 -16 -317 -16c-16 0 -28.667 15 -38 45c-7.33301 23.333 -11 45.666 -11 66.999c0 12.667 104 115.667 312 309v1c36.667 34.667 58.667 54.667 66 60c26 18.667 53 28 81 28
c12.667 0 24 -2.66699 34 -8c12.667 -6.66699 17.667 -15.667 15 -27c-9.33301 -44.667 -16 -105.334 -20 -182.001zM369 231.001l7.99902 207c0 4 -0.666992 16.667 -2 38l-140 -130c-77.333 -72 -119.666 -114.333 -126.999 -127c58.667 0 145.667 4 261 12z" />
    <glyph glyph-name="five" unicode="5" horiz-adv-x="612" 
d="M203 515c-7.33301 -20 -11.6641 -45.9961 -12.9971 -77.9961v-80c11.333 -0.666992 27.666 0.166016 48.999 2.49902s36.666 3.5 45.999 3.5c68.667 0 129 -13 181 -39c66 -32.667 99 -80 99 -142c0 -66.667 -43 -117.667 -129 -153
c-64.667 -26.667 -136.334 -40 -215.001 -40c-42.667 0 -81.667 9.66699 -117 29c-43.333 23.333 -65 55 -65 95c0 32 13.333 48 40 48c15.333 0 27.333 -6.66699 36 -20c4.66699 -8.66699 12 -21.334 22 -38.001c12.667 -13.333 32.667 -20 60 -20
c51.333 0 106.333 8.33301 165 25c79.333 22.667 119 52.667 119 90c0 26.667 -22.333 47 -67 61c-32 10 -65.333 15 -100 15c-22.667 0 -56.5 -7.83301 -101.5 -23.5s-74.833 -23.5 -89.5 -23.5c-11.333 0 -21.666 4.66699 -30.999 14s-14 19.666 -14 30.999
c0 27.333 0.666992 54.666 2 81.999l4 82c1.33301 35.333 3.66602 75 6.99902 119c6 24.667 20 40.667 42 48c18 6 58.333 9 121 9h123c60 0 95 -0.666992 105 -2c50.667 -6.66699 76 -23.667 76 -51l-2 -11c-3.33301 -10.667 -57 -18.667 -161 -24z" />
    <glyph glyph-name="six" unicode="6" horiz-adv-x="612" 
d="M156 269c88 52.667 161.666 79 220.999 79c52.667 0 98.334 -17.667 137.001 -53s58 -79 58 -131c0 -51.333 -35.333 -95 -106 -131c-60 -30.667 -118.667 -46 -176 -46c-17.333 0 -49.333 9 -96 27c-65.333 25.333 -109 61.666 -131 108.999
c-16 34.667 -24 91.334 -24 170.001c0 79.333 19 156.333 57 231c46 90.667 105 136 177 136c72.667 0 133 -20.333 181 -61c51.333 -42.667 77 -99.667 77 -171c0 -38 -24 -57 -72 -57c-10.667 0 -20 18.333 -28 55c-11.333 54 -20.333 88 -27 102
c-16.667 36.667 -40.667 55 -72 55c-53.333 0 -98 -35.667 -134 -107c-30 -59.333 -45 -118.666 -45 -177.999c0 -8.66699 1 -18.334 3 -29.001zM246.999 51c37.333 0 82.334 17.001 135.001 51.001c56.667 37.333 85 73.333 85 108c0 21.333 -24.333 32 -73 32
c-121.333 0 -200.333 -28.333 -237 -85c1.33301 -26.667 10 -50.334 26 -71.001c17.333 -23.333 38.666 -35 63.999 -35z" />
    <glyph glyph-name="seven" unicode="7" horiz-adv-x="612" 
d="M402 524l-237.001 -16.999l-30 -84c-13.333 -38 -28 -57 -44 -57c-37.333 0 -56 21 -56 63c0 22 6 57 18 105c14.667 58.667 29.667 88 45 88c9.33301 0 23.333 -5.16699 42 -15.5s32.334 -15.5 41.001 -15.5c25.333 0 63.5 3.5 114.5 10.5s89.167 10.5 114.5 10.5
c6 0 14.5 0.333008 25.5 1s19.5 1 25.5 1c54 0 81 -14 81 -42l-202 -475c-3.33301 -11.333 -10 -31.833 -20 -61.5s-19.667 -44.5 -29 -44.5c-16 0 -32 3.66699 -48 11c-20 8.66699 -30 20 -30 34c0 43.333 28.333 123.666 85 240.999c62 128 96.667 210.333 104 247z" />
    <glyph glyph-name="eight" unicode="8" horiz-adv-x="614" 
d="M165 311c-67.333 44.667 -100.999 91.332 -100.999 139.999c0 50 29.667 95.667 89 137c54.667 38 108.334 57 161.001 57c45.333 0 90.666 -16.333 135.999 -49c49.333 -35.333 74 -74.666 74 -117.999c0 -31.333 -12.333 -62.833 -37 -94.5
s-52.334 -53.167 -83.001 -64.5c39.333 -8 75 -24.333 107 -49c38 -28.667 57 -61 57 -97c0 -58 -29.333 -104.667 -88 -140c-49.333 -30 -105 -45 -167 -45c-58.667 0 -115 15 -169 45c-64.667 36 -97 80.667 -97 134c0 34 13.333 63 40 87zM253.001 366.998
c40 0 75.002 9.33398 105.002 28.001c35.333 21.333 53 51 53 89c0 20.667 -5.83301 37.834 -17.5 51.501s-27.834 20.5 -48.501 20.5c-24 0 -49.167 -6.33301 -75.5 -19s-47.833 -28.334 -64.5 -47.001c-26.667 -30.667 -40 -52.334 -40 -65.001c0 -16 11 -30 33 -42
c19.333 -10.667 37.666 -16 54.999 -16zM284.003 69.999c35.333 0 71.334 8.66699 108.001 26c44.667 21.333 67 48 67 80s-18.333 56.667 -55 74c-28.667 13.333 -61.334 20 -98.001 20c-32.667 0 -67 -15 -103 -45s-54 -60.667 -54 -92c0 -22.667 18 -39.667 54 -51
c25.333 -8 52.333 -12 81 -12z" />
    <glyph glyph-name="nine" unicode="9" horiz-adv-x="612" 
d="M458 384c-82.667 -55.333 -156.667 -83 -222 -83c-53.333 0 -99.5 17.5 -138.5 52.5s-58.5 79.167 -58.5 132.5c0 50.667 35 94 105 130c59.333 30.667 117.333 46 174 46c24 0 56.667 -8.66699 98 -26c64.667 -27.333 107.667 -62.333 129 -105c18 -36 27 -91 27 -165
c0 -81.333 -18.667 -160.333 -56 -237c-46 -94 -105.667 -141 -179 -141c-74.667 0 -135.667 21.333 -183 64c-49.333 44 -74 103 -74 177c0 16 8 28.667 24 38c14 8 29.667 12 47 12c11.333 0 21 -18.333 29 -55c11.333 -54 20.333 -88.333 27 -103
c16 -36.667 39.667 -55 71 -55c56 0 102.333 37.333 139 112c30.667 62.667 44.667 124 42 184zM217 406c41.333 0 87 7.33203 137 21.999c66 19.333 99 43 99 71c0 22.667 -9.33301 45 -28 67s-39 33 -61 33c-36.667 0 -81.667 -17.333 -135 -52
c-57.333 -37.333 -86 -72.666 -86 -105.999c0 -23.333 24.667 -35 74 -35z" />
    <glyph glyph-name="colon" unicode=":" horiz-adv-x="230" 
d="M136 137c14.667 0 27.333 -11.333 38 -34c9.33301 -19.333 14 -37.333 14 -54c0 -17.333 -10 -32.333 -30 -45c-17.333 -11.333 -35.333 -17 -54 -17c-18 0 -33 6.83301 -45 20.5s-18 29.5 -18 47.5c0 18.667 11.167 37 33.5 55s42.833 27 61.5 27zM135.999 434
c14.667 0 27.667 -12 39 -36c8.66699 -18.667 13 -35.667 13 -51c0 -18 -10 -33 -30 -45c-17.333 -10.667 -35.333 -16 -54 -16c-18 0 -33 6.66699 -45 20s-18 29.333 -18 48c0 18 11.167 35.833 33.5 53.5s42.833 26.5 61.5 26.5z" />
    <glyph glyph-name="semicolon" unicode=";" horiz-adv-x="230" 
d="M136 434c14.667 0 27.667 -12 39 -36c8.66699 -18.667 13 -35.667 13 -51c0 -18 -10 -33 -30 -45c-17.333 -10.667 -35.333 -16 -54 -16c-18 0 -33 6.66699 -45 20s-18 29.333 -18 48c0 18 11.167 35.833 33.5 53.5s42.833 26.5 61.5 26.5zM50 -63c0 20 3 43 9 69
l7.5 82.5c3.66699 39.667 17.167 59.5 40.5 59.5c50.667 0 76 -12.667 76 -38c0 -18 -12.333 -75.333 -37 -172c-6 -22.667 -10 -35.667 -12 -39c-6 -8.66699 -17.667 -13 -35 -13h-8c-16.667 0 -28 4.66699 -34 14c-4.66699 6.66699 -7 19 -7 37z" />
    <glyph glyph-name="less" unicode="&#x3c;" horiz-adv-x="464" 
d="M294 265c-48 -6 -110.665 -15.667 -187.998 -29c61.333 -8.66699 124 -18.667 188 -30c32.667 -6 64 -17 94 -33c32.667 -17.333 49 -38.333 49 -63c0 -15.333 -7.33301 -23 -22 -23c-32 0 -131.333 22.333 -298 67c-36 9.33301 -60.333 18 -73 26
c-16.667 10 -31.334 26.667 -44.001 50c-2.66699 2.66699 -3.33398 5.66699 -2.00098 9c12.667 24 27.667 41.333 45 52c11.333 7.33301 36 16 74 26c170 45.333 269.333 68 298 68c10 0 16.167 -1.5 18.5 -4.5s3.5 -9.5 3.5 -19.5c0 -24.667 -16.333 -45.667 -49 -63
c-18.667 -10 -50 -21 -94 -33z" />
    <glyph glyph-name="equal" unicode="=" horiz-adv-x="517" 
d="M304 216c54 0 94 -3.33301 120 -10c42 -10.667 63 -31.667 63 -63c0 -15.333 -43.667 -23 -131 -23h-160c-42.667 0 -71.667 2 -87 6c-20 5.33301 -40.667 18.333 -62 39c-12 12 -18 21.333 -18 28c0 15.333 91.667 23 275 23zM306 356c54 0 94 -3.33203 120 -9.99902
c42 -10.667 63 -31.667 63 -63c0 -15.333 -43.667 -23 -131 -23h-160c-42 0 -71 2 -87 6c-21.333 5.33301 -42.333 18.333 -63 39c-11.333 11.333 -17 20.666 -17 27.999c0 15.333 91.667 23 275 23z" />
    <glyph glyph-name="greater" unicode="&#x3e;" horiz-adv-x="464" 
d="M169 265c48 -6 110.665 -15.667 187.998 -29c-61.333 -8.66699 -124 -18.667 -188 -30c-32.667 -6 -64 -17 -94 -33c-32.667 -17.333 -49 -38.333 -49 -63c0 -15.333 7.33301 -23 22 -23c32 0 131.333 22.333 298 67c36 9.33301 60.333 18 73 26
c16.667 10 31.334 26.667 44.001 50c2.66699 2.66699 3.33398 5.66699 2.00098 9c-12.667 24 -27.667 41.333 -45 52c-11.333 7.33301 -36 16 -74 26c-170 45.333 -269.333 68 -298 68c-10 0 -16.167 -1.5 -18.5 -4.5s-3.5 -9.5 -3.5 -19.5c0 -24.667 16.333 -45.667 49 -63
c18.667 -10 50 -21 94 -33z" />
    <glyph glyph-name="question" unicode="?" horiz-adv-x="520" 
d="M301 248c7.33301 -7.33301 11 -15 11 -23c0 -12 -11.667 -23.333 -35 -34c-20 -9.33301 -37 -14 -51 -14c-12 0 -25 4 -39 12s-21 17.667 -21 29c0 16.667 19.667 50.334 59 101.001l109 141c38.667 51.333 58 91.666 58 120.999c0 12.667 -3.83301 23.5 -11.5 32.5
s-17.5 13.5 -29.5 13.5c-46 0 -96.667 -24 -152 -72c-52 -44 -87.333 -89.333 -106 -136c-2 -1.33301 -6 -2 -12 -2c-20 0 -39 5 -57 15c-21.333 11.333 -32 26 -32 44c0 42 41.667 95 125 159c80 61.333 142.333 92 187 92c40 0 83.667 -17.667 131 -53
c50 -37.333 75 -75.333 75 -114c0 -44.667 -28.333 -101 -85 -169zM256 137c15.333 0 28.001 -11.333 38.001 -34c8.66699 -18.667 13 -36.667 13 -54s-10 -32.333 -30 -45c-17.333 -11.333 -35.333 -17 -54 -17c-18 0 -33 6.83301 -45 20.5s-18 29.5 -18 47.5
c0 19.333 11.167 37.833 33.5 55.5s43.166 26.5 62.499 26.5z" />
    <glyph glyph-name="at" unicode="@" horiz-adv-x="768" 
d="M674 149c-30 -52.667 -70.665 -93.833 -121.998 -123.5s-107.333 -44.5 -168 -44.5c-94 0 -173.333 32.333 -238 97s-97 144 -97 238s32.333 173.333 97 238s144 97 238 97s170.667 -25.333 230 -76c63.333 -53.333 95 -126.333 95 -219v-7
c0 -24 -6.66699 -52.333 -20 -85c-17.333 -42 -40.333 -70 -69 -84c-15.333 -7.33301 -36.333 -11 -63 -11c-10.667 0 -22 0.666992 -34 2l-18 2c-36.667 0 -62.334 14.667 -77.001 44c-22 -26 -34.333 -40 -37 -42c-14 -12.667 -30.667 -19 -50 -19
c-40 0 -68.667 9.33301 -86 28s-26 48.334 -26 89.001c0 39.333 8.33301 78 25 116c21.333 48.667 48.666 73 81.999 73c60 0 101 -18.667 123 -56l8 2c17.333 0 27.333 -3.66699 30 -11c-12 -33.333 -18 -65 -18 -95v-58c0 -21.333 6.66699 -32 20 -32
c-8 0 -1.83301 -0.666992 18.5 -2s31.833 -2 34.5 -2c26.667 0 47 4.33301 61 13c30 18.667 49.667 61.667 59 129v6c0 80.667 -28.667 144.334 -86 191.001c-52.667 43.333 -120.334 65 -203.001 65s-152.667 -28.833 -210 -86.5s-86 -127.834 -86 -210.501
s28.833 -152.667 86.5 -210s127.834 -86 210.501 -86c50.667 0 97.834 12.167 141.501 36.5s79.5 57.833 107.5 100.5c7.33301 11.333 15.666 15.666 24.999 12.999c12 -2.66699 18 -7 18 -13c0 -2 -0.666992 -4.33301 -2 -7zM309.002 247.001
c0 -34.667 6.33203 -52 18.999 -52c8.66699 0 16.334 4.66699 23.001 14c24 34 38.667 57.667 44 71c2.66699 7.33301 7.66699 35 15 83c3.33301 22 5 30.333 5 25c0 6.66699 -3.5 12.5 -10.5 17.5s-13.833 7.5 -20.5 7.5c-25.333 0 -45 -22.333 -59 -67
c-10.667 -34 -16 -67 -16 -99z" />
    <glyph glyph-name="A" unicode="A" horiz-adv-x="642" 
d="M451 641c15.333 15.333 41.335 23.001 78.002 23.001c28.667 0 43 -8.33301 43 -25c0 -42 -4.66699 -105 -14 -189c-8.66699 -72.667 -13.667 -135.667 -15 -189c-0.666992 -14 -1.33398 -30.333 -2.00098 -49c-0.666992 -15.333 -1 -25 -1 -29c0 -64 9.33301 -96 28 -96
c17.333 0 49.666 9.33301 96.999 28l16 -7l3 -10c0 -19.333 -15.167 -38 -45.5 -56s-55.833 -27 -76.5 -27c-72.667 0 -113.667 45.667 -123 137c-26.667 -52 -49.334 -89 -68.001 -111c-32.667 -38 -69.667 -57 -111 -57c-155.333 0 -233 87.333 -233 262
c0 91.333 23.333 187.666 70 288.999c56 121.333 123.333 182 202 182c32 0 60 -7 84 -21c14.667 -8.66699 37.334 -27 68.001 -55zM209.002 58.001c30 0 63.667 18.666 101 55.999c87.333 87.333 131 213.333 131 378c0 32.667 -6.66699 61.334 -20 86.001
c-16 30.667 -39 46 -69 46c-56.667 0 -106.667 -54.667 -150 -164c-35.333 -89.333 -53 -168.333 -53 -237c0 -110 20 -165 60 -165z" />
    <glyph glyph-name="B" unicode="B" horiz-adv-x="703" 
d="M456 283c116.667 -46 174.994 -99.667 174.994 -161c0 -46 -38.667 -80 -116 -102c-51.333 -14.667 -108.666 -22 -171.999 -22c-35.333 0 -83.666 8.33301 -144.999 25c-7.33301 -16.667 -21.666 -25 -42.999 -25c-49.333 0 -74 18 -74 54c0 58.667 3.33301 147 10 265
l15 266c0.666992 9.33301 -0.666016 21 -3.99902 35c-15.333 0 -37.666 -4 -66.999 -12s-51.666 -12 -66.999 -12c-12 0 -18 9 -18 27c0 57.333 78.333 86 235 86c108 0 202.667 -14 284 -42c118 -40.667 177 -104.667 177 -192c0 -74.667 -63.333 -138 -190 -190z
M529.994 497c0 47.333 -37.333 82.999 -112 106.999c-51.333 16.667 -107.666 25 -168.999 25h-5c-14.667 -29.333 -24.334 -80.666 -29.001 -153.999c-0.666992 -10.667 -2 -64 -4 -160c66.667 4 132 20 196 48c82 36 123 80.667 123 134zM520.994 158.999
c0 21.333 -29.667 38 -89 50c-42.667 8.66699 -83.667 13 -123 13c-42.667 0 -77 -5.66699 -103 -17l-5 -115c30.667 -12 60.667 -18 90 -18c33.333 0 77.333 8 132 24c65.333 19.333 98 40.333 98 63z" />
    <glyph glyph-name="C" unicode="C" horiz-adv-x="616" 
d="M539 349l-6.99805 -1c-4.66699 -0.666992 -10.667 -1 -18 -1c-34 0 -58 14.333 -72 43c-9.33301 19.333 -14 53.666 -14 102.999v19c0 39.333 -2.66699 66.333 -8 81c-8.66699 23.333 -25.667 35 -51 35c-82 0 -143.333 -48 -184 -144c-30.667 -72 -46 -157 -46 -255
c0 -102 50 -153 150 -153c39.333 0 82.666 14.333 129.999 43c30 18 64.667 44.333 104 79c32.667 28.667 51 43 55 43c8 0 15.167 -3.66699 21.5 -11s9.5 -15 9.5 -23c0 -42 -39.333 -89.667 -118 -143c-75.333 -50.667 -137 -76 -185 -76
c-72.667 0 -137.167 26.667 -193.5 80s-84.5 116.333 -84.5 189c0 102.667 18.667 199.334 56 290.001c48.667 118 116.667 177 204 177c83.333 0 148.666 -33 195.999 -99c42.667 -58.667 64 -131 64 -217c0 -20 -3 -39.667 -9 -59z" />
    <glyph glyph-name="D" unicode="D" horiz-adv-x="666" 
d="M80 83c0 210.667 7.00098 379.333 21.001 506l-14 1c-12 0.666992 -29.5 -3.33301 -52.5 -12s-38.833 -13 -47.5 -13c-24.667 0 -37 20.667 -37 62c0 32 39.667 56.667 119 74c55.333 12 107.333 18 156 18c104.667 0 198 -32 280 -96
c89.333 -69.333 134 -155.333 134 -258c0 -84.667 -39.5 -168.5 -118.5 -251.5s-160.5 -124.5 -244.5 -124.5c-8.66699 0 -21.667 1.83301 -39 5.5s-30.333 5.5 -39 5.5c-5.33301 0 -13 -1.83301 -23 -5.5s-17.333 -5.5 -22 -5.5c-30.667 0 -51.334 9.33301 -62.001 28
c-7.33301 12.667 -11 34.667 -11 66zM218.001 72.999c73.333 0 144.332 38.666 212.999 115.999c66 75.333 99 150.333 99 225c0 76.667 -25.667 131.334 -77 164.001c-40.667 25.333 -101.667 38 -183 38c-23.333 0 -37.666 -3.66699 -42.999 -11s-8 -23 -8 -47
c0 -46 -4.16699 -114.5 -12.5 -205.5s-12.5 -159.5 -12.5 -205.5v-45c2.66699 -19.333 10.667 -29 24 -29z" />
    <glyph glyph-name="E" unicode="E" horiz-adv-x="693" 
d="M253 370c-132 25.333 -198.003 71.667 -198.003 139c0 65.333 58.667 120.666 176 165.999c96.667 37.333 184.667 56 264 56c38.667 0 69.667 -11 93 -33s35 -52 35 -90c0 -16.667 -5.66699 -31.834 -17 -45.501s-25.333 -20.5 -42 -20.5
c-23.333 0 -41.666 9.66699 -54.999 29c-11.333 16 -17.666 36.333 -18.999 61l-20 1c-48.667 2.66699 -105.667 -11.333 -171 -42c-62.667 -28.667 -111.667 -61.667 -147 -99c-1.33301 -34 73.667 -51 225 -51c91.333 0 142.666 2.33301 153.999 7
c17.333 -3.33301 26 -26.666 26 -69.999c0 -18 -4 -29 -12 -33c-2 -1.33301 -15 -3.66602 -39 -6.99902c-53.333 -8 -127.333 -31.667 -222 -71c-114.667 -48 -172 -91.333 -172 -130c0 -25.333 18.333 -41.333 55 -48c11.333 -2 38.333 -3 81 -3
c108.667 0 215.334 24 320.001 72c46 28.667 74.667 43 86 43c20.667 0 31 -10 31 -30c0 -38 -56 -78.667 -168 -122c-98.667 -38 -173 -57 -223 -57c-59.333 0 -115.666 16.333 -168.999 49c-62 38 -93 85 -93 141c0 47.333 26 89 78 125c38 26 85.667 47 143 63z" />
    <glyph glyph-name="F" unicode="F" horiz-adv-x="566" 
d="M209 412l34.001 -1.99902c24.667 -1.33301 58.334 0 101.001 4c49.333 4 83.333 6 102 6c58.667 0 88 -15.667 88 -47c0 -18 -47.333 -34.667 -142 -50c-77.333 -12.667 -137 -19.334 -179 -20.001l-10 -10c-0.666992 -8.66699 -2.33398 -37.334 -5.00098 -86.001
c-2 -36.667 -3 -66.667 -3 -90c0 -38.667 2.66699 -72 8 -100c-20.667 -11.333 -47.667 -17 -81 -17c-29.333 0 -46 5.66699 -50 17c8 46.667 13 142 15 286c-14.667 4 -27.167 12.5 -37.5 25.5s-15.5 26.833 -15.5 41.5c0 18.667 8 28 24 28c7.33301 0 16.666 -2 27.999 -6
c12 88 18 142.667 18 164c0 15.333 -4 27.333 -12 36c-2 -0.666992 -4 -1 -6 -1c-12 0 -26.167 8 -42.5 24s-24.5 30 -24.5 42l13 21c27.333 8.66699 83.333 16 168 22c67.333 4.66699 125.666 7 174.999 7h61c46.667 0 75 -1 85 -3c35.333 -7.33301 53 -25.666 53 -54.999
c0 -9.33301 -2.66699 -17 -8 -23c-35.333 -8 -84.666 -14 -147.999 -18c-68.667 -4.66699 -118.667 -9.66699 -150 -15c-35.333 -6 -55 -28.333 -59 -67v-114z" />
    <glyph glyph-name="G" unicode="G" horiz-adv-x="669" 
d="M503 202l-79.999 -1c-0.666992 0 -4 -0.333008 -10 -1h-15h-23c-26.667 0 -46.167 4.83301 -58.5 14.5s-21.166 27.5 -26.499 53.5c129.333 15.333 208.333 23 237 23c40.667 0 67 -2 79 -6c28 -9.33301 42 -30 42 -62c0 -60.667 -35 -117.334 -105 -170.001
c-66 -50 -130 -73.333 -192 -70c-82 4.66699 -154.667 31.334 -218 80.001c-70 54 -105 120.333 -105 199c0 106.667 19 203 57 289c49.333 111.333 119.666 167 210.999 167c88 0 159.333 -22.333 214 -67c58.667 -47.333 88 -114.333 88 -201
c0 -28.667 -0.333008 -44 -1 -46c-2.66699 -18.667 -12.334 -28 -29.001 -28c-43.333 0 -71.666 23 -84.999 69c-6.66699 42.667 -14.667 85 -24 127c-10 46 -36 69 -78 69c-80 0 -141.667 -48.667 -185 -146c-34 -76 -51 -160.667 -51 -254c0 -117.333 52 -176 156 -176
c40.667 0 82.667 12.667 126 38c49.333 28.667 74.666 61.667 75.999 99z" />
    <glyph glyph-name="H" unicode="H" horiz-adv-x="693" 
d="M85 298c0.666992 34.667 1 126.333 1 275c0 51.333 4 84 12 98c12 20.667 40 31 84 31c28 0 42 -11.667 42 -35c0 -26 -4.33301 -77.667 -13 -155c-7.33301 -68 -10.333 -120.333 -9 -157l2 -45h20c71.333 0 156 8 254 24v13c-0.666992 18 -1 27.667 -1 29v64
c0 178.667 18.667 268 56 268c62.667 0 94 -13 94 -39c0 -33.333 -5.16699 -82.833 -15.5 -148.5s-15.5 -115.167 -15.5 -148.5c0 -12.667 2 -27 6 -43l20 1c11.333 0.666992 24.666 -3.33301 39.999 -12s23 -18.334 23 -29.001c0 -10 -4.33301 -19.333 -13 -28l-86 -15
c-1.33301 -28 -1.33301 -61.333 0 -100l3 -100c0 -35.333 -12 -53 -36 -53c-56.667 0 -85 23.667 -85 71c0 8 0.5 19.833 1.5 35.5s1.5 27.5 1.5 35.5c0 44 -1.33301 78 -4 102c-126 -14 -210.667 -21 -254 -21l-16 -4c-4.66699 -36 -7 -87.667 -7 -155
c0 -39.333 -17.333 -59 -52 -59c-42.667 0 -64 34.667 -64 104c0 18 3.66699 55 11 111c-37.333 2.66699 -61.666 5.33398 -72.999 8.00098c-31.333 7.33301 -49.333 20.333 -54 39l10 21c26 5.33301 65 11 117 17z" />
    <glyph glyph-name="I" unicode="I" horiz-adv-x="305" 
d="M82 82c6 12.667 9.66504 114.668 10.998 306.001l1 115c0.666992 41.333 -3.66602 79.333 -12.999 114h-6c-16 0 -32.333 5.5 -49 16.5s-25 24.167 -25 39.5c0 13.333 15.333 23.666 46 30.999c22 5.33301 43 7.66602 63 6.99902c8 0 19.333 0.333008 34 1
s25.334 1 32.001 1c94 0 141 -18.333 141 -55c0 -15.333 -13 -25.666 -39 -30.999c-35.333 -7.33301 -54.333 -12 -57 -14c-8.66699 -78 -12.667 -174 -12 -288l1 -226c0 -7.33301 13.5 -16.333 40.5 -27s40.5 -22 40.5 -34c0 -26 -39 -39 -117 -39
c-51.333 0 -84.333 0.666992 -99 2c-51.333 4.66699 -77 16.334 -77 35.001c0 10.667 12.333 20.667 37 30c8 3.33301 23.667 8.66602 47 15.999z" />
    <glyph glyph-name="J" unicode="J" horiz-adv-x="337" 
d="M116 607l-14 3.00195c-51.333 10.667 -77 28 -77 52s38 39.333 114 46c22.667 2 67.334 3 134.001 3c18.667 0 35.667 -2.66699 51 -8c22 -7.33301 33 -18.333 33 -33c0 -11.333 -15.333 -22 -46 -32c-36.667 -12 -57 -19 -61 -21
c-2.66699 -30.667 -4 -71.334 -4 -122.001v-64l1 -65c2 -136.667 -11 -240 -39 -310c-38 -94.667 -109.667 -142 -215 -142c-62 0 -93 14.333 -93 43c0 14 8.33301 26 25 36c14 8.66699 28.667 13 44 13c8.66699 0 20.667 -3 36 -9s25.666 -9 30.999 -9
c56.667 0 85 106.333 85 319c0 29.333 -1 71.666 -3 126.999l-2 65l2 49z" />
    <glyph glyph-name="K" unicode="K" horiz-adv-x="601" 
d="M198 394c8 5.33301 17.6689 12.666 29.002 21.999v1c25.333 30 78.666 82 159.999 156c89.333 81.333 141.333 122 156 122c12 0 25 -4.5 39 -13.5s21 -19.167 21 -30.5c0 -2 -50.667 -50.167 -152 -144.5s-152 -146.166 -152 -155.499c0 -33.333 23 -83 69 -149
c49.333 -71.333 91.666 -107 126.999 -107c11.333 0 28.166 4.66699 50.499 14s33.833 14 34.5 14c8.66699 0 16.167 -3.16699 22.5 -9.5s9.5 -13.833 9.5 -22.5c0 -22 -18.333 -42 -55 -60c-31.333 -15.333 -59.333 -23 -84 -23c-66.667 0 -135.667 52.333 -207 157
l-73 108c-0.666992 -30 0 -70.667 2 -122c2 -59.333 3 -100.333 3 -123c0 -11.333 -12.667 -20 -38 -26c-17.333 -4 -34.666 -6 -51.999 -6c-26 0 -39 14 -39 42c0 64 2.83301 160.333 8.5 289s8.5 225 8.5 289c0 36 3 59.333 9 70c8.66699 16 29 24 61 24
c28 0 49 -7 63 -21v-1c-14 -89.333 -21 -179 -21 -269v-25z" />
    <glyph glyph-name="L" unicode="L" horiz-adv-x="460" 
d="M200 108c-15.333 0 -2.83203 0.665039 37.501 1.99805s63.166 2 68.499 2c124 0 186 -19 186 -57c0 -21.333 -63.333 -37 -190 -47c-76 -6 -149 -9 -219 -9c-18.667 0 -28 9.33301 -28 28c0 16 7.33301 43 22 81c3.33301 8.66699 6.33301 95.334 9 260.001
c2 124.667 3 227 3 307c0 20.667 25 31 75 31c49.333 0 74 -12 74 -36c0 -21.333 -3.33301 -49.666 -10 -84.999c-8 -40 -12.667 -68 -14 -84c-11.333 -158 -17 -255.667 -17 -293c0 -24 0.333008 -43 1 -57z" />
    <glyph glyph-name="M" unicode="M" horiz-adv-x="757" 
d="M357 168c22.667 44 52.0029 124 88.0029 240l78 249c8.66699 26.667 38.667 40 90 40c34.667 0 52 -32.667 52 -98c0 -12.667 -1.16699 -31.334 -3.5 -56.001s-3.5 -43.334 -3.5 -56.001c0 -257.333 18.667 -386 56 -386c6.66699 0 27.667 8.33301 63 25
c19.333 -5.33301 29 -14.333 29 -27c0 -19.333 -17.667 -39.333 -53 -60c-32 -19.333 -58.667 -29 -80 -29c-82 0 -127 85 -135 255c-0.666992 16.667 -2 66.334 -4 149.001l-64 -210c-32 -105.333 -64 -158 -96 -158c-6 0 -27.667 1.66699 -65 5
c-28.667 2.66699 -51.667 29 -69 79c-9.33301 26 -20.333 76 -33 150c-10.667 62.667 -21.334 103.334 -32.001 122.001c-26 -158.667 -40.333 -279.667 -43 -363c-0.666992 -20 -0.666992 -30.333 0 -31c-10.667 -15.333 -24.334 -23 -41.001 -23
c-28.667 0 -43 15.333 -43 46c0 6.66699 0.333008 13 1 19l34 315c12 109.333 19 214.666 21 315.999c17.333 20 46.333 30 87 30c21.333 0 36.666 -2.33301 45.999 -7c13.333 -7.33301 20 -20.666 20 -39.999c0 -144.667 33.333 -310 100 -496z" />
    <glyph glyph-name="N" unicode="N" horiz-adv-x="625" 
d="M452 183c-5.33301 34 -8.00098 70.6719 -8.00098 110.005c0 43.333 1 121 3 233c3.33301 121.333 20.666 182 51.999 182c18.667 0 35 -6.66699 49 -20c-9.33301 -236.667 -14 -409.334 -14 -518.001c0 -50 0.666992 -97.667 2 -143c-22 -12.667 -47.333 -19 -76 -19
c-44 0 -99.667 66 -167 198c-23.333 45.333 -34 70.333 -32 75c-10.667 17.333 -23.167 41.666 -37.5 72.999l-35.5 77c-5.33301 -49.333 -8 -106.333 -8 -171c0 -28.667 0.666992 -71.334 2 -128.001s2 -99.334 2 -128.001c0 -34 -20 -51 -60 -51
c-33.333 0 -49 21.333 -47 64c6.66699 138.667 10 310.667 10 516c0 70.667 3.33301 112.667 10 126c12.667 25.333 47.334 38 104.001 38c20 0 32.667 -9.66699 38 -29c32.667 -116.667 59.334 -201.667 80.001 -255c38.667 -98.667 83 -175.334 133 -230.001z" />
    <glyph glyph-name="O" unicode="O" horiz-adv-x="693" 
d="M28 337c0 88.667 21 170.667 63 246c50 89.333 116 134 198 134c26 0 73.333 -16.333 142 -49c63.333 -30 106 -54.333 128 -73c28 -23.333 46.667 -41.333 56 -54s20.666 -36 33.999 -70l1 -1c10 -40 15 -76.333 15 -109c0 -109.333 -26.333 -197.333 -79 -264
c-57.333 -73.333 -139.333 -110 -246 -110c-46.667 0 -99.167 19.167 -157.5 57.5s-98.666 78.5 -120.999 120.5s-33.5 99.333 -33.5 172zM326 55c63.333 0 117.667 34.333 163 103c40.667 62 61 126 61 192c0 73.333 -17.333 135.333 -52 186
c-39.333 58.667 -94 88 -164 88c-66.667 0 -115.667 -45.333 -147 -136c-22.667 -65.333 -34 -139 -34 -221c0 -55.333 14.667 -103.333 44 -144c32.667 -45.333 75.667 -68 129 -68z" />
    <glyph glyph-name="P" unicode="P" horiz-adv-x="583" 
d="M209 256c-6 -39.333 -9 -114 -9 -224c0 -18.667 -8.33301 -31 -25 -37c-9.33301 -3.33301 -26.333 -5 -51 -5c-29.333 0 -44 23 -44 69c0 196.667 10.667 379.667 32 549c-12.667 -1.33301 -43.334 -8 -92.001 -20c-42.667 -10.667 -72.667 -16 -90 -16
c-10 0 -20 5 -30 15s-15 20 -15 30c0 18.667 38.333 40.667 115 66c68.667 22.667 115 34 139 34c122.667 0 218.334 -11 287.001 -33c112.667 -36 169 -102.333 169 -199c0 -78 -47 -138 -141 -180c-73.333 -32.667 -155 -49 -245 -49zM500 522
c0 34 -28.333 59.001 -85 75.001c-40 11.333 -81.667 17 -125 17c-17.333 0 -35.333 -2.66699 -54 -8c-15.333 -86.667 -22 -179.334 -20 -278.001c48.667 2 94.667 13 138 33c46.667 21.333 83.667 50.333 111 87c23.333 31.333 35 56 35 74z" />
    <glyph glyph-name="Q" unicode="Q" horiz-adv-x="692" 
d="M557 73c12.667 -2.66699 23.333 -4.00098 32 -4.00098c19.333 0 43 11 71 33s44 33 48 33c20.667 0 31 -13.667 31 -41c0 -30 -18 -55.333 -54 -76c-30.667 -18 -62.334 -27 -95.001 -27c-12 0 -30 3.16699 -54 9.5s-42 9.5 -54 9.5c-12.667 0 -31.667 -3.5 -57 -10.5
s-44.333 -10.5 -57 -10.5c-26.667 0 -56.667 6.66699 -90 20c-7.33301 2.66699 -35 16 -83 40h-1c-61.333 39.333 -102 71 -122 95c-30 36.667 -45 86.334 -45 149.001c0 85.333 22.333 173 67 263c53.333 107.333 118.333 161 195 161c94.667 0 179.334 -37 254.001 -111
s112 -158 112 -252c0 -59.333 -7.33301 -109.333 -22 -150c-14 -37.333 -39.333 -81 -76 -131zM556.999 372.999c0 68.667 -14.334 125.334 -43.001 170.001c-33.333 52.667 -82.666 79 -147.999 79c-67.333 0 -121.666 -43.667 -162.999 -131
c-34 -71.333 -51 -145 -51 -221c0 -94 34 -147.333 102 -160c29.333 22 61.666 33 96.999 33c15.333 0 57.333 -9.66699 126 -29c25.333 32 45.333 73 60 123c13.333 45.333 20 90.666 20 135.999z" />
    <glyph glyph-name="R" unicode="R" horiz-adv-x="629" 
d="M414 284c53.333 -131.333 115.669 -197.003 187.002 -197.003c7.33301 0 14.666 0.666992 21.999 2c13.333 -6 20 -14 20 -24c0 -15.333 -16.667 -28 -50 -38c-24.667 -7.33301 -47.334 -11 -68.001 -11c-45.333 0 -86.333 19.333 -123 58c-19.333 20 -44 56.333 -74 109
c-22.667 39.333 -39 59 -49 59c-8.66699 0 -34 -3 -76 -9c-8.66699 -34.667 -12 -84.667 -10 -150l2 -75c0 -5.33301 -6.66699 -9.66602 -20 -12.999c-10 -2.66699 -19 -4 -27 -4c-22 0 -37.667 1.66699 -47 5c-15.333 5.33301 -23 17 -23 35
c0 255.333 7.33301 448.666 22 579.999l-16 1c-14 0.666992 -33.667 -2.66602 -59 -9.99902c-27.333 -8 -47.333 -12 -60 -12c-6 0 -11.167 4.16699 -15.5 12.5s-6.5 15.833 -6.5 22.5c0 42.667 25.333 69.334 76 80.001c18.667 4 61.334 6 128.001 6
c107.333 0 199.666 -14.333 276.999 -43c112 -41.333 168 -106.666 168 -195.999c0 -69.333 -59.333 -132 -178 -188zM472.003 509.997c0 69.333 -73.999 103.999 -221.999 103.999c-16.667 0 -25.334 -8.33301 -26.001 -25c-2.66699 -61.333 -9 -153.666 -19 -276.999
l16 -1c51.333 -3.33301 105.333 16 162 58c59.333 43.333 89 90.333 89 141z" />
    <glyph glyph-name="S" unicode="S" horiz-adv-x="671" 
d="M53 197c27.333 0 39.667 -22.333 37 -67c10 -16 32.667 -29 68 -39c26 -7.33301 52.667 -11 80 -11c138 0 239.333 26.667 304 80l2 14c0 10.667 -27.667 22 -83 34l-106 22c-92.667 20 -160.334 43 -203.001 69c-67.333 41.333 -101 100.333 -101 177
c0 62 42.667 122.667 128 182c78.667 54.667 150.334 82 215.001 82c42.667 0 92.167 -30.333 148.5 -91s84.5 -112.667 84.5 -156c0 -13.333 -4.33301 -25.333 -13 -36s-19.334 -16 -32.001 -16c-21.333 0 -42.666 17.333 -63.999 52l-42 84
c-22.667 42.667 -40.667 64 -54 64c-48.667 0 -105.667 -26.667 -171 -80c-67.333 -55.333 -101 -106.666 -101 -153.999c0 -23.333 42.667 -44 128 -62c135.333 -28.667 214.333 -46.667 237 -54c85.333 -28.667 128 -68.667 128 -120c0 -58 -43 -104.667 -129 -140
c-68 -28 -135.333 -42 -202 -42c-64 0 -124.667 10 -182 30c-78 27.333 -117 66.666 -117 117.999c0 40 13.333 60 40 60z" />
    <glyph glyph-name="T" unicode="T" horiz-adv-x="607" 
d="M395 591c-10.667 -26.667 -20.334 -119.002 -29.001 -277.002c-6.66699 -124 -10 -225.333 -10 -304v-1c-10 -10.667 -21.667 -16 -35 -16c-31.333 0 -50.333 2 -57 6c-10 6 -15 23 -15 51c0 224 5.66699 401 17 531c-6.66699 0.666992 -60.667 1 -162 1
c-47.333 0 -77.333 1 -90 3c-42.667 6.66699 -64 23 -64 49c0 8.66699 4 16.667 12 24c40.667 2.66699 118.334 12.334 233.001 29.001c100.667 14.667 178.667 22 234 22c19.333 0 34.333 -0.333008 45 -1c62.667 -4 97 -7.66699 103 -11
c8.66699 -5.33301 22.667 -31.666 42 -78.999l-9 -12c-61.333 -4 -133 -9 -215 -15z" />
    <glyph glyph-name="U" unicode="U" horiz-adv-x="669" 
d="M473 190c-25.333 -60.667 -50.999 -105.665 -76.999 -134.998c-37.333 -42 -82.333 -63 -135 -63c-68.667 0 -122 31.667 -160 95l-10 43c-14 60 -21 120.333 -21 181c0 75.333 4.66699 149 14 221c14 108 35.333 165.333 64 172c14 3.33301 26.333 5 37 5
s20.667 -2.33301 30 -7c12 -6 18 -13.667 18 -23c0 -42 -7.66699 -108.833 -23 -200.5s-23 -160.834 -23 -207.501c0 -42 4.66699 -84.667 14 -128c13.333 -62 32 -93 56 -93c30 0 65.333 39 106 117c56 106.667 90.333 206.667 103 300l18 145
c3.33301 26 10.666 43.667 21.999 53s30.333 14 57 14c27.333 0 41 -10 41 -30c0 -31.333 -5 -78.333 -15 -141s-15 -109.667 -15 -141c0 -96.667 5.33301 -170.334 16 -221.001c2 -8.66699 5.66699 -18 11 -28c8 -14 14.333 -20 19 -18c33.333 12.667 54 19 62 19
c24 0 36 -8 36 -24s-13.667 -32.333 -41 -49c-24.667 -14.667 -46 -22 -64 -22c-38 0 -65.667 9.33301 -83 28c-10.667 11.333 -20.667 33.333 -30 66c-11.333 37.333 -20.333 61.333 -27 72z" />
    <glyph glyph-name="V" unicode="V" horiz-adv-x="526" 
d="M252 110c8.66699 6 30.333 57.668 65 155.001c44 123.333 77 211 99 263c39.333 92.667 69.333 139 90 139c22.667 0 34 -11.333 34 -34c0 -5.33301 -32.333 -98 -97 -278l-103 -287c-10.667 -30 -23.334 -50.333 -38.001 -61s-37.667 -16 -69 -16
c-38 0 -77.667 49 -119 147c-32.667 77.333 -63 176 -91 296c-24.667 106 -37 181 -37 225c0 36.667 21.667 55 65 55c16.667 0 29.667 -10.667 39 -32c3.33301 -8 8.33301 -25.667 15 -53l64 -262c26.667 -100.667 54.334 -186.334 83.001 -257.001z" />
    <glyph glyph-name="W" unicode="W" horiz-adv-x="810" 
d="M218 53c40 16 75.667 90.002 107 222.002c26 109.333 39 195.666 39 258.999c0 16.667 14.667 25 44 25c50.667 0 76 -15 76 -45c0 -20 -1.83301 -49.5 -5.5 -88.5s-5.5 -68.5 -5.5 -88.5c0 -93.333 15 -185 45 -275c43.333 30 80.333 113.333 111 250
c24.667 110 37 204.667 37 284c0 22.667 -11.667 55 -35 97c0 17.333 12 26 36 26c28.667 0 50 -22.667 64 -68c10 -32 15 -66.333 15 -103c0 -94 -13 -198 -39 -312c-36.667 -161.333 -86.667 -242 -150 -242c-48.667 0 -83.667 8 -105 24
c-15.333 11.333 -29 32.333 -41 63c-16 41.333 -28.667 69 -38 83l-42 -108c-21.333 -41.333 -50 -62 -86 -62c-74 0 -124 30 -150 90c-16.667 38.667 -25 102.334 -25 191.001c0 266 28.667 399 86 399c27.333 0 50 -8.66699 68 -26
c-19.333 -48.667 -31.333 -107.334 -36 -176.001c-2 -28.667 -3 -89.334 -3 -182.001c0 -122.667 11 -201.667 33 -237z" />
    <glyph glyph-name="X" unicode="X" horiz-adv-x="555" 
d="M153 290c-14 28 -37.667 91.665 -71 190.998c-34.667 104.667 -52 167.334 -52 188.001c0 10.667 13 20.667 39 30c22 8 39.667 12 53 12c28 0 41.333 -26.667 40 -80c2 -8 5 -16.667 9 -26c4.66699 -28.667 14.334 -65.334 29.001 -110.001s28.667 -78.667 42 -102
c10 10.667 57.333 74 142 190c70 96 114.667 144 134 144c10.667 0 29.334 -3.33301 56.001 -10c4 -5.33301 6 -11.666 6 -18.999c0 -18 -28.333 -55.333 -85 -112v-1l-210 -290c0 -31.333 17 -70.666 51 -117.999c36.667 -50.667 70.667 -76 102 -76
c42 0 67.667 16.333 77 49l14 10c26 -8 39 -19.333 39 -34c0 -26 -19 -47.667 -57 -65c-30.667 -14 -61.334 -21 -92.001 -21c-50.667 0 -94.334 13.667 -131.001 41c-30 22 -60 57.333 -90 106l-85 -121c-48 -68.667 -76.333 -103 -85 -103c-8 0 -16.833 6 -26.5 18
s-14.5 22 -14.5 30c0 25.333 24.667 71.333 74 138c56 76 86.667 123 92 141z" />
    <glyph glyph-name="Y" unicode="Y" horiz-adv-x="659" 
d="M448 -252l-2.00098 109.997c-0.666992 29.333 1.33301 76.333 6 141c3.33301 48 5 95 5 141v26c-10.667 -12 -26 -35.333 -46 -70c-17.333 -29.333 -33.333 -50.333 -48 -63c-22 -18.667 -49.333 -28 -82 -28c-140.667 0 -211 99 -211 297c0 115.333 10 226 30 332
c5.33301 28.667 12 47.334 20 56.001c10.667 11.333 29.334 17 56.001 17c39.333 0 59 -7.33301 59 -22c0 -17.333 -5.33301 -45.666 -16 -84.999c-12.667 -47.333 -20 -76.333 -22 -87c-8 -46 -12 -127.667 -12 -245c0 -134 23.667 -201 71 -201c60 0 115 81.333 165 244
c38 123.333 60 232 66 326c1.33301 21.333 12.333 32 33 32h53c15.333 -6.66699 23 -17 23 -31c0 -20.667 -2.66699 -49.667 -8 -87c-5.33301 -41.333 -8.33301 -70.666 -9 -87.999l-14 -348c-5.33301 -132.667 -8 -248.667 -8 -348c0 -28 -14.667 -42 -44 -42
c-22 0 -43.667 7.66699 -65 23z" />
    <glyph glyph-name="Z" unicode="Z" horiz-adv-x="559" 
d="M404 587l-245 -10.0039c-42.667 -2 -74.5 3.5 -95.5 16.5s-30.5 31.833 -28.5 56.5l1 13c36 2.66699 107.667 11.334 215 26.001c89.333 12 160 18 212 18c23.333 0 43.833 -9.66699 61.5 -29s26.5 -40.666 26.5 -63.999c0 -15.333 -65.333 -93.666 -196 -234.999
c-141.333 -153.333 -219 -239.666 -233 -258.999c35.333 0 88.333 2.33301 159 7s123.667 7 159 7c62.667 0 94 -19 94 -57c0 -10 -4.66699 -19 -14 -27l-33 3c-7.33301 0.666992 -18 1 -32 1c-46 0 -114.167 -10.333 -204.5 -31s-158.5 -31 -204.5 -31
c-55.333 0 -83 25 -83 75c0 36.667 62.667 125 188 265c110 123.333 194.333 208.333 253 255z" />
    <glyph glyph-name="bracketleft" unicode="[" horiz-adv-x="305" 
d="M132 -89c-11.333 -1.33301 -22.334 -2.00098 -33.001 -2.00098c-35.333 0 -53.666 7 -54.999 21c4.66699 10 7 55.333 7 136c0 80 -1 154.667 -3 224l-4 138c-0.666992 34 -1 66 -1 96c0 150 8.66699 229.333 26 238c6.66699 0 17 0.333008 31 1s24.333 1 31 1
c97.333 0 146 -18.667 146 -56c0 -15.333 -13 -25.666 -39 -30.999c-35.333 -7.33301 -54.333 -12 -57 -14c-8 -76 -12 -188.667 -12 -338l1 -316c0 -7.33301 13.5 -16.333 40.5 -27s40.5 -22 40.5 -34c0 -26 -39 -39 -117 -39z" />
    <glyph glyph-name="backslash" unicode="\" horiz-adv-x="278" 
d="M265 71l-17.999 45.999c-1.33301 3.33301 -4.66602 16.333 -9.99902 39c-22.667 96 -55.334 221 -98.001 375l-34 123c-9.33301 34.667 -17 52 -23 52c-45.333 -28 -68 -58.333 -68 -91c0 -8 7 -24.333 21 -49c15.333 -27.333 24 -44.666 26 -51.999l108 -396
c13.333 -81.333 27.666 -122 42.999 -122c17.333 0 31 8.66699 41 26c8 14 12 30.333 12 49z" />
    <glyph glyph-name="bracketright" unicode="]" horiz-adv-x="305" 
d="M189 761c11.333 1.33301 22.333 2.00098 33 2.00098c35.333 0 53.666 -7.33301 54.999 -22c-4.66699 -10 -7 -55.333 -7 -136c0 -26 1.33301 -100.333 4 -223l3 -138c4.66699 -213.333 -3.66602 -325 -24.999 -335h-23l-40 -1c-96.667 0 -145 18.333 -145 55
c0 15.333 13 25.666 39 30.999c33.333 7.33301 52.333 12 57 14c8 76 12 188.667 12 338l-1 316c0 8 -13.5 17.333 -40.5 28s-40.5 22 -40.5 34c0 25.333 39 38 117 38z" />
    <glyph glyph-name="asciicircum" unicode="^" horiz-adv-x="469" 
d="M484 264h-79l-170 342l-171 -342h-79l213 424h74z" />
    <glyph glyph-name="underscore" unicode="_" horiz-adv-x="556" 
d="M556 -125h-557v51h557v-51z" />
    <glyph glyph-name="grave" unicode="`" 
d="M212 593h-69l-130 141h109z" />
    <glyph glyph-name="a" unicode="a" horiz-adv-x="450" 
d="M357 350l11 3.00098c24.667 0 39 -5.66699 43 -17c-17.333 -47.333 -26 -92.333 -26 -135v-83c0 -30 9.66699 -45 29 -45c12 0 29 9.5 51 28.5s35 28.5 39 28.5c12 0 18 -6 18 -18c0 -24 -10.5 -45.833 -31.5 -65.5s-43.5 -29.5 -67.5 -29.5
c-52.667 0 -89.667 21 -111 63l-52 -61c-20 -18 -44 -27 -72 -27c-57.333 0 -98.333 13.333 -123 40s-37 69 -37 127c0 55.333 12 110.666 36 165.999c30 69.333 69 104 117 104c86 0 144.667 -26.333 176 -79zM142 122.001c0 -49.333 9.33301 -73.999 28 -73.999
c11.333 0 22 6.66699 32 20c34.667 47.333 55.667 81.333 63 102c4.66699 13.333 12 52.666 22 117.999c4 26 6 38 6 36c0 10 -4.66699 18.333 -14 25s-19.333 10 -30 10c-36.667 0 -65 -31.667 -85 -95c-14.667 -46.667 -22 -94 -22 -142z" />
    <glyph glyph-name="b" unicode="b" horiz-adv-x="442" 
d="M168 396c8.66699 7.33301 21.833 17.668 39.5 31.001s33.167 20 46.5 20c56 0 98.333 -31.333 127 -94c22 -48 33 -103 33 -165c0 -56 -10.333 -101.333 -31 -136c-25.333 -43.333 -64 -65 -116 -65c-45.333 0 -87 17.667 -125 53c-14.667 -5.33301 -29 -8 -43 -8
c-22.667 0 -36.667 12 -42 36c-0.666992 3.33301 -1 24.666 -1 63.999c0 75.333 3.66699 168.333 11 279l17 279c1.33301 34.667 4 56 8 64c8 16 26.333 24 55 24c30 0 45 -9.33301 45 -28c0 -41.333 -3.66699 -100.333 -11 -177c-8 -80.667 -12.333 -139.667 -13 -177z
M246.999 63.002c38 0 56.999 46.332 56.999 138.999c0 112.667 -12.667 169 -38 169c-29.333 0 -55.666 -34.333 -78.999 -103c-18.667 -55.333 -28 -100.333 -28 -135c0 -21.333 9.66699 -38.666 29 -51.999c17.333 -12 37 -18 59 -18z" />
    <glyph glyph-name="c" unicode="c" horiz-adv-x="392" 
d="M220 351c-5.33301 3.33301 -10.6689 5.00098 -16.002 5.00098c-17.333 0 -32.666 -22.667 -45.999 -68c-10.667 -36.667 -16 -68.334 -16 -95.001c0 -41.333 1.66699 -70.333 5 -87c7.33301 -36.667 24 -55 50 -55c24.667 0 57 8 97 24c30.667 12 62 26.667 94 44
c28.667 16 41 24 37 24c11.333 0 17 -8 17 -24c0 -26.667 -28 -55.667 -84 -87c-51.333 -28.667 -92.666 -43 -123.999 -43c-60.667 0 -109.667 16.333 -147 49c-39.333 34.667 -59 81.667 -59 141c0 54 8.33301 105.667 25 155c23.333 69.333 57 104 101 104
c52 0 96.5 -17.333 133.5 -52s55.5 -78 55.5 -130c0 -59.333 -16.667 -89 -50 -89c-52.667 0 -79 40.333 -79 121c0 20.667 2 41.667 6 63z" />
    <glyph glyph-name="d" unicode="d" horiz-adv-x="451" 
d="M282 381c4.66699 33.333 7.66602 69.334 8.99902 108.001c0.666992 28 0.333984 64.667 -0.999023 110c-1.33301 56.667 -2 93.667 -2 111c0 23.333 15 35 45 35c57.333 0 86 -9.66699 86 -29c0 -12.667 -4.33301 -33.167 -13 -61.5s-13.334 -49.166 -14.001 -62.499
c-5.33301 -112.667 -8 -231.334 -8 -356.001c0 -38.667 0.666992 -63.334 2 -74.001c4.66699 -36 16.334 -54 35.001 -54c4 0 18.667 9.66699 44 29l42 33c18.667 -3.33301 28 -11 28 -23c0 -22 -15 -45.833 -45 -71.5s-56.333 -38.5 -79 -38.5
c-17.333 0 -34.666 5.33301 -51.999 16l-45 34c-43.333 -64.667 -86 -97 -128 -97c-85.333 0 -137.333 39 -156 117l-1 1l-1 29c-2 64 8 125.333 30 184c29.333 77.333 69.666 116 120.999 116c44.667 0 79 -18.667 103 -56zM134.999 159.001
c0 -11.333 0.333984 -31.999 1.00098 -61.999c1.33301 -33.333 10.666 -50 27.999 -50c9.33301 0 21.333 9 36 27c54.667 66 82 138.333 82 217c0 18 -5.66699 33 -17 45s-26 18 -44 18c-22.667 0 -43.667 -27.333 -63 -82c-16 -44.667 -23.667 -82.334 -23 -113.001z" />
    <glyph glyph-name="e" unicode="e" horiz-adv-x="386" 
d="M134 154l-3 -21.9971c0 -24.667 3 -42.334 9 -53.001c8 -14.667 23.333 -22 46 -22c52.667 0 112.667 29 180 87c11.333 10 23.333 20 36 30c17.333 0 26 -9.66699 26 -29c0 -34.667 -29.667 -70 -89 -106c-54.667 -33.333 -100.667 -50 -138 -50
c-22.667 0 -54.667 11.333 -96 34c-31.333 17.333 -52.666 40.666 -63.999 69.999c-8.66699 22.667 -13 54.667 -13 96c0 53.333 6.66699 103.666 20 150.999c19.333 68.667 49.333 103 90 103c43.333 0 87.666 -13.667 132.999 -41c50.667 -30.667 76 -66.667 76 -108
c0 -44 -25.667 -80 -77 -108c-44.667 -24 -90 -34.667 -136 -32zM255 323.003c0 30 -13 45 -39 45c-23.333 0 -43 -21 -59 -63c-12 -32 -18 -62.333 -18 -91c30.667 0 57.667 10.5 81 31.5s35 46.833 35 77.5z" />
    <glyph glyph-name="f" unicode="f" horiz-adv-x="272" 
d="M229 815c38.667 0 74.5059 -16.168 107.506 -48.501s49.5 -67.833 49.5 -106.5c0 -6 -4.33301 -11.833 -13 -17.5s-16.334 -8.5 -23.001 -8.5c-10.667 0 -20.667 2.66699 -30 8c-8.66699 26 -13.334 39.333 -14.001 40c-5.33301 12.667 -13.333 24.334 -24 35.001
c-38.667 -4 -66.334 -50.333 -83.001 -139c-10.667 -57.333 -15.334 -117.333 -14.001 -180c24 -2 48 -4.33301 72 -7c29.333 -6.66699 44 -22 44 -46l-13 -21c-12.667 -6 -31 -9.66699 -55 -11c-27.333 -1.33301 -46 -3.33301 -56 -6c-6.66699 -32.667 -10 -71 -10 -115
c0 -18.667 0.833008 -46.5 2.5 -83.5s2.5 -64.833 2.5 -83.5c0 -19.333 -12 -29 -36 -29c-32.667 0 -52.334 1.33301 -59.001 4c-16 6 -24 22 -24 48c0 78 3.66699 163 11 255l-17 -1c-18.667 -1.33301 -35.667 1.66699 -51 9c-18.667 8.66699 -28 21.667 -28 39
c0 19.333 21.667 29 65 29c22 0 33.333 6.33301 34 19c1.33301 28 4.66602 78 9.99902 150c15.333 178 66 267 152 267z" />
    <glyph glyph-name="g" unicode="g" horiz-adv-x="464" 
d="M311 375v4c0 20 13 30 39 30c39.333 0 59 -18.667 59 -56c0 -27.333 -1.16699 -67.833 -3.5 -121.5s-3.5 -94.167 -3.5 -121.5c0 -14.667 0.5 -37 1.5 -67s1.5 -52.333 1.5 -67c0 -166 -38 -249 -114 -249c-26.667 0 -68.667 10 -126 30c-63.333 22 -95 42.667 -95 62
c0 14.667 8.33301 22 25 22c14.667 0 39.334 -8 74.001 -24s60.667 -24 78 -24c21.333 0 36.666 37 45.999 111c6 48.667 8.33301 97 7 145l-1 35c-6.66699 -24 -22.5 -44.833 -47.5 -62.5s-50.167 -26.5 -75.5 -26.5c-48.667 0 -86 16 -112 48c-24 29.333 -36 69 -36 119
c0 68 11.333 126 34 174c29.333 62 73.333 93 132 93c21.333 0 42 -6.33301 62 -19zM168 61c19.333 0 45.333 27.666 78 82.999c30.667 52.667 46 90.334 46 113.001c0 17.333 -6 35.333 -18 54c-13.333 21.333 -28 32 -44 32c-31.333 0 -55 -26.667 -71 -80
c-10.667 -36 -16 -75.667 -16 -119c0 -55.333 8.33301 -83 25 -83z" />
    <glyph glyph-name="h" unicode="h" horiz-adv-x="488" 
d="M164 321c30 30 46.999 46.333 50.999 49c16.667 11.333 39.334 17 68.001 17c54.667 0 90.334 -29.333 107.001 -88c7.33301 -26 11 -76.333 11 -151c0 -42 9.66699 -63 29 -63c10.667 0 26.667 13.5 48 40.5s37 40.5 47 40.5c17.333 0 26 -8.66699 26 -26
c0 -18 -14.5 -40.667 -43.5 -68s-52.833 -41 -71.5 -41c-56.667 0 -95 21.667 -115 65c-13.333 29.333 -20 76 -20 140c0 25.333 -0.333008 39.666 -1 42.999c-3.33301 16.667 -12.333 25 -27 25c-30.667 0 -53 -26.667 -67 -80l-36 -148c-13.333 -53.333 -29 -80 -47 -80
c-30 0 -49.333 6.33301 -58 19c-6 8.66699 -9 29.334 -9 62.001c0 74 2.66699 184.667 8 332s8 258 8 332c0 14 6 22.667 18 26c4.66699 1.33301 16.667 2 36 2s32.666 -1.33301 39.999 -4c13.333 -4.66699 20 -15 20 -31c0 -44 -3.66699 -109.833 -11 -197.5
s-11 -153.5 -11 -197.5v-18z" />
    <glyph glyph-name="i" unicode="i" horiz-adv-x="237" 
d="M160 577c15.333 0 27.999 -11.334 37.999 -34.001c8.66699 -18.667 13 -36.667 13 -54c0 -18 -10 -33 -30 -45c-17.333 -10.667 -35.333 -16 -54 -16c-18 0 -33 6.83301 -45 20.5s-18 29.5 -18 47.5c0 18.667 11.333 36.834 34 54.501s43.334 26.5 62.001 26.5z
M54.999 167.999c0.666992 8 2.33301 26.6689 5 56.002c0.666992 13.333 1.83398 33.166 3.50098 59.499s7.66699 45.333 18 57s28.166 17.5 53.499 17.5c23.333 0 37.333 -5.66699 42 -17c-11.333 -52.667 -17 -125.334 -17 -218.001c0 -47.333 8.66699 -71 26 -71
c6 0 25 8.16699 57 24.5s53.333 24.5 64 24.5s16 -6.33301 16 -19c0 -10.667 -9.66699 -24.667 -29 -42c-22.667 -20.667 -39.667 -33.667 -51 -39c-16.667 -8 -38 -12 -64 -12c-50 0 -84.667 18.667 -104 56c-13.333 26.667 -20 67.667 -20 123z" />
    <glyph glyph-name="j" unicode="j" horiz-adv-x="224" 
d="M46 561c0 24.667 9.00098 45.333 27.001 62s39.333 25 64 25c38.667 0 58 -27.667 58 -83c0 -16.667 -7.66699 -32.167 -23 -46.5s-31.333 -21.5 -48 -21.5s-33.834 6.66699 -51.501 20s-26.5 28 -26.5 44zM-97.999 -156.001c0 8.66699 5 13.001 15 13.001
c9.33301 0 25.666 -5.66699 48.999 -17s41.333 -17 54 -17c26 0 39 18.667 39 56v21v18c-0.666992 4.66699 -1 5 -1 1c0 28 0.333008 72.333 1 133c0.666992 58.667 0.666992 103 0 133c0 -16.667 1.33301 22 4 116c2 60 0.666992 97.667 -4 113c6 12.667 26 19 60 19
c15.333 0 29.833 -4.16699 43.5 -12.5s20.5 -19.833 20.5 -34.5c0 -16 -1.66699 -40 -5 -72s-5 -56.333 -5 -73s-1.16699 -41.834 -3.5 -75.501s-3.5 -59.167 -3.5 -76.5c0 -14 -0.666992 -35.167 -2 -63.5s-2 -49.5 -2 -63.5c0 -9.33301 0.333008 -23.5 1 -42.5
s1 -33.167 1 -42.5c0 -44 -8 -75.667 -24 -95c-17.333 -22 -47.666 -33 -90.999 -33c-32 0 -63 7.66699 -93 23c-36 18.667 -54 42.667 -54 72z" />
    <glyph glyph-name="k" unicode="k" horiz-adv-x="455" 
d="M56 18l0.00195312 17.0029c0 72.667 3 181.334 9 326.001s9 253.334 9 326.001c0 25.333 7.66699 41.333 23 48c8.66699 4 28.667 6 60 6s47 -11.333 47 -34c0 -4 -4.66699 -17.333 -14 -40c-6.66699 -16.667 -12 -69.334 -16 -158.001l-7 -166
c11.333 19.333 29 42.666 53 69.999c12 8 30 12 54 12c35.333 0 66.333 -13.5 93 -40.5s40 -58.167 40 -93.5c0 -60.667 -34.333 -107.334 -103 -140.001c5.33301 -50.667 23.333 -76 54 -76c27.333 0 53.666 10.333 78.999 31c30.667 25.333 52 40 64 44l17 -11l1 -7
c0 -25.333 -22 -52 -66 -80c-41.333 -26 -76 -39 -104 -39c-38 0 -68.5 8.16699 -91.5 24.5s-43.167 42.166 -60.5 77.499l-35 -2v-94c0 -8.66699 -4.5 -15.834 -13.5 -21.501s-18.167 -8.5 -27.5 -8.5c-18.667 0 -40.334 9.66699 -65.001 29zM302.002 312.003
c0 27.333 -5.66797 40.999 -17.001 40.999c-6.66699 0 -22.334 -12.333 -47.001 -37v-1c-1.33301 -1.33301 -8.33301 -12 -21 -32c-17.333 -27.333 -28.666 -50.666 -33.999 -69.999c10.667 -13.333 24.334 -20 41.001 -20c26 0 46 14 60 42c12 23.333 18 49 18 77z" />
    <glyph glyph-name="l" unicode="l" horiz-adv-x="232" 
d="M190 46c13.333 0.666992 25.667 2.66699 37 6v1c26 16.667 54 31 84 43l18 -8c2 -4 3 -8.66699 3 -14c0 -21.333 -16 -42 -48 -62c-28.667 -18 -54.667 -27 -78 -27c-70 0 -115 31.667 -135 95c-10 31.333 -15 91.666 -15 180.999c0 46.667 6 116.5 18 209.5
s18 162.833 18 209.5c0 4.66699 -1.5 11.5 -4.5 20.5s-4.5 15.833 -4.5 20.5c0 10.667 7.66699 19 23 25c12 4.66699 24.333 7 37 7c48 0 72 -9.33301 72 -28c0 -14.667 -3 -33.667 -9 -57c-6.66699 -27.333 -10.667 -46 -12 -56c-20 -169.333 -30 -307.666 -30 -414.999
c0 -82 8.66699 -132.333 26 -151z" />
    <glyph glyph-name="m" unicode="m" horiz-adv-x="657" 
d="M162 304l44.999 63.9961v1c8 5.33301 20 8 36 8c34.667 0 59.667 -4.33301 75 -13c18 -10.667 31.667 -31.667 41 -63c20 40 36.333 66.667 49 80c22 23.333 50 35 84 35c70.667 0 106 -50.667 106 -152c0 -8 -0.5 -20 -1.5 -36s-1.5 -28 -1.5 -36v-55
c0 -22 1 -37.667 3 -47c4 -19.333 13.667 -29 29 -29c10.667 0 27 4.83301 49 14.5s35.667 14.5 41 14.5c12 0 18 -7.33301 18 -22c0 -17.333 -19 -34.666 -57 -51.999c-32.667 -14.667 -59 -22 -79 -22c-51.333 0 -83.666 22.667 -96.999 68c-6 20 -9 63.333 -9 130
c0 15.333 -0.833008 37.833 -2.5 67.5s-2.5 52.167 -2.5 67.5c-4.66699 3.33301 -9 5 -13 5c-20.667 0 -39.334 -25.667 -56.001 -77c-8.66699 -26.667 -20.334 -75.667 -35.001 -147c-11.333 -55.333 -19.666 -85.333 -24.999 -90
c-1.33301 -1.33301 -8.66602 -2 -21.999 -2c-49.333 0 -74 20.333 -74 61c0 10.667 1.33301 27 4 49s4 38.333 4 49c0 13.333 -0.5 33.5 -1.5 60.5s-1.5 47.167 -1.5 60.5h-7c-26.667 0 -48.334 -25.333 -65.001 -76c-5.33301 -16 -17.333 -65 -36 -147
c-12 -52.667 -23.667 -79 -35 -79c-46 0 -69 24.333 -69 73c0 42.667 3 95.334 9 158.001c8.66699 88 13.334 140.333 14.001 157c1.33301 20.667 6.5 34.834 15.5 42.501s24.167 11.5 45.5 11.5c20 0 30 -12.667 30 -38c0 -9.33301 -2.66699 -40.666 -8 -93.999z" />
    <glyph glyph-name="n" unicode="n" horiz-adv-x="469" 
d="M166 300c23.333 38 36.333 58.3379 39 61.0049c19.333 24.667 39 37 59 37c40.667 0 75.667 -12.667 105 -38c30.667 -27.333 46 -61 46 -101c0 -12.667 -1.66699 -31.834 -5 -57.501s-5 -44.834 -5 -57.501c0 -36 10.333 -54 31 -54c8 0 22.167 5.5 42.5 16.5
s34.166 16.5 41.499 16.5c13.333 0 20 -8.66699 20 -26c0 -19.333 -15.333 -37 -46 -53c-27.333 -14.667 -51.666 -22 -72.999 -22c-42.667 0 -73.167 10.333 -91.5 31s-27.5 52.667 -27.5 96c0 13.333 1 33.666 3 60.999s3 47.666 3 60.999c0 18 -5.33301 33 -16 45
c-32 -2 -58 -30.667 -78 -86l-39 -153c-13.333 -54 -28 -81 -44 -81c-50 0 -75 24 -75 72c0 20 1 45 3 75l5 75c0.666992 10 1 50.333 1 121c6 59.333 23.333 89 52 89c38.667 0 58 -10.333 58 -31c0 -8 -1.83301 -20.333 -5.5 -37s-5.16699 -29.334 -4.5 -38.001z" />
    <glyph glyph-name="o" unicode="o" horiz-adv-x="436" 
d="M369 235l4.00195 0.000976562c18.667 0 36.5 21.167 53.5 63.5s31.5 63.5 43.5 63.5c15.333 0 23 -12 23 -36c0 -36.667 -12.333 -73 -37 -109c-26 -39.333 -56.333 -61.333 -91 -66c-14 -56.667 -28 -94.667 -42 -114c-22.667 -31.333 -58.667 -47 -108 -47
c-60.667 0 -107.667 21.667 -141 65c-30.667 39.333 -46 90.333 -46 153c0 24.667 2 43.667 6 57l8 26c11.333 36.667 27.333 67.667 48 93c26.667 32.667 56 49 88 49c41.333 0 82.666 -22.333 123.999 -67s63.666 -88.334 66.999 -131.001zM133.002 168.001
c0 -28.667 4.33203 -53.668 12.999 -75.001c12 -30 30 -45 54 -45c20.667 0 40.334 18.333 59.001 55c16 32 24 59 24 81c0 4 -9 24.333 -27 61s-27 67.334 -27 92.001c-7.33301 3.33301 -14 5 -20 5c-22.667 0 -41.667 -24 -57 -72c-12.667 -39.333 -19 -73.333 -19 -102z
" />
    <glyph glyph-name="p" unicode="p" horiz-adv-x="453" 
d="M177 361l50 41.999c14 11.333 34.667 17 62 17c46 0 80.667 -15.333 104 -46c21.333 -27.333 32 -64.666 32 -111.999c0 -62.667 -12.667 -112.334 -38 -149.001c-29.333 -43.333 -74 -65 -134 -65c-23.333 0 -51 6.33301 -83 19
c-7.33301 -29.333 -11 -66.666 -11 -111.999c0 -16 0.666992 -40 2 -72s2 -56 2 -72v-54c-22.667 -12 -45.334 -18 -68.001 -18c-24 0 -36 7 -36 21l-7 483c-2 44 1.66699 95.667 11 155c12.667 78.667 32.667 118 60 118c22.667 0 38.334 -3 47.001 -9
c10.667 -8 16 -22.667 16 -44c0 -40.667 -3 -74.667 -9 -102zM244 106.999c23.333 0 41.333 17.334 54 52.001c9.33301 26 14 53 14 81v40c0 47.333 -6.66699 71 -20 71c-18.667 0 -42.667 -27 -72 -81c-27.333 -50.667 -41 -86.334 -41 -107.001
c0 -14 7.16699 -26.833 21.5 -38.5s28.833 -17.5 43.5 -17.5z" />
    <glyph glyph-name="q" unicode="q" horiz-adv-x="444" 
d="M313 360c5.33301 0.666992 13.6699 1.00488 25.0029 1.00488c33.333 0 50 -13.667 50 -41c0 -48.667 -4.33301 -121.334 -13 -218.001s-13 -169.334 -13 -218.001c0 -56.667 0 -82.334 0 -77.001c1.33301 -40 7.66602 -62.667 18.999 -68
c-21.333 -14.667 -38.333 -22 -51 -22c-34 0 -55.333 25 -64 75c-2.66699 15.333 -4 50.666 -4 105.999c0 21.333 4.33301 80.333 13 177l-42 -55c-18.667 -20 -38.334 -30 -59.001 -30c-97.333 0 -146 60.667 -146 182c0 53.333 13.667 108 41 164
c33.333 68 74.333 102 123 102c20.667 0 43.667 -8.33301 69 -25s42.666 -34.334 51.999 -53.001zM155.004 48.0049c19.333 0 44.668 33.333 76.001 100c29.333 62 44 104 44 126c0 12.667 -3.33301 27.667 -10 45c-8.66699 22 -18.334 33 -29.001 33
c-36 0 -64.667 -31.333 -86 -94c-15.333 -45.333 -23 -92 -23 -140c0 -46.667 9.33301 -70 28 -70z" />
    <glyph glyph-name="r" unicode="r" horiz-adv-x="272" 
d="M159 330c18.667 20 29.665 31.3301 32.998 33.9971c14 11.333 28.333 17 43 17c44 0 66 -19.333 66 -58c0 -11.333 -4.16699 -20.666 -12.5 -27.999s-18.166 -11 -29.499 -11s-21 4 -29 12c-50 -78.667 -75 -178 -75 -298c0 -6 -8.66699 -9 -26 -9
c-35.333 0 -57 6.66699 -65 20c-5.33301 8.66699 -8 32.334 -8 71.001c0 13.333 -0.333008 33 -1 59s-1 45.667 -1 59c0 158.667 13.333 238.334 40 239.001l39 1c14.667 0.666992 23.334 -3.33301 26.001 -12v-96z" />
    <glyph glyph-name="s" unicode="s" horiz-adv-x="387" 
d="M59 126c-7.33301 0 -10.999 -1 -10.999 -3c0 -3.33301 18.333 -11.333 55 -24c52 -18.667 85 -28 99 -28c18.667 0 28 6.33301 28 19c0 14.667 -16.333 31.667 -49 51c-46.667 28 -77 48 -91 60c-32.667 28 -49 59.667 -49 95c0 46 19 81 57 105c32 20 72.333 30 121 30
c91.333 0 137 -22.667 137 -68c0 -20.667 -7 -31 -21 -31c-8 0 -19.5 2.16699 -34.5 6.5s-26.5 6.5 -34.5 6.5c-66 0 -99 -19.333 -99 -58c0 -22 16.667 -43.667 50 -65c17.333 -10.667 48 -30.667 92 -60c33.333 -22.667 50 -50 50 -82c0 -24 -13.333 -44.333 -40 -61
c-24 -15.333 -48.667 -23 -74 -23c-34.667 0 -78.334 8.33301 -131.001 25c-62.667 20 -94 41.333 -94 64c0 8 4.5 16.833 13.5 26.5s17.5 14.5 25.5 14.5z" />
    <glyph glyph-name="t" unicode="t" horiz-adv-x="309" 
d="M82 457c2 28 3.66699 56.333 5 85c4.66699 34 20.667 50.333 48 49c8.66699 -0.666992 24 -1.66699 46 -3c18 -3.33301 27 -12.666 27 -27.999c-8.66699 -11.333 -13.667 -25.666 -15 -42.999c0.666992 9.33301 1 -6.66699 1 -48c14 -4.66699 34.333 -7 61 -7
c10 0 20.667 -5.33301 32 -16s17 -21 17 -31l-11 -16c-24 -2.66699 -60 -9 -108 -19c-5.33301 -77.333 -8 -131.333 -8 -162c0 -50.667 0.333008 -79.667 1 -87c4 -44 14.667 -66 32 -66c12 0 33.333 7 64 21c38 17.333 60.667 27 68 29c7.33301 -10.667 11 -19.667 11 -27
c0 -17.333 -21.667 -38 -65 -62c-40 -22 -70.333 -33 -91 -33c-86.667 0 -130 65 -130 195c0 19.333 1.33301 48.166 4 86.499s4 67.166 4 86.499v20c-68.667 8 -103 23.333 -103 46c0 12.667 17.333 20.667 52 24z" />
    <glyph glyph-name="u" unicode="u" horiz-adv-x="462" 
d="M176 54c25.333 22.667 49.6689 60.001 73.002 112.001c21.333 46.667 35 89.667 41 129c5.33301 34 10.666 54.667 15.999 62c9.33301 13.333 28.666 20 57.999 20c30 0 45 -14 45 -42c0 -6.66699 -5.33301 -27 -16 -61c-2.66699 -8.66699 -4 -49.334 -4 -122.001
c0 -15.333 2.66699 -31.333 8 -48c6.66699 -22 16 -33 28 -33c7.33301 0 22.333 9.33301 45 28s38.667 28 48 28c14 0 21 -6.66699 21 -20c0 -20 -17.5 -41.667 -52.5 -65s-63.167 -35 -84.5 -35c-28 0 -50.667 10 -68 30c-8.66699 10.667 -21.667 32.667 -39 66
c-11.333 -30.667 -22 -53.667 -32 -69c-17.333 -26.667 -37 -40 -59 -40c-68.667 0 -112.667 21 -132 63c-11.333 24.667 -17 78.667 -17 162c0 17.333 2.16699 43.333 6.5 78s6.5 60.834 6.5 78.501s2.5 30.667 7.5 39s16.167 12.5 33.5 12.5c12.667 0 26 -1.66699 40 -5
c20 -4.66699 29.333 -11 28 -19c-11.333 -64.667 -17 -125.334 -17 -182.001v-60c0 -48 5.33301 -83.667 16 -107z" />
    <glyph glyph-name="v" unicode="v" horiz-adv-x="327" 
d="M182 136c4.66699 8.66699 23.001 59.332 55.001 151.999c26 76 46.667 114 62 114c27.333 0 41 -17.333 41 -52c0 -34 -19.333 -100 -58 -198c-42 -106.667 -77.333 -160 -106 -160c-9.33301 0 -21.333 2 -36 6c-24.667 6.66699 -43.334 27 -56.001 61
c-65.333 174.667 -98 279.667 -98 315c0 17.333 12 31.333 36 42c20.667 9.33301 40.334 14 59.001 14c10 0 17.333 -3 22 -9l-2 -53c-0.666992 -11.333 10.666 -50.166 33.999 -116.499s39 -104.833 47 -115.5z" />
    <glyph glyph-name="w" unicode="w" horiz-adv-x="555" 
d="M171 123c16 16 27.334 46.333 34.001 91c8 54.667 15.667 89 23 103c16.667 32 47.667 48 93 48c18 0 35 -33.667 51 -101c8 -33.333 18.333 -81 31 -143c6.66699 16 21.334 64 44.001 144c26 90.667 44.333 136 55 136s21 -5.5 31 -16.5s15 -21.833 15 -32.5
c0 -44.667 -15.333 -112 -46 -202c-34.667 -102 -68.334 -153 -101.001 -153c-48 0 -82.667 36 -104 108l-22 79c-6 -20.667 -17.5 -57.667 -34.5 -111s-36.167 -80 -57.5 -80c-42 0 -67.333 2.66699 -76 8c-18.667 11.333 -37.667 74.333 -57 189l-35 211
c-1.33301 0.666992 -2 2.33398 -2 5.00098c0 14.667 24 22 72 22c29.333 0 47.666 -6.33301 54.999 -19c-4 -20.667 -6 -42.334 -6 -65.001c0 -55.333 12.333 -129 37 -221z" />
    <glyph glyph-name="x" unicode="x" horiz-adv-x="439" 
d="M185 288l71.002 93.002c35.333 46 61.666 69 78.999 69c13.333 0 26 -2.66699 38 -8c15.333 -6.66699 23 -16 23 -28c0 -6 -15.667 -23.333 -47 -52c-36.667 -34 -77.667 -85.667 -123 -155c4.66699 -24.667 17.667 -49.334 39 -74.001c23.333 -27.333 46.333 -41 69 -41
c15.333 0 38.5 10.167 69.5 30.5s48.5 30.5 52.5 30.5c12.667 0 19 -5.66699 19 -17c0 -24 -23.333 -50.333 -70 -79c-43.333 -26 -78.333 -39 -105 -39c-32 0 -61.333 9.5 -88 28.5s-43.667 43.833 -51 74.5c-8 -16.667 -22.333 -42 -43 -76
c-24.667 -40.667 -40 -61 -46 -61c-12.667 0 -25.334 5.66699 -38.001 17s-19 23.333 -19 36c0 15.333 30.667 62.666 92 141.999c-4 13.333 -21.333 49 -52 107c-27.333 52 -41 83.333 -41 94c0 13.333 10.667 25 32 35c18 8 35 12 51 12c12 0 26 -19.333 42 -58
c18.667 -44.667 34 -71.667 46 -81z" />
    <glyph glyph-name="y" unicode="y" horiz-adv-x="464" 
d="M59 -117c10.667 4 20.667 6.00391 30 6.00391c18 0 45.833 -10.167 83.5 -30.5s60.5 -30.5 68.5 -30.5c22.667 0 37.667 44.333 45 133c1.33301 12.667 4.33301 66.334 9 161.001c-40.667 -61.333 -83.334 -92 -128.001 -92c-47.333 0 -79.333 24 -96 72
c-10 28.667 -15 72.667 -15 132c0 117.333 17.667 176 53 176c14 0 28.833 -5.33301 44.5 -16s23.5 -22.667 23.5 -36c0 -16 -2.16699 -40.333 -6.5 -73s-6.5 -57 -6.5 -73v-60c2.66699 -30 9.66699 -45 21 -45c16.667 0 39 39.667 67 119c26 72.667 40.333 122 43 148l4 35
c0.666992 8 1.33398 12.333 2.00098 13c5.33301 19.333 15 29 29 29s29.333 -2.66699 46 -8c20.667 -6.66699 31 -15.334 31 -26.001c0 -48.667 -4.16699 -121.834 -12.5 -219.501s-12.5 -170.834 -12.5 -219.501c0 -70.667 -5.66699 -118.334 -17 -143.001
c-18.667 -40 -58.667 -60 -120 -60c-33.333 0 -69.333 10.667 -108 32s-64.667 46.666 -78 75.999z" />
    <glyph glyph-name="z" unicode="z" horiz-adv-x="381" 
d="M198 332c-9.33301 1.33301 -24.668 1.33203 -46.001 -0.000976562c-26.667 -2 -42.667 -3 -48 -3c-48 0 -72 13.333 -72 40c0 23.333 39 40.333 117 51c48.667 6.66699 98.667 10 150 10c12 0 24.167 -6 36.5 -18s18.5 -24 18.5 -36
c0 -3.33301 -29.667 -49.666 -89 -138.999l-92 -139c22.667 3.33301 45.334 6.33301 68.001 9c28 4 51 6 69 6c29.333 0 44 -15 44 -45c0 -15.333 -6 -24 -18 -26c-63.333 -9.33301 -134.666 -22 -213.999 -38c-16.667 -3.33301 -27.334 -5 -32.001 -5
c-12.667 0 -26.167 6.5 -40.5 19.5s-21.5 25.833 -21.5 38.5c0 26 24 72.333 72 139z" />
    <glyph glyph-name="braceleft" unicode="{" horiz-adv-x="457" 
d="M138 331c0 34 60.667 55 182 63c0 186 10.333 285 31 297c11.333 6.66699 25.666 12 42.999 16c4.66699 8.66699 7 18 7 28s-6.33301 18 -19 24c-10 4.66699 -20.667 7 -32 7c-90.667 0 -140 -103.333 -148 -310c-116.667 -45.333 -175 -98.666 -175 -159.999
c0 -58.667 59.667 -97.667 179 -117c16 -178 72 -267 168 -267c33.333 0 50.333 10.667 51 32l-5 7c-70.667 12 -104.667 112 -102 300c-37.333 6 -71.666 14.333 -102.999 25c-51.333 17.333 -77 35.666 -77 54.999z" />
    <glyph glyph-name="bar" unicode="|" horiz-adv-x="169" 
d="M133 71l-6 46c0 -0.666992 0.333008 12.333 1 39c2.66699 98 2.66699 223 0 375l-2 123c0 15.333 -0.333008 25 -1 29c-1.33301 15.333 -4 23 -8 23c-53.333 -28 -84 -58.333 -92 -91c-2 -6.66699 1 -22.667 9 -48c8 -27.333 12 -45 12 -53l4 -396
c0 -9.33301 -1 -23 -3 -41s-3 -31.333 -3 -40c0 -27.333 5.66699 -41 17 -41c17.333 0 33 8.33301 47 25c12 14 20.333 30.667 25 50z" />
    <glyph glyph-name="braceright" unicode="}" horiz-adv-x="457" 
d="M295 346c0 -34 -60.668 -55 -182.001 -63c0 -186 -10.333 -285 -31 -297c-11.333 -6.66699 -25.666 -12 -42.999 -16c-4.66699 -8.66699 -7 -18 -7 -28c0 -9.33301 6.66699 -17 20 -23c10 -4.66699 20.667 -7 32 -7c90 0 139 103 147 309c116.667 46 175 99.333 175 160
c0 58.667 -59.667 97.667 -179 117c-16 178.667 -72 268 -168 268c-33.333 0 -50.333 -11 -51 -33l5 -7c70.667 -11.333 105 -111 103 -299c36.667 -6 70.667 -14.333 102 -25c51.333 -17.333 77 -36 77 -56z" />
    <glyph glyph-name="asciitilde" unicode="~" horiz-adv-x="584" 
d="M524 271c-36.667 -58.667 -78.333 -88 -125 -88c-25.333 0 -51.333 7 -78 21l-40 21c-34 18 -66.333 27 -97 27c-22 0 -40.333 -7 -55 -21c-9.33301 -10 -20 -27.333 -32 -52l-36 58c30 56.667 71 85 123 85c26 0 56.333 -7.33301 91 -22l87 -37c14 -6 26.333 -9 37 -9
c29.333 0 58.333 24 87 72z" />
    <glyph glyph-name="nonbreakingspace" unicode="&#xa0;" horiz-adv-x="278" 
 />
    <glyph glyph-name="exclamdown" unicode="&#xa1;" horiz-adv-x="267" 
d="M212 506c0 -8 -1.99902 -19.668 -5.99902 -35.001s-6 -27 -6 -35c0 -59.333 -2.66699 -128.666 -8 -207.999l-14 -208c-1.33301 -15.333 -7.33301 -26.333 -18 -33c-30.667 4.66699 -57.334 7 -80.001 7c-8 0 -16.5 3.83301 -25.5 11.5s-13.5 15.5 -13.5 23.5
c0 4.66699 5.16699 17.5 15.5 38.5s15.833 36.5 16.5 46.5c10.667 122.667 16 256.334 16 401.001c0 13.333 7.33301 21.666 22 24.999c6 1.33301 19 2 39 2c10.667 0 23 -3.33301 37 -10c16.667 -8 25 -16.667 25 -26zM129.001 572.999c-14.667 0 -27.333 11.333 -38 34
c-9.33301 19.333 -14 37.333 -14 54c0 17.333 10 32.333 30 45c17.333 11.333 35.333 17 54 17c18 0 33 -6.83301 45 -20.5s18 -29.5 18 -47.5c0 -18.667 -11.167 -37 -33.5 -55s-42.833 -27 -61.5 -27z" />
    <glyph glyph-name="cent" unicode="&#xa2;" horiz-adv-x="379" 
d="M169 506l-1 0.998047c-1.33301 24.667 -2 39 -2 43c0 34 16 51 48 51c16.667 0 25 -8.66699 25 -26c0 -4 -0.5 -10.333 -1.5 -19s-1.5 -15 -1.5 -19c0 -18 5.33301 -34.333 16 -49c26 -4 49.167 -18.5 69.5 -43.5s30.5 -50.833 30.5 -77.5
c0 -16 -6.66699 -31.167 -20 -45.5s-28 -21.5 -44 -21.5c-16.667 0 -28 11.333 -34 34c-2.66699 12 -8.33398 33 -17.001 63c-7.33301 22.667 -21.666 34 -42.999 34c-37.333 0 -56 -49.667 -56 -149c0 -93.333 20.667 -140 62 -140c17.333 0 33 12.5 47 37.5
s29 37.5 45 37.5c38.667 0 58 -7.33301 58 -22c0 -22 -13.667 -47.333 -41 -76c-24.667 -26 -48.667 -44 -72 -54c8 -13.333 12 -28.666 12 -45.999c0 -21.333 -5.5 -39.166 -16.5 -53.499s-26.833 -21.5 -47.5 -21.5c-18.667 0 -28 7.33301 -28 22
c0 8 1.66699 20.167 5 36.5s5 28.5 5 36.5c0 14.667 -3.33301 28 -10 40c-44 4.66699 -77.667 30 -101 76c-19.333 38 -29 81.667 -29 131c0 66.667 7.66699 115 23 145c21.333 41.333 61 66.333 119 75z" />
    <glyph glyph-name="sterling" unicode="&#xa3;" horiz-adv-x="522" 
d="M96 407c4.66699 123.333 6.99902 213.332 6.99902 269.999c0 19.333 24.667 29 74 29c50 0 75 -12 75 -36c0 -23.333 -4.33301 -65.333 -13 -126c-10.667 -73.333 -16.667 -117.666 -18 -132.999c20 -1.33301 46.667 -1 80 1c41.333 2 68 3 80 3c62.667 0 94 -14 94 -42
c-18 -23.333 -64 -35 -138 -35c-23.333 0 -46 0.666992 -68 2l-49 3c-7.33301 -39.333 -10 -103.333 -8 -192l1 -43l87 -2c8 0 19.833 0.333008 35.5 1s26.834 1 33.501 1c91.333 0 137 -17.667 137 -53c0 -21.333 -63.667 -37 -191 -47c-76 -6 -149 -9 -219 -9
c-19.333 0 -29 9.66699 -29 29c0 16.667 7.33301 43.334 22 80.001c2 5.33301 3.33301 41.666 4 108.999c0.666992 73.333 1.66699 116 3 128c-7.33301 0.666992 -18 0.166992 -32 -1.5s-23.667 -2.5 -29 -2.5c-14 0 -21 5.33301 -21 16c0 11.333 6.5 24 19.5 38
s25.167 21 36.5 21z" />
    <glyph glyph-name="currency" unicode="&#xa4;" horiz-adv-x="556" 
d="M528 144l-46.002 -46.0039l-55 59c-25.333 -22 -48 -36.667 -68 -44s-47 -11 -81 -11c-35.333 0 -62.666 3.33301 -81.999 10s-41.666 21.334 -66.999 44.001l-55 -57l-45 45l54 56c-19.333 27.333 -32.5 51.333 -39.5 72s-10.5 47.334 -10.5 80.001
c0 34.667 3.16699 61.5 9.5 80.5s19.833 41.833 40.5 68.5l-55 54l48 49l57 -56c25.333 20 47.833 33.333 67.5 40s45.5 10 77.5 10c34 0 60 -3.16699 78 -9.5s40 -19.833 66 -40.5l58 56l48 -49l-54 -54c20 -25.333 33.333 -48.166 40 -68.499s10 -47.166 10 -80.499
c0 -36 -3 -63.5 -9 -82.5s-19.667 -42.167 -41 -69.5zM449.998 348.996c0 48 -16.499 89.668 -49.499 125.001s-73.167 53 -120.5 53c-48.667 0 -89.667 -17.5 -123 -52.5s-50 -76.833 -50 -125.5s16.5 -90.334 49.5 -125.001s73.833 -52 122.5 -52
c47.333 0 87.666 17.5 120.999 52.5s50 76.5 50 124.5z" />
    <glyph glyph-name="yen" unicode="&#xa5;" horiz-adv-x="556" 
d="M553 688l-192 -304h154v-57h-193v-85h193v-57h-193v-185h-89v185h-192v57h192v85h-192v57h154l-192 304h101l174 -294l174 294h101z" />
    <glyph glyph-name="brokenbar" unicode="&#xa6;" horiz-adv-x="260" 
d="M168 460h-75v277h75v-277zM168 -19h-75v295h75v-295z" />
    <glyph glyph-name="section" unicode="&#xa7;" horiz-adv-x="556" 
d="M513 244c0 -60.667 -34.666 -114.001 -103.999 -160.001c35.333 -38 53 -75.667 53 -113c0 -48.667 -19.667 -88.667 -59 -120c-36 -28 -79.333 -42 -130 -42c-78.667 0 -133.334 26.333 -164.001 79c-18 31.333 -27 68 -27 110h90c0 -74.667 32.333 -112 97 -112
c69.333 0 104 27 104 81c0 29.333 -18.667 56.333 -56 81l-206 137c-46 30.667 -69 73.667 -69 129c0 36.667 8.66699 67 26 91c15.333 20.667 40.333 41.334 75 62.001c-32 32.667 -48 66 -48 100c0 50.667 17 91.667 51 123s76.667 47 128 47c124 0 186 -61.333 186 -184
h-86c0 71.333 -31.667 107 -95 107c-26 0 -47.667 -6.33301 -65 -19c-20 -14 -30 -33.667 -30 -59c0 -32 19.667 -59.667 59 -83l163 -96c71.333 -42 107 -95 107 -159zM428.001 223.999c0 39.333 -20.668 71.667 -62.001 97l-173 106
c-23.333 -14 -39.666 -26.667 -48.999 -38c-12 -16 -18 -35.333 -18 -58c0 -36.667 12.333 -63 37 -79l197 -128c45.333 30 68 63.333 68 100z" />
    <glyph glyph-name="dieresis" unicode="&#xa8;" 
d="M294 603h-93v103h93v-103zM131 603h-92v103h92v-103z" />
    <glyph glyph-name="copyright" unicode="&#xa9;" horiz-adv-x="768" 
d="M384 51c-94 0 -173.333 32.333 -238 97s-97 144 -97 238s32.333 173.333 97 238s144 97 238 97c93.333 0 172.5 -32.5 237.5 -97.5s97.5 -144.167 97.5 -237.5s-32.5 -172.5 -97.5 -237.5s-144.167 -97.5 -237.5 -97.5zM383 682
c-82.667 0 -152.669 -28.833 -210.002 -86.5s-86 -127.834 -86 -210.501s28.833 -152.667 86.5 -210s127.834 -86 210.501 -86s152.834 28.833 210.501 86.5s86.5 127.834 86.5 210.501s-29 152.667 -87 210s-128.333 86 -211 86zM393.998 467
c-4 2.66699 -7.66699 3.99707 -11 3.99707c-12.667 0 -23.667 -16 -33 -48c-7.33301 -25.333 -11 -47.666 -11 -66.999c0 -30 1 -50 3 -60c5.33301 -26 17.333 -39 36 -39c24.667 0 59.167 10.833 103.5 32.5s62.833 32.5 55.5 32.5c8 0 12 -5.66699 12 -17
c0 -19.333 -19.667 -39.666 -59 -60.999c-36 -20 -65 -30 -87 -30c-42 0 -76.5 11.833 -103.5 35.5s-40.5 56.167 -40.5 97.5c0 36.667 6 73 18 109c16 48 39.333 72 70 72c36.667 0 68 -12 94 -36s39 -54.333 39 -91c0 -42 -11.667 -63 -35 -63
c-36.667 0 -55 28.333 -55 85c0 14.667 1.33301 29.334 4 44.001z" />
    <glyph glyph-name="ordfeminine" unicode="&#xaa;" horiz-adv-x="370" 
d="M331 303h-297v49h297v-49zM239 614l6.00195 1.00195c15.333 0 24 -3.33301 26 -10c-10 -28 -15 -55 -15 -81v-50c0 -18 5.66699 -27 17 -27c7.33301 0 17.5 5.83301 30.5 17.5s20.833 17.5 23.5 17.5c7.33301 0 11 -3.66699 11 -11
c0 -14.667 -6.33301 -27.834 -19 -39.501s-26.334 -17.5 -41.001 -17.5c-31.333 0 -53.333 12.667 -66 38l-31 -37c-12 -10.667 -26.667 -16 -44 -16c-64 0 -96 33.333 -96 100c0 33.333 7.33301 66.666 22 99.999c18 41.333 41.333 62 70 62
c51.333 0 86.666 -15.667 105.999 -47zM110.002 477.002c0 -30 5.66602 -45.001 16.999 -45.001c6.66699 0 13 4 19 12c20.667 28.667 33.334 49.334 38.001 62.001c2.66699 8 7 31.333 13 70c2 16 3 23.333 3 22c0 14 -8.66699 21 -26 21c-22 0 -39 -19 -51 -57
c-8.66699 -28 -13 -56.333 -13 -85z" />
    <glyph glyph-name="guillemotleft" unicode="&#xab;" horiz-adv-x="556" 
d="M460 446l-1 -88l-105 -81l105 -81v-89l-158 125v91zM255 196l-1 -89l-157 125v91l158 124l-1 -89l-104 -81z" />
    <glyph glyph-name="logicalnot" unicode="&#xac;" horiz-adv-x="584" 
d="M545 108h-75v209h-431v73h506v-282z" />
    <glyph glyph-name="minus" unicode="&#xad;" horiz-adv-x="584" 
d="M545 216h-507v74h507v-74z" />
    <glyph glyph-name="minus" unicode="&#x2212;" horiz-adv-x="584" 
d="M545 216h-507v74h507v-74z" />
    <glyph glyph-name="registered" unicode="&#xae;" horiz-adv-x="768" 
d="M384 51c-94 0 -173.333 32.333 -238 97s-97 144 -97 238s32.333 173.333 97 238s144 97 238 97c93.333 0 172.5 -32.5 237.5 -97.5s97.5 -144.167 97.5 -237.5s-32.5 -172.5 -97.5 -237.5s-144.167 -97.5 -237.5 -97.5zM383 682
c-82.667 0 -152.669 -28.833 -210.002 -86.5s-86 -127.834 -86 -210.501s28.833 -152.667 86.5 -210s127.834 -86 210.501 -86s152.834 28.833 210.501 86.5s86.5 127.834 86.5 210.501s-29 152.667 -87 210s-128.333 86 -211 86zM427.998 351
c26 -64.667 57.333 -93.998 94 -87.998c6 -2.66699 9 -6.33398 9 -11.001c0 -6 -6.83301 -11.167 -20.5 -15.5s-24.5 -6.5 -32.5 -6.5c-20.667 0 -39.334 9 -56.001 27c-8.66699 9.33301 -19.667 25.666 -33 48.999c-10 17.333 -17.333 26 -22 26
c5.33301 0 -6 -1.33301 -34 -4c-2.66699 -10.667 -4 -44.334 -4 -101.001c0 -5.33301 -7 -8 -21 -8c-21.333 0 -32 6 -32 18c0 115.333 3.33301 202.333 10 261l-7 1c-6 0 -15 -1.66699 -27 -5s-21 -5 -27 -5s-9 5 -9 15c0 19.333 11.333 31.333 34 36
c9.33301 2 28.333 3 57 3c48.667 0 90.334 -6.33301 125.001 -19c50.667 -18.667 76 -48 76 -88c0 -31.333 -26.667 -59.666 -80 -84.999zM452.998 453.002c0 31.333 -33.001 47 -99.001 47c-7.33301 0 -11.666 -6 -12.999 -18c0 -6 -0.333008 -14.667 -1 -26s-3 -42 -7 -92
l8 -1c23.333 -0.666992 47.833 8.33301 73.5 27s38.5 39.667 38.5 63z" />
    <glyph glyph-name="macron" unicode="&#xaf;" 
d="M324 627h-314v57h314v-57z" />
    <glyph glyph-name="macron" unicode="&#x2c9;" 
d="M324 627h-314v57h314v-57z" />
    <glyph glyph-name="degree" unicode="&#xb0;" horiz-adv-x="400" 
d="M347 557c0 -41.333 -14.1689 -76.167 -42.502 -104.5s-63.166 -42.5 -104.499 -42.5s-76.166 14 -104.499 42s-42.5 62.667 -42.5 104c0 42 14 77 42 105s63 42 105 42s77 -13.833 105 -41.5s42 -62.5 42 -104.5zM296.998 555.999c0 27.333 -9.5 51.332 -28.5 71.999
s-42.167 31 -69.5 31h-6c-24.667 0 -46 -10.667 -64 -32s-27 -44.666 -27 -69.999c0 -26 9.33301 -49.667 28 -71s41 -32 67 -32c28 0 51.667 10 71 30s29 44 29 72z" />
    <glyph glyph-name="plusminus" unicode="&#xb1;" horiz-adv-x="584" 
d="M545 272h-215v-161h-75v161h-216v74h216v160h75v-160h215v-74zM545 0h-506v74h506v-74z" />
    <glyph glyph-name="acute" unicode="&#xb4;" 
d="M320 734l-131 -141h-68l90 141h109z" />
    <glyph glyph-name="mu" unicode="&#xb5;" horiz-adv-x="556" 
d="M490 0h-85.001v76c-42 -60.667 -95.667 -91 -161 -91c-38 0 -67 11.333 -87 34v-225h-90v729h90v-350c0 -74.667 33.667 -112 101 -112c44.667 0 80.334 16.333 107.001 49c24 30.667 36 69 36 115v298h89v-523z" />
    <glyph glyph-name="mu" unicode="&#x3bc;" horiz-adv-x="556" 
d="M490 0h-85.001v76c-42 -60.667 -95.667 -91 -161 -91c-38 0 -67 11.333 -87 34v-225h-90v729h90v-350c0 -74.667 33.667 -112 101 -112c44.667 0 80.334 16.333 107.001 49c24 30.667 36 69 36 115v298h89v-523z" />
    <glyph glyph-name="paragraph" unicode="&#xb6;" horiz-adv-x="537" 
d="M497 -172h-75v829h-116v-829h-75v516c-62 0 -112.333 16 -151 48c-42 34.667 -63 82 -63 142s22 106.667 66 140c39.333 29.333 90 44 152 44h262v-890z" />
    <glyph glyph-name="periodcentered" unicode="&#xb7;" horiz-adv-x="278" 
d="M203 252c0 -17.333 -6.33203 -32.168 -18.999 -44.501s-27.667 -18.5 -45 -18.5c-18 0 -32.833 6 -44.5 18s-17.5 27 -17.5 45s6 33 18 45s27 18 45 18c17.333 0 32.166 -6.16699 44.499 -18.5s18.5 -27.166 18.5 -44.499z" />
    <glyph glyph-name="periodcentered" unicode="&#x2219;" horiz-adv-x="278" 
d="M203 252c0 -17.333 -6.33203 -32.168 -18.999 -44.501s-27.667 -18.5 -45 -18.5c-18 0 -32.833 6 -44.5 18s-17.5 27 -17.5 45s6 33 18 45s27 18 45 18c17.333 0 32.166 -6.16699 44.499 -18.5s18.5 -27.166 18.5 -44.499z" />
    <glyph glyph-name="cedilla" unicode="&#xb8;" 
d="M260 -132c0 -30 -12.667 -53.666 -38 -70.999c-22 -14.667 -49 -22 -81 -22c-32.667 0 -65 7.66699 -97 23l18 40c23.333 -10.667 45.333 -16 66 -16c36.667 0 55 13.667 55 41c0 12.667 -4.83301 22.5 -14.5 29.5s-20.834 10.5 -33.501 10.5
c-11.333 0 -24.666 -2.66699 -39.999 -8l-16 20l63 85h49l-46 -62c13.333 3.33301 24.333 5 33 5c23.333 0 42.833 -6.83301 58.5 -20.5s23.5 -31.834 23.5 -54.501z" />
    <glyph glyph-name="ordmasculine" unicode="&#xba;" horiz-adv-x="365" 
d="M332 303h-298v49h298v-49zM287 555l2.00098 0.000976562c11.333 0 22.166 12.667 32.499 38s18.833 38 25.5 38c9.33301 0 14 -7.33301 14 -22c0 -22 -7.33301 -43.667 -22 -65c-16 -24 -34.333 -37.333 -55 -40c-8 -34 -16.333 -56.667 -25 -68
c-14 -18.667 -35.667 -28 -65 -28c-36.667 0 -65 13 -85 39c-18 23.333 -27 53.666 -27 90.999c0 15.333 1.33301 27 4 35l4 15c18 56.667 45.333 85 82 85c24.667 0 49.5 -13.333 74.5 -40s38.5 -52.667 40.5 -78zM145.001 514.001c0 -48 13.332 -72 39.999 -72
c12.667 0 24.334 10.667 35.001 32c10 19.333 15 36 15 50c0 2.66699 -5.33301 15 -16 37s-16 40.333 -16 55c-4.66699 2 -8.66699 3 -12 3c-14 0 -25.667 -14.333 -35 -43c-7.33301 -24 -11 -44.667 -11 -62z" />
    <glyph glyph-name="guillemotright" unicode="&#xbb;" horiz-adv-x="556" 
d="M459 231l-158 -124v89l105 81l-105 81v89l158 -124v-92zM254 231l-158 -124v89l105 81l-105 81v89l158 -124v-92z" />
    <glyph glyph-name="questiondown" unicode="&#xbf;" horiz-adv-x="520" 
d="M201 466c-7.33301 7.33301 -11 15 -11 23c0 12 11.667 23.333 35 34c20 9.33301 37 14 51 14c12 0 25 -4 39 -12s21 -17.667 21 -29c0 -16.667 -19.667 -50.334 -59 -101.001l-109 -141c-38.667 -51.333 -58 -91.666 -58 -120.999c0 -12.667 3.83301 -23.5 11.5 -32.5
s17.5 -13.5 29.5 -13.5c46 0 96.667 24 152 72c52 44 87.333 89.333 106 136c2 1.33301 6 2 12 2c20 0 39 -5 57 -15c21.333 -11.333 32 -26 32 -44c0 -42 -41.667 -95 -125 -159c-80 -61.333 -142.333 -92 -187 -92c-40 0 -83.667 17.667 -131 53
c-50 37.333 -75 75.333 -75 114c0 44.667 28.333 101 85 169zM246 577c-15.333 0 -28.001 11.333 -38.001 34c-8.66699 18.667 -13 36.667 -13 54s10 32.333 30 45c17.333 11.333 35.333 17 54 17c18 0 33 -6.83301 45 -20.5s18 -29.5 18 -47.5
c0 -19.333 -11.167 -37.833 -33.5 -55.5s-43.166 -26.5 -62.499 -26.5z" />
    <glyph glyph-name="Agrave" unicode="&#xc0;" horiz-adv-x="628" 
d="M451 641c15.333 15.333 41.335 23.001 78.002 23.001c28.667 0 43 -8.33301 43 -25c0 -42 -4.66699 -105 -14 -189c-8.66699 -72.667 -13.667 -135.667 -15 -189c-0.666992 -14 -1.33398 -30.333 -2.00098 -49c-0.666992 -15.333 -1 -25 -1 -29c0 -64 9.33301 -96 28 -96
c17.333 0 49.666 9.33301 96.999 28l16 -7l3 -10c0 -19.333 -15.167 -38 -45.5 -56s-55.833 -27 -76.5 -27c-72.667 0 -113.667 45.667 -123 137c-26.667 -52 -49.334 -89 -68.001 -111c-32.667 -38 -69.667 -57 -111 -57c-155.333 0 -233 87.333 -233 262
c0 91.333 23.333 187.666 70 288.999c56 121.333 123.333 182 202 182c32 0 60 -7 84 -21c14.667 -8.66699 37.334 -27 68.001 -55zM209.002 58.001c30 0 63.667 18.666 101 55.999c87.333 87.333 131 213.333 131 378c0 32.667 -6.66699 61.334 -20 86.001
c-16 30.667 -39 46 -69 46c-56.667 0 -106.667 -54.667 -150 -164c-35.333 -89.333 -53 -168.333 -53 -237c0 -110 20 -165 60 -165zM475.002 816h-69l-130 141h109z" />
    <glyph glyph-name="Aacute" unicode="&#xc1;" horiz-adv-x="625" 
d="M451 641c15.333 15.333 41.335 23.001 78.002 23.001c28.667 0 43 -8.33301 43 -25c0 -42 -4.66699 -105 -14 -189c-8.66699 -72.667 -13.667 -135.667 -15 -189c-0.666992 -14 -1.33398 -30.333 -2.00098 -49c-0.666992 -15.333 -1 -25 -1 -29c0 -64 9.33301 -96 28 -96
c17.333 0 49.666 9.33301 96.999 28l16 -7l3 -10c0 -19.333 -15.167 -38 -45.5 -56s-55.833 -27 -76.5 -27c-72.667 0 -113.667 45.667 -123 137c-26.667 -52 -49.334 -89 -68.001 -111c-32.667 -38 -69.667 -57 -111 -57c-155.333 0 -233 87.333 -233 262
c0 91.333 23.333 187.666 70 288.999c56 121.333 123.333 182 202 182c32 0 60 -7 84 -21c14.667 -8.66699 37.334 -27 68.001 -55zM209.002 58.001c30 0 63.667 18.666 101 55.999c87.333 87.333 131 213.333 131 378c0 32.667 -6.66699 61.334 -20 86.001
c-16 30.667 -39 46 -69 46c-56.667 0 -106.667 -54.667 -150 -164c-35.333 -89.333 -53 -168.333 -53 -237c0 -110 20 -165 60 -165zM437.002 957l-131 -141h-68l90 141h109z" />
    <glyph glyph-name="Acircumflex" unicode="&#xc2;" horiz-adv-x="621" 
d="M451 641c15.333 15.333 41.335 23.001 78.002 23.001c28.667 0 43 -8.33301 43 -25c0 -42 -4.66699 -105 -14 -189c-8.66699 -72.667 -13.667 -135.667 -15 -189c-0.666992 -14 -1.33398 -30.333 -2.00098 -49c-0.666992 -15.333 -1 -25 -1 -29c0 -64 9.33301 -96 28 -96
c17.333 0 49.666 9.33301 96.999 28l16 -7l3 -10c0 -19.333 -15.167 -38 -45.5 -56s-55.833 -27 -76.5 -27c-72.667 0 -113.667 45.667 -123 137c-26.667 -52 -49.334 -89 -68.001 -111c-32.667 -38 -69.667 -57 -111 -57c-155.333 0 -233 87.333 -233 262
c0 91.333 23.333 187.666 70 288.999c56 121.333 123.333 182 202 182c32 0 60 -7 84 -21c14.667 -8.66699 37.334 -27 68.001 -55zM209.002 58.001c30 0 63.667 18.666 101 55.999c87.333 87.333 131 213.333 131 378c0 32.667 -6.66699 61.334 -20 86.001
c-16 30.667 -39 46 -69 46c-56.667 0 -106.667 -54.667 -150 -164c-35.333 -89.333 -53 -168.333 -53 -237c0 -110 20 -165 60 -165zM498.002 819h-82l-65 92l-66 -92h-79l98 141h95z" />
    <glyph glyph-name="Atilde" unicode="&#xc3;" horiz-adv-x="633" 
d="M451 641c15.333 15.333 41.335 23.001 78.002 23.001c28.667 0 43 -8.33301 43 -25c0 -42 -4.66699 -105 -14 -189c-8.66699 -72.667 -13.667 -135.667 -15 -189c-0.666992 -14 -1.33398 -30.333 -2.00098 -49c-0.666992 -15.333 -1 -25 -1 -29c0 -64 9.33301 -96 28 -96
c17.333 0 49.666 9.33301 96.999 28l16 -7l3 -10c0 -19.333 -15.167 -38 -45.5 -56s-55.833 -27 -76.5 -27c-72.667 0 -113.667 45.667 -123 137c-26.667 -52 -49.334 -89 -68.001 -111c-32.667 -38 -69.667 -57 -111 -57c-155.333 0 -233 87.333 -233 262
c0 91.333 23.333 187.666 70 288.999c56 121.333 123.333 182 202 182c32 0 60 -7 84 -21c14.667 -8.66699 37.334 -27 68.001 -55zM209.002 58.001c30 0 63.667 18.666 101 55.999c87.333 87.333 131 213.333 131 378c0 32.667 -6.66699 61.334 -20 86.001
c-16 30.667 -39 46 -69 46c-56.667 0 -106.667 -54.667 -150 -164c-35.333 -89.333 -53 -168.333 -53 -237c0 -110 20 -165 60 -165zM599.002 924c-10 -72.667 -44 -109 -102 -109c-14 0 -27 2 -39 6l-79 26c-10 3.33301 -18.667 5 -26 5c-22 0 -37.667 -15 -47 -45h-49
c7.33301 36.667 17.333 62.667 30 78c16.667 20 41.667 30 75 30c16.667 0 34 -3.33301 52 -10l64 -24l22 -3c26 0 41.667 15.333 47 46h52z" />
    <glyph glyph-name="Adieresis" unicode="&#xc4;" horiz-adv-x="636" 
d="M451 641c15.333 15.333 41.335 23.001 78.002 23.001c28.667 0 43 -8.33301 43 -25c0 -42 -4.66699 -105 -14 -189c-8.66699 -72.667 -13.667 -135.667 -15 -189c-0.666992 -14 -1.33398 -30.333 -2.00098 -49c-0.666992 -15.333 -1 -25 -1 -29c0 -64 9.33301 -96 28 -96
c17.333 0 49.666 9.33301 96.999 28l16 -7l3 -10c0 -19.333 -15.167 -38 -45.5 -56s-55.833 -27 -76.5 -27c-72.667 0 -113.667 45.667 -123 137c-26.667 -52 -49.334 -89 -68.001 -111c-32.667 -38 -69.667 -57 -111 -57c-155.333 0 -233 87.333 -233 262
c0 91.333 23.333 187.666 70 288.999c56 121.333 123.333 182 202 182c32 0 60 -7 84 -21c14.667 -8.66699 37.334 -27 68.001 -55zM209.002 58.001c30 0 63.667 18.666 101 55.999c87.333 87.333 131 213.333 131 378c0 32.667 -6.66699 61.334 -20 86.001
c-16 30.667 -39 46 -69 46c-56.667 0 -106.667 -54.667 -150 -164c-35.333 -89.333 -53 -168.333 -53 -237c0 -110 20 -165 60 -165zM491.002 813h-93v103h93v-103zM328.002 813h-92v103h92v-103z" />
    <glyph glyph-name="Aring" unicode="&#xc5;" horiz-adv-x="618" 
d="M451 641c15.333 15.333 41.335 23.001 78.002 23.001c28.667 0 43 -8.33301 43 -25c0 -42 -4.66699 -105 -14 -189c-8.66699 -72.667 -13.667 -135.667 -15 -189c-0.666992 -14 -1.33398 -30.333 -2.00098 -49c-0.666992 -15.333 -1 -25 -1 -29c0 -64 9.33301 -96 28 -96
c17.333 0 49.666 9.33301 96.999 28l16 -7l3 -10c0 -19.333 -15.167 -38 -45.5 -56s-55.833 -27 -76.5 -27c-72.667 0 -113.667 45.667 -123 137c-26.667 -52 -49.334 -89 -68.001 -111c-32.667 -38 -69.667 -57 -111 -57c-155.333 0 -233 87.333 -233 262
c0 91.333 23.333 187.666 70 288.999c56 121.333 123.333 182 202 182c32 0 60 -7 84 -21c14.667 -8.66699 37.334 -27 68.001 -55zM209.002 58.001c30 0 63.667 18.666 101 55.999c87.333 87.333 131 213.333 131 378c0 32.667 -6.66699 61.334 -20 86.001
c-16 30.667 -39 46 -69 46c-56.667 0 -106.667 -54.667 -150 -164c-35.333 -89.333 -53 -168.333 -53 -237c0 -110 20 -165 60 -165zM491.002 906c0 -26 -8.83301 -48.001 -26.5 -66.001s-39.5 -27 -65.5 -27c-26.667 0 -49 8.83301 -67 26.5s-27 39.834 -27 66.501
c0 26 8.66699 47.833 26 65.5s39 26.5 65 26.5c27.333 0 50 -8.5 68 -25.5s27 -39.167 27 -66.5zM449.002 905.999c0 14 -5 26 -15 36s-22 15 -36 15c-15.333 0 -27.833 -4.83301 -37.5 -14.5s-14.5 -22.167 -14.5 -37.5c0 -14 4.83301 -26 14.5 -36s21.5 -15 35.5 -15
c35.333 0 53 17.333 53 52z" />
    <glyph glyph-name="AE" unicode="&#xc6;" horiz-adv-x="1189" 
d="M209 58c30 0 63.667 18.666 101 55.999c87.333 87.333 131 213.333 131 378c0 32.667 -6.66699 61.334 -20 86.001c-16 30.667 -39 46 -69 46c-56.667 0 -106.667 -54.667 -150 -164c-35.333 -89.333 -53 -168.333 -53 -237c0 -110 20 -165 60 -165zM812 369.999
c-132 25.333 -198 71.667 -198 139c0 65.333 58.667 120.666 176 165.999c96 37.333 184 56 264 56c38 0 68.833 -11 92.5 -33s35.5 -52 35.5 -90c0 -16.667 -5.83301 -31.834 -17.5 -45.501s-25.5 -20.5 -41.5 -20.5c-23.333 0 -41.666 9.66699 -54.999 29
c-12 16 -18.333 36.333 -19 61l-20 1c-48.667 2.66699 -106 -11.333 -172 -42c-62 -28.667 -110.667 -61.667 -146 -99c-1.33301 -34 73.667 -51 225 -51c91.333 0 142.666 2.33301 153.999 7c17.333 -3.33301 26 -26.666 26 -69.999c0 -18 -4 -29 -12 -33
c-2 -1.33301 -15 -3.66602 -39 -6.99902c-54 -8 -128 -31.667 -222 -71c-114.667 -48 -172 -91.333 -172 -130c0 -25.333 18.333 -41.333 55 -48c10.667 -2 37.667 -3 81 -3c108.667 0 215.334 24 320.001 72c45.333 28.667 74 43 86 43c20.667 0 31 -10 31 -30
c0 -38 -56 -78.667 -168 -122c-98.667 -38 -173 -57 -223 -57c-71.333 0 -136 21.667 -194 65c-6 -5.33301 -13.667 -10.666 -23 -15.999c-28.667 -17.333 -53.334 -26 -74.001 -26c-72.667 0 -113.667 45.667 -123 137c-26.667 -52 -49.334 -89 -68.001 -111
c-32.667 -38 -69.667 -57 -111 -57c-155.333 0 -233 87.333 -233 262c0 91.333 23.333 187.666 70 288.999c56 121.333 123.333 182 202 182c32 0 60 -7 84 -21c14.667 -8.66699 37.334 -27 68.001 -55c15.333 15.333 41.333 23 78 23c28.667 0 43 -8.33301 43 -25
c0 -42 -4.66699 -105 -14 -189c-8.66699 -72.667 -13.667 -135.667 -15 -189c-0.666992 -14 -1.33398 -30.333 -2.00098 -49c-0.666992 -15.333 -1 -25 -1 -29c0 -64 9.33301 -96 28 -96c10.667 0 27.334 3.66699 50.001 11c-18 25.333 -27 53.333 -27 84
c0 47.333 26 89 78 125c37.333 26 85 47 143 63z" />
    <glyph glyph-name="Ccedilla" unicode="&#xc7;" horiz-adv-x="648" 
d="M539 349l-6.99805 -0.998047c-4.66699 -0.666992 -10.667 -1 -18 -1c-34 0 -58 14.333 -72 43c-9.33301 19.333 -14 53.666 -14 102.999v19c0 39.333 -2.66699 66.333 -8 81c-8.66699 23.333 -25.667 35 -51 35c-82 0 -143.333 -48 -184 -144
c-30.667 -72 -46 -157 -46 -255c0 -102 50 -153 150 -153c39.333 0 82.666 14.333 129.999 43c30 18 64.667 44.333 104 79c32.667 28.667 51 43 55 43c8 0 15.167 -3.66699 21.5 -11s9.5 -15 9.5 -23c0 -42 -39.333 -89.667 -118 -143c-75.333 -50.667 -137 -76 -185 -76
h-1l-25 -30c12.667 3.33301 23.334 5 32.001 5c24 0 43.833 -6.5 59.5 -19.5s23.5 -31.5 23.5 -55.5c0 -30.667 -13 -54.334 -39 -71.001c-22 -14.667 -49 -22 -81 -22s-64 7.66699 -96 23l18 40c24.667 -10.667 46.667 -16 66 -16c36.667 0 55 13.667 55 41
c0 12.667 -4.83301 22.5 -14.5 29.5s-20.834 10.5 -33.501 10.5h-12c-4 -0.666992 -13 -3.33398 -27 -8.00098l-18 20l44 57c-52.667 10 -100.667 35.667 -144 77c-56.667 53.333 -85 116 -85 188c0 102.667 18.667 199.334 56 290.001c48.667 118 116.667 177 204 177
c83.333 0 148.666 -33 195.999 -99c42.667 -58.667 64 -131 64 -217c0 -20 -3 -39.667 -9 -59z" />
    <glyph glyph-name="Egrave" unicode="&#xc8;" horiz-adv-x="647" 
d="M253 370c-132 25.333 -198.003 71.667 -198.003 139c0 65.333 58.667 120.666 176 165.999c96.667 37.333 184.667 56 264 56c38.667 0 69.667 -11 93 -33s35 -52 35 -90c0 -16.667 -5.66699 -31.834 -17 -45.501s-25.333 -20.5 -42 -20.5
c-23.333 0 -41.666 9.66699 -54.999 29c-11.333 16 -17.666 36.333 -18.999 61l-20 1c-48.667 2.66699 -105.667 -11.333 -171 -42c-62.667 -28.667 -111.667 -61.667 -147 -99c-1.33301 -34 73.667 -51 225 -51c91.333 0 142.666 2.33301 153.999 7
c17.333 -3.33301 26 -26.666 26 -69.999c0 -18 -4 -29 -12 -33c-2 -1.33301 -15 -3.66602 -39 -6.99902c-53.333 -8 -127.333 -31.667 -222 -71c-114.667 -48 -172 -91.333 -172 -130c0 -25.333 18.333 -41.333 55 -48c11.333 -2 38.333 -3 81 -3
c108.667 0 215.334 24 320.001 72c46 28.667 74.667 43 86 43c20.667 0 31 -10 31 -30c0 -38 -56 -78.667 -168 -122c-98.667 -38 -173 -57 -223 -57c-59.333 0 -115.666 16.333 -168.999 49c-62 38 -93 85 -93 141c0 47.333 26 89 78 125c38 26 85.667 47 143 63z
M378.997 815.001h-69l-130 141h109z" />
    <glyph glyph-name="Eacute" unicode="&#xc9;" horiz-adv-x="667" 
d="M253 370c-132 25.333 -198.003 71.667 -198.003 139c0 65.333 58.667 120.666 176 165.999c96.667 37.333 184.667 56 264 56c38.667 0 69.667 -11 93 -33s35 -52 35 -90c0 -16.667 -5.66699 -31.834 -17 -45.501s-25.333 -20.5 -42 -20.5
c-23.333 0 -41.666 9.66699 -54.999 29c-11.333 16 -17.666 36.333 -18.999 61l-20 1c-48.667 2.66699 -105.667 -11.333 -171 -42c-62.667 -28.667 -111.667 -61.667 -147 -99c-1.33301 -34 73.667 -51 225 -51c91.333 0 142.666 2.33301 153.999 7
c17.333 -3.33301 26 -26.666 26 -69.999c0 -18 -4 -29 -12 -33c-2 -1.33301 -15 -3.66602 -39 -6.99902c-53.333 -8 -127.333 -31.667 -222 -71c-114.667 -48 -172 -91.333 -172 -130c0 -25.333 18.333 -41.333 55 -48c11.333 -2 38.333 -3 81 -3
c108.667 0 215.334 24 320.001 72c46 28.667 74.667 43 86 43c20.667 0 31 -10 31 -30c0 -38 -56 -78.667 -168 -122c-98.667 -38 -173 -57 -223 -57c-59.333 0 -115.666 16.333 -168.999 49c-62 38 -93 85 -93 141c0 47.333 26 89 78 125c38 26 85.667 47 143 63z
M509.997 956.001l-131 -141h-68l90 141h109z" />
    <glyph glyph-name="Ecircumflex" unicode="&#xca;" horiz-adv-x="627" 
d="M253 370c-132 25.333 -198.003 71.667 -198.003 139c0 65.333 58.667 120.666 176 165.999c96.667 37.333 184.667 56 264 56c38.667 0 69.667 -11 93 -33s35 -52 35 -90c0 -16.667 -5.66699 -31.834 -17 -45.501s-25.333 -20.5 -42 -20.5
c-23.333 0 -41.666 9.66699 -54.999 29c-11.333 16 -17.666 36.333 -18.999 61l-20 1c-48.667 2.66699 -105.667 -11.333 -171 -42c-62.667 -28.667 -111.667 -61.667 -147 -99c-1.33301 -34 73.667 -51 225 -51c91.333 0 142.666 2.33301 153.999 7
c17.333 -3.33301 26 -26.666 26 -69.999c0 -18 -4 -29 -12 -33c-2 -1.33301 -15 -3.66602 -39 -6.99902c-53.333 -8 -127.333 -31.667 -222 -71c-114.667 -48 -172 -91.333 -172 -130c0 -25.333 18.333 -41.333 55 -48c11.333 -2 38.333 -3 81 -3
c108.667 0 215.334 24 320.001 72c46 28.667 74.667 43 86 43c20.667 0 31 -10 31 -30c0 -38 -56 -78.667 -168 -122c-98.667 -38 -173 -57 -223 -57c-59.333 0 -115.666 16.333 -168.999 49c-62 38 -93 85 -93 141c0 47.333 26 89 78 125c38 26 85.667 47 143 63z
M494.997 815.001h-82l-65 92l-66 -92h-79l98 141h95z" />
    <glyph glyph-name="Edieresis" unicode="&#xcb;" horiz-adv-x="637" 
d="M253 370c-132 25.333 -198.003 71.667 -198.003 139c0 65.333 58.667 120.666 176 165.999c96.667 37.333 184.667 56 264 56c38.667 0 69.667 -11 93 -33s35 -52 35 -90c0 -16.667 -5.66699 -31.834 -17 -45.501s-25.333 -20.5 -42 -20.5
c-23.333 0 -41.666 9.66699 -54.999 29c-11.333 16 -17.666 36.333 -18.999 61l-20 1c-48.667 2.66699 -105.667 -11.333 -171 -42c-62.667 -28.667 -111.667 -61.667 -147 -99c-1.33301 -34 73.667 -51 225 -51c91.333 0 142.666 2.33301 153.999 7
c17.333 -3.33301 26 -26.666 26 -69.999c0 -18 -4 -29 -12 -33c-2 -1.33301 -15 -3.66602 -39 -6.99902c-53.333 -8 -127.333 -31.667 -222 -71c-114.667 -48 -172 -91.333 -172 -130c0 -25.333 18.333 -41.333 55 -48c11.333 -2 38.333 -3 81 -3
c108.667 0 215.334 24 320.001 72c46 28.667 74.667 43 86 43c20.667 0 31 -10 31 -30c0 -38 -56 -78.667 -168 -122c-98.667 -38 -173 -57 -223 -57c-59.333 0 -115.666 16.333 -168.999 49c-62 38 -93 85 -93 141c0 47.333 26 89 78 125c38 26 85.667 47 143 63z
M520.997 816.001h-93v103h93v-103zM357.997 816.001h-92v103h92v-103z" />
    <glyph glyph-name="Igrave" unicode="&#xcc;" horiz-adv-x="316" 
d="M82 82c6 12.667 9.66504 114.668 10.998 306.001l1 115c0.666992 41.333 -3.66602 79.333 -12.999 114h-6c-16 0 -32.333 5.5 -49 16.5s-25 24.167 -25 39.5c0 13.333 15.333 23.666 46 30.999c22 5.33301 43 7.66602 63 6.99902c8 0 19.333 0.333008 34 1
s25.334 1 32.001 1c94 0 141 -18.333 141 -55c0 -15.333 -13 -25.666 -39 -30.999c-35.333 -7.33301 -54.333 -12 -57 -14c-8.66699 -78 -12.667 -174 -12 -288l1 -226c0 -7.33301 13.5 -16.333 40.5 -27s40.5 -22 40.5 -34c0 -26 -39 -39 -117 -39
c-51.333 0 -84.333 0.666992 -99 2c-51.333 4.66699 -77 16.334 -77 35.001c0 10.667 12.333 20.667 37 30c8 3.33301 23.667 8.66602 47 15.999zM232.998 818.001h-69l-130 141h109z" />
    <glyph glyph-name="Iacute" unicode="&#xcd;" 
d="M82 82c6 12.667 9.66504 114.668 10.998 306.001l1 115c0.666992 41.333 -3.66602 79.333 -12.999 114h-6c-16 0 -32.333 5.5 -49 16.5s-25 24.167 -25 39.5c0 13.333 15.333 23.666 46 30.999c22 5.33301 43 7.66602 63 6.99902c8 0 19.333 0.333008 34 1
s25.334 1 32.001 1c94 0 141 -18.333 141 -55c0 -15.333 -13 -25.666 -39 -30.999c-35.333 -7.33301 -54.333 -12 -57 -14c-8.66699 -78 -12.667 -174 -12 -288l1 -226c0 -7.33301 13.5 -16.333 40.5 -27s40.5 -22 40.5 -34c0 -26 -39 -39 -117 -39
c-51.333 0 -84.333 0.666992 -99 2c-51.333 4.66699 -77 16.334 -77 35.001c0 10.667 12.333 20.667 37 30c8 3.33301 23.667 8.66602 47 15.999zM282.998 956.001l-131 -141h-68l90 141h109z" />
    <glyph glyph-name="Icircumflex" unicode="&#xce;" horiz-adv-x="316" 
d="M82 82c6 12.667 9.66504 114.668 10.998 306.001l1 115c0.666992 41.333 -3.66602 79.333 -12.999 114h-6c-16 0 -32.333 5.5 -49 16.5s-25 24.167 -25 39.5c0 13.333 15.333 23.666 46 30.999c22 5.33301 43 7.66602 63 6.99902c8 0 19.333 0.333008 34 1
s25.334 1 32.001 1c94 0 141 -18.333 141 -55c0 -15.333 -13 -25.666 -39 -30.999c-35.333 -7.33301 -54.333 -12 -57 -14c-8.66699 -78 -12.667 -174 -12 -288l1 -226c0 -7.33301 13.5 -16.333 40.5 -27s40.5 -22 40.5 -34c0 -26 -39 -39 -117 -39
c-51.333 0 -84.333 0.666992 -99 2c-51.333 4.66699 -77 16.334 -77 35.001c0 10.667 12.333 20.667 37 30c8 3.33301 23.667 8.66602 47 15.999zM301.998 818.001h-82l-65 92l-66 -92h-79l98 141h95z" />
    <glyph glyph-name="Idieresis" unicode="&#xcf;" horiz-adv-x="322" 
d="M82 82c6 12.667 9.66504 114.668 10.998 306.001l1 115c0.666992 41.333 -3.66602 79.333 -12.999 114h-6c-16 0 -32.333 5.5 -49 16.5s-25 24.167 -25 39.5c0 13.333 15.333 23.666 46 30.999c22 5.33301 43 7.66602 63 6.99902c8 0 19.333 0.333008 34 1
s25.334 1 32.001 1c94 0 141 -18.333 141 -55c0 -15.333 -13 -25.666 -39 -30.999c-35.333 -7.33301 -54.333 -12 -57 -14c-8.66699 -78 -12.667 -174 -12 -288l1 -226c0 -7.33301 13.5 -16.333 40.5 -27s40.5 -22 40.5 -34c0 -26 -39 -39 -117 -39
c-51.333 0 -84.333 0.666992 -99 2c-51.333 4.66699 -77 16.334 -77 35.001c0 10.667 12.333 20.667 37 30c8 3.33301 23.667 8.66602 47 15.999zM275.998 816.001h-93v103h93v-103zM112.998 816.001h-92v103h92v-103z" />
    <glyph glyph-name="Eth" unicode="&#xd0;" horiz-adv-x="673" 
d="M80 83c0 88 1.33398 168.667 4.00098 242h-84v87h87c3.33301 66 8 125 14 177l-14 1c-12 0.666992 -29.5 -3.33301 -52.5 -12s-38.833 -13 -47.5 -13c-24.667 0 -37 20.667 -37 62c0 32 39.667 56.667 119 74c55.333 12 107.333 18 156 18c104.667 0 198 -32 280 -96
c89.333 -69.333 134 -155.333 134 -258c0 -84.667 -39.5 -168.5 -118.5 -251.5s-160.5 -124.5 -244.5 -124.5c-8.66699 0 -21.667 1.83301 -39 5.5s-30.333 5.5 -39 5.5c-5.33301 0 -13 -1.83301 -23 -5.5s-17.333 -5.5 -22 -5.5c-30.667 0 -51.334 9.33301 -62.001 28
c-7.33301 12.667 -11 34.667 -11 66zM218.001 73c73.333 0 144.332 38.665 212.999 115.998c66 75.333 99 150.333 99 225c0 76.667 -25.667 131.334 -77 164.001c-40.667 25.333 -101.667 38 -183 38c-23.333 0 -37.666 -3.66699 -42.999 -11s-8 -23 -8 -47
c0 -35.333 -2.33301 -84 -7 -146h158v-87h-166c-6.66699 -77.333 -10 -136.666 -10 -177.999v-45c2.66699 -19.333 10.667 -29 24 -29z" />
    <glyph glyph-name="Ntilde" unicode="&#xd1;" horiz-adv-x="603" 
d="M452 183c-5.33301 34 -8.00098 70.6719 -8.00098 110.005c0 43.333 1 121 3 233c3.33301 121.333 20.666 182 51.999 182c18.667 0 35 -6.66699 49 -20c-9.33301 -236.667 -14 -409.334 -14 -518.001c0 -50 0.666992 -97.667 2 -143c-22 -12.667 -47.333 -19 -76 -19
c-44 0 -99.667 66 -167 198c-23.333 45.333 -34 70.333 -32 75c-10.667 17.333 -23.167 41.666 -37.5 72.999l-35.5 77c-5.33301 -49.333 -8 -106.333 -8 -171c0 -28.667 0.666992 -71.334 2 -128.001s2 -99.334 2 -128.001c0 -34 -20 -51 -60 -51
c-33.333 0 -49 21.333 -47 64c6.66699 138.667 10 310.667 10 516c0 70.667 3.33301 112.667 10 126c12.667 25.333 47.334 38 104.001 38c20 0 32.667 -9.66699 38 -29c32.667 -116.667 59.334 -201.667 80.001 -255c38.667 -98.667 83 -175.334 133 -230.001z
M515.999 925.005c-10 -72.667 -44 -109 -102 -109c-14 0 -27 2 -39 6l-79 26c-10 3.33301 -18.667 5 -26 5c-22 0 -37.667 -15 -47 -45h-49c7.33301 36.667 17.333 62.667 30 78c16.667 20 41.667 30 75 30c16.667 0 34 -3.33301 52 -10l64 -24l22 -3
c26 0 41.667 15.333 47 46h52z" />
    <glyph glyph-name="Ograve" unicode="&#xd2;" horiz-adv-x="693" 
d="M28 337c0 88.667 21 170.667 63 246c50 89.333 116 134 198 134c26 0 73.333 -16.333 142 -49c63.333 -30 106 -54.333 128 -73c28 -23.333 46.667 -41.333 56 -54s20.666 -36 33.999 -70l1 -1c10 -40 15 -76.333 15 -109c0 -109.333 -26.333 -197.333 -79 -264
c-57.333 -73.333 -139.333 -110 -246 -110c-46.667 0 -99.167 19.167 -157.5 57.5s-98.666 78.5 -120.999 120.5s-33.5 99.333 -33.5 172zM326 55c63.333 0 117.667 34.333 163 103c40.667 62 61 126 61 192c0 73.333 -17.333 135.333 -52 186
c-39.333 58.667 -94 88 -164 88c-66.667 0 -115.667 -45.333 -147 -136c-22.667 -65.333 -34 -139 -34 -221c0 -55.333 14.667 -103.333 44 -144c32.667 -45.333 75.667 -68 129 -68zM436.001 814h-69l-130 141h109z" />
    <glyph glyph-name="Oacute" unicode="&#xd3;" horiz-adv-x="697" 
d="M28 337c0 88.667 21 170.667 63 246c50 89.333 116 134 198 134c26 0 73.333 -16.333 142 -49c63.333 -30 106 -54.333 128 -73c28 -23.333 46.667 -41.333 56 -54s20.666 -36 33.999 -70l1 -1c10 -40 15 -76.333 15 -109c0 -109.333 -26.333 -197.333 -79 -264
c-57.333 -73.333 -139.333 -110 -246 -110c-46.667 0 -99.167 19.167 -157.5 57.5s-98.666 78.5 -120.999 120.5s-33.5 99.333 -33.5 172zM326 55c63.333 0 117.667 34.333 163 103c40.667 62 61 126 61 192c0 73.333 -17.333 135.333 -52 186
c-39.333 58.667 -94 88 -164 88c-66.667 0 -115.667 -45.333 -147 -136c-22.667 -65.333 -34 -139 -34 -221c0 -55.333 14.667 -103.333 44 -144c32.667 -45.333 75.667 -68 129 -68zM455.001 955l-131 -141h-68l90 141h109z" />
    <glyph glyph-name="Ocircumflex" unicode="&#xd4;" horiz-adv-x="697" 
d="M28 337c0 88.667 21 170.667 63 246c50 89.333 116 134 198 134c26 0 73.333 -16.333 142 -49c63.333 -30 106 -54.333 128 -73c28 -23.333 46.667 -41.333 56 -54s20.666 -36 33.999 -70l1 -1c10 -40 15 -76.333 15 -109c0 -109.333 -26.333 -197.333 -79 -264
c-57.333 -73.333 -139.333 -110 -246 -110c-46.667 0 -99.167 19.167 -157.5 57.5s-98.666 78.5 -120.999 120.5s-33.5 99.333 -33.5 172zM326 55c63.333 0 117.667 34.333 163 103c40.667 62 61 126 61 192c0 73.333 -17.333 135.333 -52 186
c-39.333 58.667 -94 88 -164 88c-66.667 0 -115.667 -45.333 -147 -136c-22.667 -65.333 -34 -139 -34 -221c0 -55.333 14.667 -103.333 44 -144c32.667 -45.333 75.667 -68 129 -68zM505.001 814h-82l-65 92l-66 -92h-79l98 141h95z" />
    <glyph glyph-name="Otilde" unicode="&#xd5;" horiz-adv-x="704" 
d="M28 337c0 88.667 21 170.667 63 246c50 89.333 116 134 198 134c26 0 73.333 -16.333 142 -49c63.333 -30 106 -54.333 128 -73c28 -23.333 46.667 -41.333 56 -54s20.666 -36 33.999 -70l1 -1c10 -40 15 -76.333 15 -109c0 -109.333 -26.333 -197.333 -79 -264
c-57.333 -73.333 -139.333 -110 -246 -110c-46.667 0 -99.167 19.167 -157.5 57.5s-98.666 78.5 -120.999 120.5s-33.5 99.333 -33.5 172zM326 55c63.333 0 117.667 34.333 163 103c40.667 62 61 126 61 192c0 73.333 -17.333 135.333 -52 186
c-39.333 58.667 -94 88 -164 88c-66.667 0 -115.667 -45.333 -147 -136c-22.667 -65.333 -34 -139 -34 -221c0 -55.333 14.667 -103.333 44 -144c32.667 -45.333 75.667 -68 129 -68zM541.001 920c-10 -72.667 -44 -109 -102 -109c-14 0 -27 2 -39 6l-79 26
c-10 3.33301 -18.667 5 -26 5c-22 0 -37.667 -15 -47 -45h-49c7.33301 36.667 17.333 62.667 30 78c16.667 20 41.667 30 75 30c16.667 0 34 -3.33301 52 -10l64 -24l22 -3c26 0 41.667 15.333 47 46h52z" />
    <glyph glyph-name="Odieresis" unicode="&#xd6;" horiz-adv-x="714" 
d="M28 337c0 88.667 21 170.667 63 246c50 89.333 116 134 198 134c26 0 73.333 -16.333 142 -49c63.333 -30 106 -54.333 128 -73c28 -23.333 46.667 -41.333 56 -54s20.666 -36 33.999 -70l1 -1c10 -40 15 -76.333 15 -109c0 -109.333 -26.333 -197.333 -79 -264
c-57.333 -73.333 -139.333 -110 -246 -110c-46.667 0 -99.167 19.167 -157.5 57.5s-98.666 78.5 -120.999 120.5s-33.5 99.333 -33.5 172zM326 55c63.333 0 117.667 34.333 163 103c40.667 62 61 126 61 192c0 73.333 -17.333 135.333 -52 186
c-39.333 58.667 -94 88 -164 88c-66.667 0 -115.667 -45.333 -147 -136c-22.667 -65.333 -34 -139 -34 -221c0 -55.333 14.667 -103.333 44 -144c32.667 -45.333 75.667 -68 129 -68zM464.001 816h-93v103h93v-103zM301.001 816h-92v103h92v-103z" />
    <glyph glyph-name="multiply" unicode="&#xd7;" horiz-adv-x="584" 
d="M545 51l-51 -51l-202 201l-202 -202l-51 53l201 201l-202 202l53 51l201 -200l202 200l51 -51l-200 -202z" />
    <glyph glyph-name="Oslash" unicode="&#xd8;" horiz-adv-x="693" 
d="M501 532c-8.66699 -8.66699 -14.332 -14.667 -16.999 -18l-297 -376c34 -55.333 80.333 -83 139 -83c63.333 0 117.666 34.333 162.999 103c40.667 62 61 126 61 192c0 71.333 -16.333 132 -49 182zM160.002 205l254 326l42 52c-34 27.333 -74.667 41 -122 41
c-66.667 0 -115.667 -45.333 -147 -136c-22.667 -65.333 -34 -139 -34 -221c0 -22 2.33301 -42.667 7 -62zM51.002 71l43.002 47.999c-13.333 15.333 -24.333 31 -33 47c-22 41.333 -33 98.333 -33 171c0 88.667 21 170.667 63 246c50 89.333 116 134 198 134
c26 0 73.333 -16.333 142 -49c25.333 -12 47.333 -23 66 -33l15 19c7.33301 9.33301 15.333 19 24 29c13.333 15.333 22 23 26 23c20 -18 30 -37 30 -57c0 -11.333 -3 -22.666 -9 -33.999c-2.66699 -4.66699 -9.33398 -12.334 -20.001 -23.001
c26.667 -22.667 44.334 -40.167 53.001 -52.5s19.667 -35.166 33 -68.499l1 -1c10 -40 15 -76.333 15 -109c0 -109.333 -26.333 -197.333 -79 -264c-57.333 -73.333 -139.333 -110 -246 -110c-46 0 -98.333 19.333 -157 58c-15.333 10 -29.333 20 -42 30l-21 -30
c-23.333 -32.667 -42 -49 -56 -49c-16.667 0 -25.334 8.66699 -26.001 26c-0.666992 14.667 3.66602 31 12.999 49z" />
    <glyph glyph-name="Ugrave" unicode="&#xd9;" horiz-adv-x="637" 
d="M473 190c-25.333 -60.667 -50.999 -105.665 -76.999 -134.998c-37.333 -42 -82.333 -63 -135 -63c-68.667 0 -122 31.667 -160 95l-10 43c-14 60 -21 120.333 -21 181c0 75.333 4.66699 149 14 221c14 108 35.333 165.333 64 172c14 3.33301 26.333 5 37 5
s20.667 -2.33301 30 -7c12 -6 18 -13.667 18 -23c0 -42 -7.66699 -108.833 -23 -200.5s-23 -160.834 -23 -207.501c0 -42 4.66699 -84.667 14 -128c13.333 -62 32 -93 56 -93c30 0 65.333 39 106 117c56 106.667 90.333 206.667 103 300l18 145
c3.33301 26 10.666 43.667 21.999 53s30.333 14 57 14c27.333 0 41 -10 41 -30c0 -31.333 -5 -78.333 -15 -141s-15 -109.667 -15 -141c0 -96.667 5.33301 -170.334 16 -221.001c2 -8.66699 5.66699 -18 11 -28c8 -14 14.333 -20 19 -18c33.333 12.667 54 19 62 19
c24 0 36 -8 36 -24s-13.667 -32.333 -41 -49c-24.667 -14.667 -46 -22 -64 -22c-38 0 -65.667 9.33301 -83 28c-10.667 11.333 -20.667 33.333 -30 66c-11.333 37.333 -20.333 61.333 -27 72zM474.001 816.002h-69l-130 141h109z" />
    <glyph glyph-name="Uacute" unicode="&#xda;" horiz-adv-x="650" 
d="M473 190c-25.333 -60.667 -50.999 -105.665 -76.999 -134.998c-37.333 -42 -82.333 -63 -135 -63c-68.667 0 -122 31.667 -160 95l-10 43c-14 60 -21 120.333 -21 181c0 75.333 4.66699 149 14 221c14 108 35.333 165.333 64 172c14 3.33301 26.333 5 37 5
s20.667 -2.33301 30 -7c12 -6 18 -13.667 18 -23c0 -42 -7.66699 -108.833 -23 -200.5s-23 -160.834 -23 -207.501c0 -42 4.66699 -84.667 14 -128c13.333 -62 32 -93 56 -93c30 0 65.333 39 106 117c56 106.667 90.333 206.667 103 300l18 145
c3.33301 26 10.666 43.667 21.999 53s30.333 14 57 14c27.333 0 41 -10 41 -30c0 -31.333 -5 -78.333 -15 -141s-15 -109.667 -15 -141c0 -96.667 5.33301 -170.334 16 -221.001c2 -8.66699 5.66699 -18 11 -28c8 -14 14.333 -20 19 -18c33.333 12.667 54 19 62 19
c24 0 36 -8 36 -24s-13.667 -32.333 -41 -49c-24.667 -14.667 -46 -22 -64 -22c-38 0 -65.667 9.33301 -83 28c-10.667 11.333 -20.667 33.333 -30 66c-11.333 37.333 -20.333 61.333 -27 72zM472.001 956.002l-131 -141h-68l90 141h109z" />
    <glyph glyph-name="Ucircumflex" unicode="&#xdb;" horiz-adv-x="646" 
d="M473 190c-25.333 -60.667 -50.999 -105.665 -76.999 -134.998c-37.333 -42 -82.333 -63 -135 -63c-68.667 0 -122 31.667 -160 95l-10 43c-14 60 -21 120.333 -21 181c0 75.333 4.66699 149 14 221c14 108 35.333 165.333 64 172c14 3.33301 26.333 5 37 5
s20.667 -2.33301 30 -7c12 -6 18 -13.667 18 -23c0 -42 -7.66699 -108.833 -23 -200.5s-23 -160.834 -23 -207.501c0 -42 4.66699 -84.667 14 -128c13.333 -62 32 -93 56 -93c30 0 65.333 39 106 117c56 106.667 90.333 206.667 103 300l18 145
c3.33301 26 10.666 43.667 21.999 53s30.333 14 57 14c27.333 0 41 -10 41 -30c0 -31.333 -5 -78.333 -15 -141s-15 -109.667 -15 -141c0 -96.667 5.33301 -170.334 16 -221.001c2 -8.66699 5.66699 -18 11 -28c8 -14 14.333 -20 19 -18c33.333 12.667 54 19 62 19
c24 0 36 -8 36 -24s-13.667 -32.333 -41 -49c-24.667 -14.667 -46 -22 -64 -22c-38 0 -65.667 9.33301 -83 28c-10.667 11.333 -20.667 33.333 -30 66c-11.333 37.333 -20.333 61.333 -27 72zM539.001 815.002h-82l-65 92l-66 -92h-79l98 141h95z" />
    <glyph glyph-name="Udieresis" unicode="&#xdc;" horiz-adv-x="663" 
d="M473 190c-25.333 -60.667 -50.999 -105.665 -76.999 -134.998c-37.333 -42 -82.333 -63 -135 -63c-68.667 0 -122 31.667 -160 95l-10 43c-14 60 -21 120.333 -21 181c0 75.333 4.66699 149 14 221c14 108 35.333 165.333 64 172c14 3.33301 26.333 5 37 5
s20.667 -2.33301 30 -7c12 -6 18 -13.667 18 -23c0 -42 -7.66699 -108.833 -23 -200.5s-23 -160.834 -23 -207.501c0 -42 4.66699 -84.667 14 -128c13.333 -62 32 -93 56 -93c30 0 65.333 39 106 117c56 106.667 90.333 206.667 103 300l18 145
c3.33301 26 10.666 43.667 21.999 53s30.333 14 57 14c27.333 0 41 -10 41 -30c0 -31.333 -5 -78.333 -15 -141s-15 -109.667 -15 -141c0 -96.667 5.33301 -170.334 16 -221.001c2 -8.66699 5.66699 -18 11 -28c8 -14 14.333 -20 19 -18c33.333 12.667 54 19 62 19
c24 0 36 -8 36 -24s-13.667 -32.333 -41 -49c-24.667 -14.667 -46 -22 -64 -22c-38 0 -65.667 9.33301 -83 28c-10.667 11.333 -20.667 33.333 -30 66c-11.333 37.333 -20.333 61.333 -27 72zM499.001 816.002h-93v103h93v-103zM336.001 816.002h-92v103h92v-103z" />
    <glyph glyph-name="Yacute" unicode="&#xdd;" horiz-adv-x="655" 
d="M448 -252l-2.00098 109.997c-0.666992 29.333 1.33301 76.333 6 141c3.33301 48 5 95 5 141v26c-10.667 -12 -26 -35.333 -46 -70c-17.333 -29.333 -33.333 -50.333 -48 -63c-22 -18.667 -49.333 -28 -82 -28c-140.667 0 -211 99 -211 297c0 115.333 10 226 30 332
c5.33301 28.667 12 47.334 20 56.001c10.667 11.333 29.334 17 56.001 17c39.333 0 59 -7.33301 59 -22c0 -17.333 -5.33301 -45.666 -16 -84.999c-12.667 -47.333 -20 -76.333 -22 -87c-8 -46 -12 -127.667 -12 -245c0 -134 23.667 -201 71 -201c60 0 115 81.333 165 244
c38 123.333 60 232 66 326c1.33301 21.333 12.333 32 33 32h53c15.333 -6.66699 23 -17 23 -31c0 -20.667 -2.66699 -49.667 -8 -87c-5.33301 -41.333 -8.33301 -70.666 -9 -87.999l-14 -348c-5.33301 -132.667 -8 -248.667 -8 -348c0 -28 -14.667 -42 -44 -42
c-22 0 -43.667 7.66699 -65 23zM533.999 955.997l-131 -141h-68l90 141h109z" />
    <glyph glyph-name="Thorn" unicode="&#xde;" horiz-adv-x="583" 
d="M500 522c0 34 -28.333 59.001 -85 75.001c-40 11.333 -81.667 17 -125 17c-17.333 0 -35.333 -2.66699 -54 -8c-15.333 -86.667 -22 -179.334 -20 -278.001c48.667 2 94.667 13 138 33c46.667 21.333 83.667 50.333 111 87c23.333 31.333 35 56 35 74zM149 774.001
c0.666992 7.33301 2.00195 18.168 4.00195 32.501s8.33301 28.833 19 43.5c5.33301 7.33301 17.333 14 36 20s35 9 49 9c8 0 16.5 -6.33301 25.5 -19s13.5 -24 13.5 -34s-3.66699 -22.333 -11 -37c-6.66699 -11.333 -12.5 -22.5 -17.5 -33.5s-9.5 -25.167 -13.5 -42.5
c69.333 -4.66699 126.666 -14.334 171.999 -29.001c112.667 -36 169 -102.333 169 -199c0 -78 -47 -138 -141 -180c-73.333 -32.667 -155 -49 -245 -49c-6 -39.333 -9 -114 -9 -224c0 -18.667 -8.33301 -31 -25 -37c-9.33301 -3.33301 -26.333 -5 -51 -5
c-29.333 0 -44 23 -44 69c0 196.667 10.667 379.667 32 549c-12.667 -1.33301 -43.334 -8 -92.001 -20c-42.667 -10.667 -72.667 -16 -90 -16c-10 0 -20 5 -30 15s-15 20 -15 30c0 18.667 38.333 40.667 115 66c68.667 22.667 115 34 139 34v0c0.666992 12 4 31 10 57z" />
    <glyph glyph-name="germandbls" unicode="&#xdf;" horiz-adv-x="611" 
d="M572 232c0 -77.333 -22.1699 -137.83 -66.5029 -181.497s-105.166 -65.5 -182.499 -65.5c-20.667 0 -40 2.33301 -58 7v76c18.667 -2.66699 35 -4 49 -4c50 0 89.333 11.333 118 34c31.333 25.333 47 62.333 47 111c0 96.667 -55 145 -165 145
c-14 0 -28.667 -1.66699 -44 -5v80l40 -1c37.333 -0.666992 69 7.66602 95 24.999c28.667 20 43 48 43 84c0 39.333 -15.667 69 -47 89c-27.333 17.333 -61.666 26 -102.999 26c-62 0 -103 -17.333 -123 -52c-12.667 -22 -19 -46.667 -19 -74v-526h-89v542
c0 60 24.333 107 73 141c42.667 30 95.334 45 158.001 45c66 0 120.333 -13.333 163 -40c50.667 -32.667 76 -80 76 -142c0 -62.667 -27.333 -111.334 -82 -146.001c36 -12 64.5 -33.333 85.5 -64s31.5 -65.334 31.5 -104.001z" />
    <glyph glyph-name="agrave" unicode="&#xe0;" horiz-adv-x="476" 
d="M357 350l11 3.00098c24.667 0 39 -5.66699 43 -17c-17.333 -47.333 -26 -92.333 -26 -135v-83c0 -30 9.66699 -45 29 -45c12 0 29 9.5 51 28.5s35 28.5 39 28.5c12 0 18 -6 18 -18c0 -24 -10.5 -45.833 -31.5 -65.5s-43.5 -29.5 -67.5 -29.5
c-52.667 0 -89.667 21 -111 63l-52 -61c-20 -18 -44 -27 -72 -27c-57.333 0 -98.333 13.333 -123 40s-37 69 -37 127c0 55.333 12 110.666 36 165.999c30 69.333 69 104 117 104c86 0 144.667 -26.333 176 -79zM142 122.001c0 -49.333 9.33301 -73.999 28 -73.999
c11.333 0 22 6.66699 32 20c34.667 47.333 55.667 81.333 63 102c4.66699 13.333 12 52.666 22 117.999c4 26 6 38 6 36c0 10 -4.66699 18.333 -14 25s-19.333 10 -30 10c-36.667 0 -65 -31.667 -85 -95c-14.667 -46.667 -22 -94 -22 -142zM351 472.002h-69l-130 141h109z
" />
    <glyph glyph-name="aacute" unicode="&#xe1;" horiz-adv-x="482" 
d="M357 350l11 3.00098c24.667 0 39 -5.66699 43 -17c-17.333 -47.333 -26 -92.333 -26 -135v-83c0 -30 9.66699 -45 29 -45c12 0 29 9.5 51 28.5s35 28.5 39 28.5c12 0 18 -6 18 -18c0 -24 -10.5 -45.833 -31.5 -65.5s-43.5 -29.5 -67.5 -29.5
c-52.667 0 -89.667 21 -111 63l-52 -61c-20 -18 -44 -27 -72 -27c-57.333 0 -98.333 13.333 -123 40s-37 69 -37 127c0 55.333 12 110.666 36 165.999c30 69.333 69 104 117 104c86 0 144.667 -26.333 176 -79zM142 122.001c0 -49.333 9.33301 -73.999 28 -73.999
c11.333 0 22 6.66699 32 20c34.667 47.333 55.667 81.333 63 102c4.66699 13.333 12 52.666 22 117.999c4 26 6 38 6 36c0 10 -4.66699 18.333 -14 25s-19.333 10 -30 10c-36.667 0 -65 -31.667 -85 -95c-14.667 -46.667 -22 -94 -22 -142zM369 610.002l-131 -141h-68
l90 141h109z" />
    <glyph glyph-name="acircumflex" unicode="&#xe2;" horiz-adv-x="470" 
d="M357 350l11 3.00098c24.667 0 39 -5.66699 43 -17c-17.333 -47.333 -26 -92.333 -26 -135v-83c0 -30 9.66699 -45 29 -45c12 0 29 9.5 51 28.5s35 28.5 39 28.5c12 0 18 -6 18 -18c0 -24 -10.5 -45.833 -31.5 -65.5s-43.5 -29.5 -67.5 -29.5
c-52.667 0 -89.667 21 -111 63l-52 -61c-20 -18 -44 -27 -72 -27c-57.333 0 -98.333 13.333 -123 40s-37 69 -37 127c0 55.333 12 110.666 36 165.999c30 69.333 69 104 117 104c86 0 144.667 -26.333 176 -79zM142 122.001c0 -49.333 9.33301 -73.999 28 -73.999
c11.333 0 22 6.66699 32 20c34.667 47.333 55.667 81.333 63 102c4.66699 13.333 12 52.666 22 117.999c4 26 6 38 6 36c0 10 -4.66699 18.333 -14 25s-19.333 10 -30 10c-36.667 0 -65 -31.667 -85 -95c-14.667 -46.667 -22 -94 -22 -142zM397 472.002h-82l-65 92l-66 -92
h-79l98 141h95z" />
    <glyph glyph-name="atilde" unicode="&#xe3;" horiz-adv-x="473" 
d="M357 350l11 3.00098c24.667 0 39 -5.66699 43 -17c-17.333 -47.333 -26 -92.333 -26 -135v-83c0 -30 9.66699 -45 29 -45c12 0 29 9.5 51 28.5s35 28.5 39 28.5c12 0 18 -6 18 -18c0 -24 -10.5 -45.833 -31.5 -65.5s-43.5 -29.5 -67.5 -29.5
c-52.667 0 -89.667 21 -111 63l-52 -61c-20 -18 -44 -27 -72 -27c-57.333 0 -98.333 13.333 -123 40s-37 69 -37 127c0 55.333 12 110.666 36 165.999c30 69.333 69 104 117 104c86 0 144.667 -26.333 176 -79zM142 122.001c0 -49.333 9.33301 -73.999 28 -73.999
c11.333 0 22 6.66699 32 20c34.667 47.333 55.667 81.333 63 102c4.66699 13.333 12 52.666 22 117.999c4 26 6 38 6 36c0 10 -4.66699 18.333 -14 25s-19.333 10 -30 10c-36.667 0 -65 -31.667 -85 -95c-14.667 -46.667 -22 -94 -22 -142zM449 585.002
c-10 -72.667 -44 -109 -102 -109c-14 0 -27 2 -39 6l-79 26c-10 3.33301 -18.667 5 -26 5c-22 0 -37.667 -15 -47 -45h-49c7.33301 36.667 17.333 62.667 30 78c16.667 20 41.667 30 75 30c16.667 0 34 -3.33301 52 -10l64 -24l22 -3c26 0 41.667 15.333 47 46h52z" />
    <glyph glyph-name="adieresis" unicode="&#xe4;" horiz-adv-x="473" 
d="M357 350l11 3.00098c24.667 0 39 -5.66699 43 -17c-17.333 -47.333 -26 -92.333 -26 -135v-83c0 -30 9.66699 -45 29 -45c12 0 29 9.5 51 28.5s35 28.5 39 28.5c12 0 18 -6 18 -18c0 -24 -10.5 -45.833 -31.5 -65.5s-43.5 -29.5 -67.5 -29.5
c-52.667 0 -89.667 21 -111 63l-52 -61c-20 -18 -44 -27 -72 -27c-57.333 0 -98.333 13.333 -123 40s-37 69 -37 127c0 55.333 12 110.666 36 165.999c30 69.333 69 104 117 104c86 0 144.667 -26.333 176 -79zM142 122.001c0 -49.333 9.33301 -73.999 28 -73.999
c11.333 0 22 6.66699 32 20c34.667 47.333 55.667 81.333 63 102c4.66699 13.333 12 52.666 22 117.999c4 26 6 38 6 36c0 10 -4.66699 18.333 -14 25s-19.333 10 -30 10c-36.667 0 -65 -31.667 -85 -95c-14.667 -46.667 -22 -94 -22 -142zM399 471.002h-93v103h93v-103z
M236 471.002h-92v103h92v-103z" />
    <glyph glyph-name="aring" unicode="&#xe5;" horiz-adv-x="467" 
d="M357 350l11 3.00098c24.667 0 39 -5.66699 43 -17c-17.333 -47.333 -26 -92.333 -26 -135v-83c0 -30 9.66699 -45 29 -45c12 0 29 9.5 51 28.5s35 28.5 39 28.5c12 0 18 -6 18 -18c0 -24 -10.5 -45.833 -31.5 -65.5s-43.5 -29.5 -67.5 -29.5
c-52.667 0 -89.667 21 -111 63l-52 -61c-20 -18 -44 -27 -72 -27c-57.333 0 -98.333 13.333 -123 40s-37 69 -37 127c0 55.333 12 110.666 36 165.999c30 69.333 69 104 117 104c86 0 144.667 -26.333 176 -79zM142 122.001c0 -49.333 9.33301 -73.999 28 -73.999
c11.333 0 22 6.66699 32 20c34.667 47.333 55.667 81.333 63 102c4.66699 13.333 12 52.666 22 117.999c4 26 6 38 6 36c0 10 -4.66699 18.333 -14 25s-19.333 10 -30 10c-36.667 0 -65 -31.667 -85 -95c-14.667 -46.667 -22 -94 -22 -142zM392 562.002
c0 -26 -8.83301 -48.001 -26.5 -66.001s-39.5 -27 -65.5 -27c-26.667 0 -49 8.83301 -67 26.5s-27 39.834 -27 66.501c0 26 8.66699 47.833 26 65.5s39 26.5 65 26.5c27.333 0 50 -8.5 68 -25.5s27 -39.167 27 -66.5zM350 562.001c0 14 -5 26 -15 36s-22 15 -36 15
c-15.333 0 -27.833 -4.83301 -37.5 -14.5s-14.5 -22.167 -14.5 -37.5c0 -14 4.83301 -26 14.5 -36s21.5 -15 35.5 -15c35.333 0 53 17.333 53 52z" />
    <glyph glyph-name="ae" unicode="&#xe6;" horiz-adv-x="641" 
d="M142 122c0 -49.333 9.33301 -73.999 28 -73.999c11.333 0 22 6.66699 32 20c34.667 47.333 55.667 81.333 63 102c4.66699 13.333 12 52.666 22 117.999c4 26 6 38 6 36c0 10 -4.66699 18.333 -14 25s-19.333 10 -30 10c-36.667 0 -65 -31.667 -85 -95
c-14.667 -46.667 -22 -94 -22 -142zM404 154.001l-2.99902 -21.998c0 -24.667 3 -42.334 9 -53.001c8 -14.667 23.333 -22 46 -22c52.667 0 112.667 29 180 87c11.333 10 23.333 20 36 30c17.333 0 26 -9.66699 26 -29c0 -34.667 -29.667 -70 -89 -106
c-54.667 -33.333 -100.667 -50 -138 -50c-22.667 0 -54.667 11.333 -96 34c-26.667 14.667 -46 34 -58 58l-57 -62c-20 -18 -44 -27 -72 -27c-57.333 0 -98.333 13.333 -123 40s-37 69 -37 127c0 55.333 12 110.666 36 165.999c30 69.333 69 104 117 104
c64 0 114.333 -16.333 151 -49c18.667 42 44 63 76 63c43.333 0 87.666 -13.667 132.999 -41c50.667 -30.667 76 -66.667 76 -108c0 -44 -25.667 -80 -77 -108c-44.667 -24 -90 -34.667 -136 -32zM525.001 323.003c0 30 -13 45 -39 45c-23.333 0 -43 -21 -59 -63
c-12 -32 -18 -62.333 -18 -91c30.667 0 57.667 10.5 81 31.5s35 46.833 35 77.5z" />
    <glyph glyph-name="ccedilla" unicode="&#xe7;" horiz-adv-x="420" 
d="M220 351c-5.33301 3.33301 -10.6689 5.00391 -16.002 5.00391c-17.333 0 -32.666 -22.667 -45.999 -68c-10.667 -36.667 -16 -68.334 -16 -95.001c0 -41.333 1.66699 -70.333 5 -87c7.33301 -36.667 24 -55 50 -55c24.667 0 57 8 97 24c30.667 12 62 26.667 94 44
c28.667 16 41 24 37 24c11.333 0 17 -8 17 -24c0 -26.667 -28 -55.667 -84 -87c-41.333 -23.333 -76.333 -37 -105 -41l-25 -33c14 3.33301 25.333 5 34 5c22.667 0 41.834 -6.83301 57.501 -20.5s23.5 -31.834 23.5 -54.501c0 -30.667 -12.333 -54.334 -37 -71.001
c-22 -14.667 -49 -22 -81 -22c-32.667 0 -65 7.66699 -97 23l18 40c24.667 -10.667 46.667 -16 66 -16c36 0 54 13.667 54 41c0 11.333 -4.33301 20.833 -13 28.5s-18.667 11.5 -30 11.5c-8 0 -18.667 -1.66699 -32 -5l-12 -3l-16 20l41 55c-53.333 6 -96 25.667 -128 59
s-48 76.666 -48 129.999c0 54 8.33301 105.667 25 155c23.333 69.333 57 104 101 104c52 0 96.5 -17.333 133.5 -52s55.5 -78 55.5 -130c0 -59.333 -16.667 -89 -50 -89c-52.667 0 -79 40.333 -79 121c0 20.667 2 41.667 6 63z" />
    <glyph glyph-name="egrave" unicode="&#xe8;" horiz-adv-x="370" 
d="M134 154l-3 -21.9971c0 -24.667 3 -42.334 9 -53.001c8 -14.667 23.333 -22 46 -22c52.667 0 112.667 29 180 87c11.333 10 23.333 20 36 30c17.333 0 26 -9.66699 26 -29c0 -34.667 -29.667 -70 -89 -106c-54.667 -33.333 -100.667 -50 -138 -50
c-22.667 0 -54.667 11.333 -96 34c-31.333 17.333 -52.666 40.666 -63.999 69.999c-8.66699 22.667 -13 54.667 -13 96c0 53.333 6.66699 103.666 20 150.999c19.333 68.667 49.333 103 90 103c43.333 0 87.666 -13.667 132.999 -41c50.667 -30.667 76 -66.667 76 -108
c0 -44 -25.667 -80 -77 -108c-44.667 -24 -90 -34.667 -136 -32zM255 323.003c0 30 -13 45 -39 45c-23.333 0 -43 -21 -59 -63c-12 -32 -18 -62.333 -18 -91c30.667 0 57.667 10.5 81 31.5s35 46.833 35 77.5zM331 474.003h-69l-130 141h109z" />
    <glyph glyph-name="eacute" unicode="&#xe9;" horiz-adv-x="385" 
d="M134 154l-3 -21.9971c0 -24.667 3 -42.334 9 -53.001c8 -14.667 23.333 -22 46 -22c52.667 0 112.667 29 180 87c11.333 10 23.333 20 36 30c17.333 0 26 -9.66699 26 -29c0 -34.667 -29.667 -70 -89 -106c-54.667 -33.333 -100.667 -50 -138 -50
c-22.667 0 -54.667 11.333 -96 34c-31.333 17.333 -52.666 40.666 -63.999 69.999c-8.66699 22.667 -13 54.667 -13 96c0 53.333 6.66699 103.666 20 150.999c19.333 68.667 49.333 103 90 103c43.333 0 87.666 -13.667 132.999 -41c50.667 -30.667 76 -66.667 76 -108
c0 -44 -25.667 -80 -77 -108c-44.667 -24 -90 -34.667 -136 -32zM255 323.003c0 30 -13 45 -39 45c-23.333 0 -43 -21 -59 -63c-12 -32 -18 -62.333 -18 -91c30.667 0 57.667 10.5 81 31.5s35 46.833 35 77.5zM353 615.003l-131 -141h-68l90 141h109z" />
    <glyph glyph-name="ecircumflex" unicode="&#xea;" horiz-adv-x="382" 
d="M134 154l-3 -21.9971c0 -24.667 3 -42.334 9 -53.001c8 -14.667 23.333 -22 46 -22c52.667 0 112.667 29 180 87c11.333 10 23.333 20 36 30c17.333 0 26 -9.66699 26 -29c0 -34.667 -29.667 -70 -89 -106c-54.667 -33.333 -100.667 -50 -138 -50
c-22.667 0 -54.667 11.333 -96 34c-31.333 17.333 -52.666 40.666 -63.999 69.999c-8.66699 22.667 -13 54.667 -13 96c0 53.333 6.66699 103.666 20 150.999c19.333 68.667 49.333 103 90 103c43.333 0 87.666 -13.667 132.999 -41c50.667 -30.667 76 -66.667 76 -108
c0 -44 -25.667 -80 -77 -108c-44.667 -24 -90 -34.667 -136 -32zM255 323.003c0 30 -13 45 -39 45c-23.333 0 -43 -21 -59 -63c-12 -32 -18 -62.333 -18 -91c30.667 0 57.667 10.5 81 31.5s35 46.833 35 77.5zM374 474.003h-82l-65 92l-66 -92h-79l98 141h95z" />
    <glyph glyph-name="edieresis" unicode="&#xeb;" horiz-adv-x="373" 
d="M134 154l-3 -21.9971c0 -24.667 3 -42.334 9 -53.001c8 -14.667 23.333 -22 46 -22c52.667 0 112.667 29 180 87c11.333 10 23.333 20 36 30c17.333 0 26 -9.66699 26 -29c0 -34.667 -29.667 -70 -89 -106c-54.667 -33.333 -100.667 -50 -138 -50
c-22.667 0 -54.667 11.333 -96 34c-31.333 17.333 -52.666 40.666 -63.999 69.999c-8.66699 22.667 -13 54.667 -13 96c0 53.333 6.66699 103.666 20 150.999c19.333 68.667 49.333 103 90 103c43.333 0 87.666 -13.667 132.999 -41c50.667 -30.667 76 -66.667 76 -108
c0 -44 -25.667 -80 -77 -108c-44.667 -24 -90 -34.667 -136 -32zM255 323.003c0 30 -13 45 -39 45c-23.333 0 -43 -21 -59 -63c-12 -32 -18 -62.333 -18 -91c30.667 0 57.667 10.5 81 31.5s35 46.833 35 77.5zM317 473.003h-93v103h93v-103zM154 473.003h-92v103h92v-103z
" />
    <glyph glyph-name="igrave" unicode="&#xec;" horiz-adv-x="278" 
d="M55 168c0.666992 8 2.33301 26.6689 5 56.002c0.666992 13.333 1.83398 33.166 3.50098 59.499s7.66699 45.333 18 57s28.166 17.5 53.499 17.5c23.333 0 37.333 -5.66699 42 -17c-11.333 -52.667 -17 -125.334 -17 -218.001c0 -47.333 8.66699 -71 26 -71
c6 0 25 8.16699 57 24.5s53.333 24.5 64 24.5s16 -6.33301 16 -19c0 -10.667 -9.66699 -24.667 -29 -42c-22.667 -20.667 -39.667 -33.667 -51 -39c-16.667 -8 -38 -12 -64 -12c-50 0 -84.667 18.667 -104 56c-13.333 26.667 -20 67.667 -20 123zM208.999 473.002h-69
l-130 141h109z" />
    <glyph glyph-name="iacute" unicode="&#xed;" horiz-adv-x="278" 
d="M55 168c0.666992 8 2.33301 26.6689 5 56.002c0.666992 13.333 1.83398 33.166 3.50098 59.499s7.66699 45.333 18 57s28.166 17.5 53.499 17.5c23.333 0 37.333 -5.66699 42 -17c-11.333 -52.667 -17 -125.334 -17 -218.001c0 -47.333 8.66699 -71 26 -71
c6 0 25 8.16699 57 24.5s53.333 24.5 64 24.5s16 -6.33301 16 -19c0 -10.667 -9.66699 -24.667 -29 -42c-22.667 -20.667 -39.667 -33.667 -51 -39c-16.667 -8 -38 -12 -64 -12c-50 0 -84.667 18.667 -104 56c-13.333 26.667 -20 67.667 -20 123zM272.999 616.002l-131 -141
h-68l90 141h109z" />
    <glyph glyph-name="icircumflex" unicode="&#xee;" horiz-adv-x="278" 
d="M55 168c0.666992 8 2.33301 26.6689 5 56.002c0.666992 13.333 1.83398 33.166 3.50098 59.499s7.66699 45.333 18 57s28.166 17.5 53.499 17.5c23.333 0 37.333 -5.66699 42 -17c-11.333 -52.667 -17 -125.334 -17 -218.001c0 -47.333 8.66699 -71 26 -71
c6 0 25 8.16699 57 24.5s53.333 24.5 64 24.5s16 -6.33301 16 -19c0 -10.667 -9.66699 -24.667 -29 -42c-22.667 -20.667 -39.667 -33.667 -51 -39c-16.667 -8 -38 -12 -64 -12c-50 0 -84.667 18.667 -104 56c-13.333 26.667 -20 67.667 -20 123zM286.999 472.002h-82
l-65 92l-66 -92h-79l98 141h95z" />
    <glyph glyph-name="idieresis" unicode="&#xef;" horiz-adv-x="278" 
d="M55 168c0.666992 8 2.33301 26.6689 5 56.002c0.666992 13.333 1.83398 33.166 3.50098 59.499s7.66699 45.333 18 57s28.166 17.5 53.499 17.5c23.333 0 37.333 -5.66699 42 -17c-11.333 -52.667 -17 -125.334 -17 -218.001c0 -47.333 8.66699 -71 26 -71
c6 0 25 8.16699 57 24.5s53.333 24.5 64 24.5s16 -6.33301 16 -19c0 -10.667 -9.66699 -24.667 -29 -42c-22.667 -20.667 -39.667 -33.667 -51 -39c-16.667 -8 -38 -12 -64 -12c-50 0 -84.667 18.667 -104 56c-13.333 26.667 -20 67.667 -20 123zM270.999 473.002h-93v103
h93v-103zM107.999 473.002h-92v103h92v-103z" />
    <glyph glyph-name="eth" unicode="&#xf0;" horiz-adv-x="556" 
d="M522 292c0 -87.333 -17.999 -157.999 -53.999 -211.999c-42 -63.333 -104.333 -95 -187 -95c-74.667 0 -135 26.333 -181 79c-43.333 50 -65 113 -65 189c0 74.667 19.667 137 59 187c43.333 55.333 101 83 173 83c52.667 0 96 -18 130 -54
c-20 52 -56.333 99.333 -109 142l-124 -62l-43 43l119 57c-27.333 19.333 -46 31.333 -56 36l-33 16l75 36c36 -16 66 -33 90 -51l106 51l48 -40l-107 -51c35.333 -34.667 60.666 -62.334 75.999 -83.001c18.667 -26.667 36 -60 52 -100c20.667 -52.667 31 -109.667 31 -171
zM429.001 254.001c0 52.667 -11.668 96.666 -35.001 131.999c-27.333 40.667 -66 61 -116 61c-49.333 0 -87.666 -20.333 -114.999 -61c-24 -35.333 -36 -79 -36 -131c0 -53.333 11.667 -97.666 35 -132.999c27.333 -40.667 66.333 -61 117 -61
c48.667 0 86.667 20.667 114 62c24 36 36 79.667 36 131z" />
    <glyph glyph-name="ntilde" unicode="&#xf1;" horiz-adv-x="483" 
d="M166 300c23.333 38 36.333 58.3379 39 61.0049c19.333 24.667 39 37 59 37c40.667 0 75.667 -12.667 105 -38c30.667 -27.333 46 -61 46 -101c0 -12.667 -1.66699 -31.834 -5 -57.501s-5 -44.834 -5 -57.501c0 -36 10.333 -54 31 -54c8 0 22.167 5.5 42.5 16.5
s34.166 16.5 41.499 16.5c13.333 0 20 -8.66699 20 -26c0 -19.333 -15.333 -37 -46 -53c-27.333 -14.667 -51.666 -22 -72.999 -22c-42.667 0 -73.167 10.333 -91.5 31s-27.5 52.667 -27.5 96c0 13.333 1 33.666 3 60.999s3 47.666 3 60.999c0 18 -5.33301 33 -16 45
c-32 -2 -58 -30.667 -78 -86l-39 -153c-13.333 -54 -28 -81 -44 -81c-50 0 -75 24 -75 72c0 20 1 45 3 75l5 75c0.666992 10 1 50.333 1 121c6 59.333 23.333 89 52 89c38.667 0 58 -10.333 58 -31c0 -8 -1.83301 -20.333 -5.5 -37s-5.16699 -29.334 -4.5 -38.001z
M444 585.005c-10 -72.667 -44 -109 -102 -109c-14 0 -27 2 -39 6l-79 26c-10 3.33301 -18.667 5 -26 5c-22 0 -37.667 -15 -47 -45h-49c7.33301 36.667 17.333 62.667 30 78c16.667 20 41.667 30 75 30c16.667 0 34 -3.33301 52 -10l64 -24l22 -3c26 0 41.667 15.333 47 46
h52z" />
    <glyph glyph-name="ograve" unicode="&#xf2;" horiz-adv-x="436" 
d="M369 235l4.00195 0.000976562c18.667 0 36.5 21.167 53.5 63.5s31.5 63.5 43.5 63.5c15.333 0 23 -12 23 -36c0 -36.667 -12.333 -73 -37 -109c-26 -39.333 -56.333 -61.333 -91 -66c-14 -56.667 -28 -94.667 -42 -114c-22.667 -31.333 -58.667 -47 -108 -47
c-60.667 0 -107.667 21.667 -141 65c-30.667 39.333 -46 90.333 -46 153c0 24.667 2 43.667 6 57l8 26c11.333 36.667 27.333 67.667 48 93c26.667 32.667 56 49 88 49c41.333 0 82.666 -22.333 123.999 -67s63.666 -88.334 66.999 -131.001zM133.002 168.001
c0 -28.667 4.33203 -53.668 12.999 -75.001c12 -30 30 -45 54 -45c20.667 0 40.334 18.333 59.001 55c16 32 24 59 24 81c0 4 -9 24.333 -27 61s-27 67.334 -27 92.001c-7.33301 3.33301 -14 5 -20 5c-22.667 0 -41.667 -24 -57 -72c-12.667 -39.333 -19 -73.333 -19 -102z
M314.001 474h-69l-130 141h109z" />
    <glyph glyph-name="oacute" unicode="&#xf3;" horiz-adv-x="445" 
d="M369 235l4.00195 0.000976562c18.667 0 36.5 21.167 53.5 63.5s31.5 63.5 43.5 63.5c15.333 0 23 -12 23 -36c0 -36.667 -12.333 -73 -37 -109c-26 -39.333 -56.333 -61.333 -91 -66c-14 -56.667 -28 -94.667 -42 -114c-22.667 -31.333 -58.667 -47 -108 -47
c-60.667 0 -107.667 21.667 -141 65c-30.667 39.333 -46 90.333 -46 153c0 24.667 2 43.667 6 57l8 26c11.333 36.667 27.333 67.667 48 93c26.667 32.667 56 49 88 49c41.333 0 82.666 -22.333 123.999 -67s63.666 -88.334 66.999 -131.001zM133.002 168.001
c0 -28.667 4.33203 -53.668 12.999 -75.001c12 -30 30 -45 54 -45c20.667 0 40.334 18.333 59.001 55c16 32 24 59 24 81c0 4 -9 24.333 -27 61s-27 67.334 -27 92.001c-7.33301 3.33301 -14 5 -20 5c-22.667 0 -41.667 -24 -57 -72c-12.667 -39.333 -19 -73.333 -19 -102z
M313.001 615l-131 -141h-68l90 141h109z" />
    <glyph glyph-name="ocircumflex" unicode="&#xf4;" horiz-adv-x="442" 
d="M369 235l4.00195 0.000976562c18.667 0 36.5 21.167 53.5 63.5s31.5 63.5 43.5 63.5c15.333 0 23 -12 23 -36c0 -36.667 -12.333 -73 -37 -109c-26 -39.333 -56.333 -61.333 -91 -66c-14 -56.667 -28 -94.667 -42 -114c-22.667 -31.333 -58.667 -47 -108 -47
c-60.667 0 -107.667 21.667 -141 65c-30.667 39.333 -46 90.333 -46 153c0 24.667 2 43.667 6 57l8 26c11.333 36.667 27.333 67.667 48 93c26.667 32.667 56 49 88 49c41.333 0 82.666 -22.333 123.999 -67s63.666 -88.334 66.999 -131.001zM133.002 168.001
c0 -28.667 4.33203 -53.668 12.999 -75.001c12 -30 30 -45 54 -45c20.667 0 40.334 18.333 59.001 55c16 32 24 59 24 81c0 4 -9 24.333 -27 61s-27 67.334 -27 92.001c-7.33301 3.33301 -14 5 -20 5c-22.667 0 -41.667 -24 -57 -72c-12.667 -39.333 -19 -73.333 -19 -102z
M332.001 474h-82l-65 92l-66 -92h-79l98 141h95z" />
    <glyph glyph-name="otilde" unicode="&#xf5;" horiz-adv-x="442" 
d="M369 235l4.00195 0.000976562c18.667 0 36.5 21.167 53.5 63.5s31.5 63.5 43.5 63.5c15.333 0 23 -12 23 -36c0 -36.667 -12.333 -73 -37 -109c-26 -39.333 -56.333 -61.333 -91 -66c-14 -56.667 -28 -94.667 -42 -114c-22.667 -31.333 -58.667 -47 -108 -47
c-60.667 0 -107.667 21.667 -141 65c-30.667 39.333 -46 90.333 -46 153c0 24.667 2 43.667 6 57l8 26c11.333 36.667 27.333 67.667 48 93c26.667 32.667 56 49 88 49c41.333 0 82.666 -22.333 123.999 -67s63.666 -88.334 66.999 -131.001zM133.002 168.001
c0 -28.667 4.33203 -53.668 12.999 -75.001c12 -30 30 -45 54 -45c20.667 0 40.334 18.333 59.001 55c16 32 24 59 24 81c0 4 -9 24.333 -27 61s-27 67.334 -27 92.001c-7.33301 3.33301 -14 5 -20 5c-22.667 0 -41.667 -24 -57 -72c-12.667 -39.333 -19 -73.333 -19 -102z
M401.001 581c-10 -72.667 -44 -109 -102 -109c-14 0 -27 2 -39 6l-79 26c-10 3.33301 -18.667 5 -26 5c-22 0 -37.667 -15 -47 -45h-49c7.33301 36.667 17.333 62.667 30 78c16.667 20 41.667 30 75 30c16.667 0 34 -3.33301 52 -10l64 -24l22 -3c26 0 41.667 15.333 47 46
h52z" />
    <glyph glyph-name="odieresis" unicode="&#xf6;" horiz-adv-x="436" 
d="M369 235l4.00195 0.000976562c18.667 0 36.5 21.167 53.5 63.5s31.5 63.5 43.5 63.5c15.333 0 23 -12 23 -36c0 -36.667 -12.333 -73 -37 -109c-26 -39.333 -56.333 -61.333 -91 -66c-14 -56.667 -28 -94.667 -42 -114c-22.667 -31.333 -58.667 -47 -108 -47
c-60.667 0 -107.667 21.667 -141 65c-30.667 39.333 -46 90.333 -46 153c0 24.667 2 43.667 6 57l8 26c11.333 36.667 27.333 67.667 48 93c26.667 32.667 56 49 88 49c41.333 0 82.666 -22.333 123.999 -67s63.666 -88.334 66.999 -131.001zM133.002 168.001
c0 -28.667 4.33203 -53.668 12.999 -75.001c12 -30 30 -45 54 -45c20.667 0 40.334 18.333 59.001 55c16 32 24 59 24 81c0 4 -9 24.333 -27 61s-27 67.334 -27 92.001c-7.33301 3.33301 -14 5 -20 5c-22.667 0 -41.667 -24 -57 -72c-12.667 -39.333 -19 -73.333 -19 -102z
M322.001 473h-93v103h93v-103zM159.001 473h-92v103h92v-103z" />
    <glyph glyph-name="divide" unicode="&#xf7;" horiz-adv-x="503" 
d="M477 213c2 6 3.00098 12.001 3.00098 18.001c0 27.333 -20 44.333 -60 51c-16 2.66699 -51.667 4 -107 4h-14c-56 0 -123.333 -3 -202 -9c-44.667 -3.33301 -69.334 -8.33301 -74.001 -15s-7 -16.334 -7 -29.001c0 -31.333 21 -47 63 -47c10.667 0 26.667 0.666992 48 2
s37.333 2 48 2h123c116 0 175.667 7.66699 179 23zM204.001 394.001c0 16 5.83301 32.333 17.5 49s25.167 25 40.5 25c24 0 36 -24.667 36 -74c0 -16.667 -3.66699 -31.667 -11 -45c-8.66699 -16.667 -20.667 -24.667 -36 -24c-21.333 0.666992 -35 7.66699 -41 21
c-4 8.66699 -6 24.667 -6 48zM204.001 73.001c0 16 5.83301 32.167 17.5 48.5s25.167 24.5 40.5 24.5c24 0 36 -24.333 36 -73c0 -16.667 -3.66699 -31.667 -11 -45c-8.66699 -16.667 -20.667 -24.667 -36 -24c-21.333 0.666992 -35 7.66699 -41 21
c-4 8.66699 -6 24.667 -6 48z" />
    <glyph glyph-name="oslash" unicode="&#xf8;" horiz-adv-x="611" 
d="M538 519l-69.999 -78c35.333 -51.333 53 -111 53 -179c0 -78 -20.667 -142.667 -62 -194c-44.667 -54.667 -105.334 -82 -182.001 -82c-63.333 0 -116 20 -158 60l-60 -68l-32 26l64 72c-37.333 55.333 -56 117.333 -56 186c0 79.333 20.667 144.333 62 195
c44.667 54 105.667 81 183 81c62.667 0 116.667 -21.333 162 -64l63 71zM387.001 410c-32 34.667 -68 51.999 -108 51.999c-52 0 -91.333 -21 -118 -63c-22.667 -35.333 -34 -80.666 -34 -135.999c0 -28 1.33301 -48.333 4 -61c2.66699 -14.667 9.66699 -33.667 21 -57z
M429.001 263.999c0 40 -7.00098 76 -21.001 108l-233 -264c27.333 -30 61.333 -45 102 -45c52.667 0 92.334 21.333 119.001 64c22 35.333 33 81 33 137z" />
    <glyph glyph-name="ugrave" unicode="&#xf9;" horiz-adv-x="500" 
d="M176 54c25.333 22.667 49.6689 60.001 73.002 112.001c21.333 46.667 35 89.667 41 129c5.33301 34 10.666 54.667 15.999 62c9.33301 13.333 28.666 20 57.999 20c30 0 45 -14 45 -42c0 -6.66699 -5.33301 -27 -16 -61c-2.66699 -8.66699 -4 -49.334 -4 -122.001
c0 -15.333 2.66699 -31.333 8 -48c6.66699 -22 16 -33 28 -33c7.33301 0 22.333 9.33301 45 28s38.667 28 48 28c14 0 21 -6.66699 21 -20c0 -20 -17.5 -41.667 -52.5 -65s-63.167 -35 -84.5 -35c-28 0 -50.667 10 -68 30c-8.66699 10.667 -21.667 32.667 -39 66
c-11.333 -30.667 -22 -53.667 -32 -69c-17.333 -26.667 -37 -40 -59 -40c-68.667 0 -112.667 21 -132 63c-11.333 24.667 -17 78.667 -17 162c0 17.333 2.16699 43.333 6.5 78s6.5 60.834 6.5 78.501s2.5 30.667 7.5 39s16.167 12.5 33.5 12.5c12.667 0 26 -1.66699 40 -5
c20 -4.66699 29.333 -11 28 -19c-11.333 -64.667 -17 -125.334 -17 -182.001v-60c0 -48 5.33301 -83.667 16 -107zM348.003 475.001h-69l-130 141h109z" />
    <glyph glyph-name="uacute" unicode="&#xfa;" horiz-adv-x="483" 
d="M176 54c25.333 22.667 49.6689 60.001 73.002 112.001c21.333 46.667 35 89.667 41 129c5.33301 34 10.666 54.667 15.999 62c9.33301 13.333 28.666 20 57.999 20c30 0 45 -14 45 -42c0 -6.66699 -5.33301 -27 -16 -61c-2.66699 -8.66699 -4 -49.334 -4 -122.001
c0 -15.333 2.66699 -31.333 8 -48c6.66699 -22 16 -33 28 -33c7.33301 0 22.333 9.33301 45 28s38.667 28 48 28c14 0 21 -6.66699 21 -20c0 -20 -17.5 -41.667 -52.5 -65s-63.167 -35 -84.5 -35c-28 0 -50.667 10 -68 30c-8.66699 10.667 -21.667 32.667 -39 66
c-11.333 -30.667 -22 -53.667 -32 -69c-17.333 -26.667 -37 -40 -59 -40c-68.667 0 -112.667 21 -132 63c-11.333 24.667 -17 78.667 -17 162c0 17.333 2.16699 43.333 6.5 78s6.5 60.834 6.5 78.501s2.5 30.667 7.5 39s16.167 12.5 33.5 12.5c12.667 0 26 -1.66699 40 -5
c20 -4.66699 29.333 -11 28 -19c-11.333 -64.667 -17 -125.334 -17 -182.001v-60c0 -48 5.33301 -83.667 16 -107zM345.003 613.001l-131 -141h-68l90 141h109z" />
    <glyph glyph-name="ucircumflex" unicode="&#xfb;" horiz-adv-x="483" 
d="M176 54c25.333 22.667 49.6689 60.001 73.002 112.001c21.333 46.667 35 89.667 41 129c5.33301 34 10.666 54.667 15.999 62c9.33301 13.333 28.666 20 57.999 20c30 0 45 -14 45 -42c0 -6.66699 -5.33301 -27 -16 -61c-2.66699 -8.66699 -4 -49.334 -4 -122.001
c0 -15.333 2.66699 -31.333 8 -48c6.66699 -22 16 -33 28 -33c7.33301 0 22.333 9.33301 45 28s38.667 28 48 28c14 0 21 -6.66699 21 -20c0 -20 -17.5 -41.667 -52.5 -65s-63.167 -35 -84.5 -35c-28 0 -50.667 10 -68 30c-8.66699 10.667 -21.667 32.667 -39 66
c-11.333 -30.667 -22 -53.667 -32 -69c-17.333 -26.667 -37 -40 -59 -40c-68.667 0 -112.667 21 -132 63c-11.333 24.667 -17 78.667 -17 162c0 17.333 2.16699 43.333 6.5 78s6.5 60.834 6.5 78.501s2.5 30.667 7.5 39s16.167 12.5 33.5 12.5c12.667 0 26 -1.66699 40 -5
c20 -4.66699 29.333 -11 28 -19c-11.333 -64.667 -17 -125.334 -17 -182.001v-60c0 -48 5.33301 -83.667 16 -107zM419.003 478.001h-82l-65 92l-66 -92h-79l98 141h95z" />
    <glyph glyph-name="udieresis" unicode="&#xfc;" horiz-adv-x="480" 
d="M176 54c25.333 22.667 49.6689 60.001 73.002 112.001c21.333 46.667 35 89.667 41 129c5.33301 34 10.666 54.667 15.999 62c9.33301 13.333 28.666 20 57.999 20c30 0 45 -14 45 -42c0 -6.66699 -5.33301 -27 -16 -61c-2.66699 -8.66699 -4 -49.334 -4 -122.001
c0 -15.333 2.66699 -31.333 8 -48c6.66699 -22 16 -33 28 -33c7.33301 0 22.333 9.33301 45 28s38.667 28 48 28c14 0 21 -6.66699 21 -20c0 -20 -17.5 -41.667 -52.5 -65s-63.167 -35 -84.5 -35c-28 0 -50.667 10 -68 30c-8.66699 10.667 -21.667 32.667 -39 66
c-11.333 -30.667 -22 -53.667 -32 -69c-17.333 -26.667 -37 -40 -59 -40c-68.667 0 -112.667 21 -132 63c-11.333 24.667 -17 78.667 -17 162c0 17.333 2.16699 43.333 6.5 78s6.5 60.834 6.5 78.501s2.5 30.667 7.5 39s16.167 12.5 33.5 12.5c12.667 0 26 -1.66699 40 -5
c20 -4.66699 29.333 -11 28 -19c-11.333 -64.667 -17 -125.334 -17 -182.001v-60c0 -48 5.33301 -83.667 16 -107zM391.003 475.001h-93v103h93v-103zM228.003 475.001h-92v103h92v-103z" />
    <glyph glyph-name="yacute" unicode="&#xfd;" horiz-adv-x="463" 
d="M59 -117c10.667 4 20.667 6.00391 30 6.00391c18 0 45.833 -10.167 83.5 -30.5s60.5 -30.5 68.5 -30.5c22.667 0 37.667 44.333 45 133c1.33301 12.667 4.33301 66.334 9 161.001c-40.667 -61.333 -83.334 -92 -128.001 -92c-47.333 0 -79.333 24 -96 72
c-10 28.667 -15 72.667 -15 132c0 117.333 17.667 176 53 176c14 0 28.833 -5.33301 44.5 -16s23.5 -22.667 23.5 -36c0 -16 -2.16699 -40.333 -6.5 -73s-6.5 -57 -6.5 -73v-60c2.66699 -30 9.66699 -45 21 -45c16.667 0 39 39.667 67 119c26 72.667 40.333 122 43 148l4 35
c0.666992 8 1.33398 12.333 2.00098 13c5.33301 19.333 15 29 29 29s29.333 -2.66699 46 -8c20.667 -6.66699 31 -15.334 31 -26.001c0 -48.667 -4.16699 -121.834 -12.5 -219.501s-12.5 -170.834 -12.5 -219.501c0 -70.667 -5.66699 -118.334 -17 -143.001
c-18.667 -40 -58.667 -60 -120 -60c-33.333 0 -69.333 10.667 -108 32s-64.667 46.666 -78 75.999zM375 614.004l-131 -141h-68l90 141h109z" />
    <glyph glyph-name="thorn" unicode="&#xfe;" horiz-adv-x="453" 
d="M177 361l49.999 42c14 11.333 34.667 17 62 17c46 0 80.667 -15.333 104 -46c21.333 -27.333 32 -64.666 32 -111.999c0 -62.667 -12.667 -112.334 -38 -149.001c-29.333 -43.333 -74 -65 -134 -65c-23.333 0 -51 6.33301 -83 19
c-7.33301 -29.333 -11 -66.666 -11 -111.999c0 -16 0.666992 -40 2 -72s2 -56 2 -72v-54c-22.667 -12 -45.334 -18 -68.001 -18c-24 0 -36 7 -36 21l-7 483c-2 44 1.66699 95.667 11 155c30.667 194 55.334 291 74.001 291c22.667 0 38.834 -3.33301 48.501 -10
s14.5 -21 14.5 -43c0 -20.667 -3.16699 -68.334 -9.5 -143.001s-10.833 -118.667 -13.5 -132zM243.999 107c23.333 0 41.333 17.334 54 52.001c9.33301 26 14 53 14 81v40c0 47.333 -6.66699 71 -20 71c-18.667 0 -42.667 -27 -72 -81
c-27.333 -50.667 -41 -86.334 -41 -107.001c0 -14 7.16699 -26.833 21.5 -38.5s28.833 -17.5 43.5 -17.5z" />
    <glyph glyph-name="ydieresis" unicode="&#xff;" horiz-adv-x="470" 
d="M59 -117c10.667 4 20.667 6.00391 30 6.00391c18 0 45.833 -10.167 83.5 -30.5s60.5 -30.5 68.5 -30.5c22.667 0 37.667 44.333 45 133c1.33301 12.667 4.33301 66.334 9 161.001c-40.667 -61.333 -83.334 -92 -128.001 -92c-47.333 0 -79.333 24 -96 72
c-10 28.667 -15 72.667 -15 132c0 117.333 17.667 176 53 176c14 0 28.833 -5.33301 44.5 -16s23.5 -22.667 23.5 -36c0 -16 -2.16699 -40.333 -6.5 -73s-6.5 -57 -6.5 -73v-60c2.66699 -30 9.66699 -45 21 -45c16.667 0 39 39.667 67 119c26 72.667 40.333 122 43 148l4 35
c0.666992 8 1.33398 12.333 2.00098 13c5.33301 19.333 15 29 29 29s29.333 -2.66699 46 -8c20.667 -6.66699 31 -15.334 31 -26.001c0 -48.667 -4.16699 -121.834 -12.5 -219.501s-12.5 -170.834 -12.5 -219.501c0 -70.667 -5.66699 -118.334 -17 -143.001
c-18.667 -40 -58.667 -60 -120 -60c-33.333 0 -69.333 10.667 -108 32s-64.667 46.666 -78 75.999zM374 474.004h-93v103h93v-103zM211 474.004h-92v103h92v-103z" />
    <glyph glyph-name="dotlessi" unicode="&#x131;" horiz-adv-x="237" 
d="M55 168c0.666992 8 2.33301 26.6689 5 56.002c0.666992 13.333 1.83398 33.166 3.50098 59.499s7.66699 45.333 18 57s28.166 17.5 53.499 17.5c23.333 0 37.333 -5.66699 42 -17c-11.333 -52.667 -17 -125.334 -17 -218.001c0 -47.333 8.66699 -71 26 -71
c6 0 25 8.16699 57 24.5s53.333 24.5 64 24.5s16 -6.33301 16 -19c0 -10.667 -9.66699 -24.667 -29 -42c-22.667 -20.667 -39.667 -33.667 -51 -39c-16.667 -8 -38 -12 -64 -12c-50 0 -84.667 18.667 -104 56c-13.333 26.667 -20 67.667 -20 123z" />
    <glyph glyph-name="Lslash" unicode="&#x141;" horiz-adv-x="512" 
d="M190 109c6.66699 0 17.333 0.332031 32 0.999023c37.333 1.33301 62 2 74 2c124 0 186 -19 186 -57c0 -21.333 -63.333 -37 -190 -47c-76 -6 -149 -9 -219 -9c-18.667 0 -28 9.33301 -28 28c0 16 7.33301 43 22 81c3.33301 8 6.33301 85.667 9 233l-97 -53v59l98 54
c1.33301 110 2 201.333 2 274c0 20.667 25 31 75 31c49.333 0 74 -12 74 -36c0 -21.333 -3.33301 -49.666 -10 -84.999c-8 -40 -12.667 -68 -14 -84l-2 -31l90 50v-58l-94 -53c-7.33301 -105.333 -11 -172.333 -11 -201c0 -23.333 0.333008 -42.333 1 -57z" />
    <glyph glyph-name="lslash" unicode="&#x142;" horiz-adv-x="222" 
d="M190 46c13.333 0.666992 25.667 2.66797 37 6.00098v1c26 16.667 54 31 84 43l18 -8c2 -4 3 -8.66699 3 -14c0 -21.333 -16 -42 -48 -62c-28.667 -18 -54.667 -27 -78 -27c-70 0 -115 31.667 -135 95c-10 31.333 -15 91.666 -15 180.999c0 19.333 1 43 3 71l-79 -44v59
l85 47l9 77c12 92.667 18 162.334 18 209.001c0 4.66699 -1.5 11.5 -4.5 20.5s-4.5 15.833 -4.5 20.5c0 10.667 7.66699 19 23 25c12 4.66699 24.333 7 37 7c48 0 72 -9.33301 72 -28c0 -14.667 -3 -33.667 -9 -57c-6.66699 -27.333 -10.667 -46 -12 -56
c-6.66699 -55.333 -12 -107.333 -16 -156l65 38v-59l-70 -41c-6 -74.667 -9 -140.334 -9 -197.001c0 -82 8.66699 -132.333 26 -151z" />
    <glyph glyph-name="OE" unicode="&#x152;" horiz-adv-x="1137" 
d="M326 55c63.333 0 117.667 34.333 163 103c40.667 62 61 126 61 192c0 73.333 -17.333 135.333 -52 186c-39.333 58.667 -94 88 -164 88c-66.667 0 -115.667 -45.333 -147 -136c-22.667 -65.333 -34 -139 -34 -221c0 -55.333 14.667 -103.333 44 -144
c32.667 -45.333 75.667 -68 129 -68zM579.001 578c27.333 36 77.9971 68.3311 151.997 96.998c96.667 37.333 184.667 56 264 56c38.667 0 69.667 -11 93 -33s35 -52 35 -90c0 -16.667 -5.66699 -31.834 -17 -45.501s-25.333 -20.5 -42 -20.5
c-23.333 0 -41.666 9.66699 -54.999 29c-11.333 16 -17.666 36.333 -18.999 61l-20 1c-48.667 2.66699 -105.667 -11.333 -171 -42c-62.667 -28.667 -111.667 -61.667 -147 -99c-1.33301 -34 73.667 -51 225 -51c91.333 0 142.666 2.33301 153.999 7
c17.333 -3.33301 26 -26.666 26 -69.999c0 -18 -4 -29 -12 -33c-2 -1.33301 -15 -3.66602 -39 -6.99902c-53.333 -8 -127.333 -31.667 -222 -71c-74 -30.667 -124 -59.667 -150 -87c-6.66699 -15.333 -14 -30.333 -22 -45c0.666992 -24 19 -39.333 55 -46
c11.333 -2 38.333 -3 81 -3c108.667 0 215.334 24 320.001 72c46 28.667 74.667 43 86 43c20.667 0 31 -10 31 -30c0 -38 -56 -78.667 -168 -122c-98.667 -38 -173 -57 -223 -57c-59.333 0 -115.666 16.333 -168.999 49c-20.667 12.667 -38 26.334 -52 41.001
c-56.667 -63.333 -134.334 -95 -233.001 -95c-46.667 0 -99.167 19.167 -157.5 57.5s-98.666 78.5 -120.999 120.5s-33.5 99.333 -33.5 172c0 88.667 21 170.667 63 246c50 89.333 116 134 198 134c26 0 73.333 -16.333 142 -49c63.333 -30 106 -54.333 128 -73z
M752.998 369.998c-34 6.66699 -64 14.667 -90 24c1.33301 -11.333 2 -22.333 2 -33v-24c26 12.667 55.333 23.667 88 33z" />
    <glyph glyph-name="oe" unicode="&#x153;" horiz-adv-x="641" 
d="M142 122c0 -49.333 9.33301 -73.999 28 -73.999c11.333 0 22 6.66699 32 20c34.667 47.333 55.667 81.333 63 102c4.66699 13.333 12 52.666 22 117.999c4 26 6 38 6 36c0 10 -4.66699 18.333 -14 25s-19.333 10 -30 10c-36.667 0 -65 -31.667 -85 -95
c-14.667 -46.667 -22 -94 -22 -142zM404 154.001l-2.99902 -21.998c0 -24.667 3 -42.334 9 -53.001c8 -14.667 23.333 -22 46 -22c52.667 0 112.667 29 180 87c11.333 10 23.333 20 36 30c17.333 0 26 -9.66699 26 -29c0 -34.667 -29.667 -70 -89 -106
c-54.667 -33.333 -100.667 -50 -138 -50c-22.667 0 -54.667 11.333 -96 34c-26.667 14.667 -46 34 -58 58l-57 -62c-20 -18 -44 -27 -72 -27c-57.333 0 -98.333 13.333 -123 40s-37 69 -37 127c0 55.333 12 110.666 36 165.999c30 69.333 69 104 117 104
c64 0 114.333 -16.333 151 -49c18.667 42 44 63 76 63c43.333 0 87.666 -13.667 132.999 -41c50.667 -30.667 76 -66.667 76 -108c0 -44 -25.667 -80 -77 -108c-44.667 -24 -90 -34.667 -136 -32zM525.001 323.003c0 30 -13 45 -39 45c-23.333 0 -43 -21 -59 -63
c-12 -32 -18 -62.333 -18 -91c30.667 0 57.667 10.5 81 31.5s35 46.833 35 77.5z" />
    <glyph glyph-name="Scaron" unicode="&#x160;" horiz-adv-x="667" 
d="M53 197c27.333 0 39.667 -22.333 37 -67c10 -16 32.667 -29 68 -39c26 -7.33301 52.667 -11 80 -11c138 0 239.333 26.667 304 80l2 14c0 10.667 -27.667 22 -83 34l-106 22c-92.667 20 -160.334 43 -203.001 69c-67.333 41.333 -101 100.333 -101 177
c0 62 42.667 122.667 128 182c78.667 54.667 150.334 82 215.001 82c42.667 0 92.167 -30.333 148.5 -91s84.5 -112.667 84.5 -156c0 -13.333 -4.33301 -25.333 -13 -36s-19.334 -16 -32.001 -16c-21.333 0 -42.666 17.333 -63.999 52l-42 84
c-22.667 42.667 -40.667 64 -54 64c-48.667 0 -105.667 -26.667 -171 -80c-67.333 -55.333 -101 -106.666 -101 -153.999c0 -23.333 42.667 -44 128 -62c135.333 -28.667 214.333 -46.667 237 -54c85.333 -28.667 128 -68.667 128 -120c0 -58 -43 -104.667 -129 -140
c-68 -28 -135.333 -42 -202 -42c-64 0 -124.667 10 -182 30c-78 27.333 -117 66.666 -117 117.999c0 40 13.333 60 40 60zM478.001 957l-98 -141h-95l-99 141h80l66 -92l65 92h81z" />
    <glyph glyph-name="scaron" unicode="&#x161;" horiz-adv-x="395" 
d="M57 121c-2.66699 -1.33301 12.668 -8.66699 46.001 -22c52 -18.667 85 -28 99 -28c18.667 0 28 6.33301 28 19c0 14.667 -16.333 31.667 -49 51c-46.667 28 -77 48 -91 60c-32.667 28 -49 59.667 -49 95c0 46 19 81 57 105c32 20 72.333 30 121 30
c91.333 0 137 -22.667 137 -68c0 -20.667 -7 -31 -21 -31c-8 0 -19.5 2.16699 -34.5 6.5s-26.5 6.5 -34.5 6.5c-66 0 -99 -19.333 -99 -58c0 -22 16.667 -43.667 50 -65c17.333 -10.667 48 -30.667 92 -60c33.333 -22.667 50 -50 50 -82c0 -24 -13.333 -44.333 -40 -61
c-24 -15.333 -48.667 -23 -74 -23c-34.667 0 -78.334 8.33301 -131.001 25c-62.667 20 -94 41.333 -94 64c0 8 4.66699 17 14 27c7.33301 8 15 11 23 9zM354.002 613.999l-98 -141h-95l-99 141h80l66 -92l65 92h81z" />
    <glyph glyph-name="Ydieresis" unicode="&#x178;" horiz-adv-x="646" 
d="M448 -252l-2.00098 109.997c-0.666992 29.333 1.33301 76.333 6 141c3.33301 48 5 95 5 141v26c-10.667 -12 -26 -35.333 -46 -70c-17.333 -29.333 -33.333 -50.333 -48 -63c-22 -18.667 -49.333 -28 -82 -28c-140.667 0 -211 99 -211 297c0 115.333 10 226 30 332
c5.33301 28.667 12 47.334 20 56.001c10.667 11.333 29.334 17 56.001 17c39.333 0 59 -7.33301 59 -22c0 -17.333 -5.33301 -45.666 -16 -84.999c-12.667 -47.333 -20 -76.333 -22 -87c-8 -46 -12 -127.667 -12 -245c0 -134 23.667 -201 71 -201c60 0 115 81.333 165 244
c38 123.333 60 232 66 326c1.33301 21.333 12.333 32 33 32h53c15.333 -6.66699 23 -17 23 -31c0 -20.667 -2.66699 -49.667 -8 -87c-5.33301 -41.333 -8.33301 -70.666 -9 -87.999l-14 -348c-5.33301 -132.667 -8 -248.667 -8 -348c0 -28 -14.667 -42 -44 -42
c-22 0 -43.667 7.66699 -65 23zM540.999 816.997h-93v103h93v-103zM377.999 816.997h-92v103h92v-103z" />
    <glyph glyph-name="Zcaron" unicode="&#x17d;" horiz-adv-x="611" 
d="M404 587l-245 -10.0039c-42.667 -2 -74.5 3.5 -95.5 16.5s-30.5 31.833 -28.5 56.5l1 13c36 2.66699 107.667 11.334 215 26.001c89.333 12 160 18 212 18c23.333 0 43.833 -9.66699 61.5 -29s26.5 -40.666 26.5 -63.999c0 -15.333 -65.333 -93.666 -196 -234.999
c-141.333 -153.333 -219 -239.666 -233 -258.999c35.333 0 88.333 2.33301 159 7s123.667 7 159 7c62.667 0 94 -19 94 -57c0 -10 -4.66699 -19 -14 -27l-33 3c-7.33301 0.666992 -18 1 -32 1c-46 0 -114.167 -10.333 -204.5 -31s-158.5 -31 -204.5 -31
c-55.333 0 -83 25 -83 75c0 36.667 62.667 125 188 265c110 123.333 194.333 208.333 253 255zM464 954.996l-98 -141h-95l-99 141h80l66 -92l65 92h81z" />
    <glyph glyph-name="zcaron" unicode="&#x17e;" horiz-adv-x="388" 
d="M198 332c-9.33301 1.33301 -24.668 1.33203 -46.001 -0.000976562c-26.667 -2 -42.667 -3 -48 -3c-48 0 -72 13.333 -72 40c0 23.333 39 40.333 117 51c48.667 6.66699 98.667 10 150 10c12 0 24.167 -6 36.5 -18s18.5 -24 18.5 -36
c0 -3.33301 -29.667 -49.666 -89 -138.999l-92 -139c22.667 3.33301 45.334 6.33301 68.001 9c28 4 51 6 69 6c29.333 0 44 -15 44 -45c0 -15.333 -6 -24 -18 -26c-63.333 -9.33301 -134.666 -22 -213.999 -38c-16.667 -3.33301 -27.334 -5 -32.001 -5
c-12.667 0 -26.167 6.5 -40.5 19.5s-21.5 25.833 -21.5 38.5c0 26 24 72.333 72 139zM353.998 614.999l-98 -141h-95l-99 141h80l66 -92l65 92h81z" />
    <glyph glyph-name="florin" unicode="&#x192;" horiz-adv-x="556" 
d="M501 721l-15.001 -78c-26 11.333 -46 17 -60 17c-20 0 -36.5 -8.83301 -49.5 -26.5s-22.5 -41.834 -28.5 -72.501l-20 -99h114v-71h-127l-64 -351c-14 -75.333 -37.333 -135.333 -70 -180s-76.667 -67 -132 -67c-25.333 0 -45.666 4.33301 -60.999 13l16 81
c17.333 -9.33301 35 -14 53 -14c30.667 0 54.667 18.333 72 55c8.66699 19.333 17 51 25 95l68 368h-109v71h123l3 12l26 114c10 36.667 24 66.334 42 89.001c31.333 40 72 60 122 60c22.667 0 46.667 -5.33301 72 -16z" />
    <glyph glyph-name="circumflex" unicode="&#x2c6;" 
d="M313 593h-82l-65 92l-66 -92h-79l98 141h95z" />
    <glyph glyph-name="caron" unicode="&#x2c7;" 
d="M312 734l-98 -141h-95l-99 141h80l66 -92l65 92h81z" />
    <glyph glyph-name="breve" unicode="&#x2d8;" 
d="M321 731c-8 -91.333 -60.668 -136.999 -158.001 -136.999c-50 0 -88 14.333 -114 43c-15.333 17.333 -26.666 43.666 -33.999 78.999l-3 15h51c8.66699 -28.667 21 -49 37 -61s39 -18 69 -18c30.667 0 53.5 5.83301 68.5 17.5s26.5 32.167 34.5 61.5h49z" />
    <glyph glyph-name="dotaccent" unicode="&#x2d9;" 
d="M212 603h-92v103h92v-103z" />
    <glyph glyph-name="ring" unicode="&#x2da;" 
d="M260 664c0 -26 -8.83301 -48.001 -26.5 -66.001s-39.5 -27 -65.5 -27c-26.667 0 -49 8.83301 -67 26.5s-27 39.834 -27 66.501c0 26 8.66699 47.833 26 65.5s39 26.5 65 26.5c27.333 0 50 -8.5 68 -25.5s27 -39.167 27 -66.5zM218 663.999c0 14 -5 26 -15 36
s-22 15 -36 15c-15.333 0 -27.833 -4.83301 -37.5 -14.5s-14.5 -22.167 -14.5 -37.5c0 -14 4.83301 -26 14.5 -36s21.5 -15 35.5 -15c35.333 0 53 17.333 53 52z" />
    <glyph glyph-name="ogonek" unicode="&#x2db;" 
d="M288 -202c-36.667 -15.333 -70.333 -22.999 -101 -22.999c-32.667 0 -59.334 7.66699 -80.001 23c-23.333 17.333 -35 41.666 -35 72.999c0 22.667 6.83301 45.167 20.5 67.5s30.834 37.833 51.501 46.5l32 14l5 1l68 -4c-32.667 -18 -55.667 -33.333 -69 -46
c-20.667 -20.667 -31 -45 -31 -73c0 -36.667 18.333 -55 55 -55c17.333 0 39.333 5.33301 66 16z" />
    <glyph glyph-name="tilde" unicode="&#x2dc;" 
d="M338 722c-10 -72.667 -44 -109 -102 -109c-14 0 -27 2 -39 6l-79 26c-10 3.33301 -18.667 5 -26 5c-22 0 -37.667 -15 -47 -45h-49c7.33301 36.667 17.333 62.667 30 78c16.667 20 41.667 30 75 30c16.667 0 34 -3.33301 52 -10l64 -24l22 -3c26 0 41.667 15.333 47 46
h52z" />
    <glyph glyph-name="hungarumlaut" unicode="&#x2dd;" 
d="M410 734l-132 -141h-68l89 141h111zM230 734l-132 -141h-67l88 141h111z" />
    <glyph glyph-name="Delta" unicode="&#x394;" horiz-adv-x="636" 
d="M632 0h-626l333 717zM502 52l-200 484l-226 -484h426z" />
    <glyph glyph-name="Delta" unicode="&#x2206;" horiz-adv-x="636" 
d="M632 0h-626l333 717zM502 52l-200 484l-226 -484h426z" />
    <glyph glyph-name="Omega" unicode="&#x3a9;" horiz-adv-x="799" 
d="M765 0l-306.003 0.00195312l16 158c34.667 14 60.667 30 78 48c46 46.667 69 117 69 211c0 79.333 -17 141.666 -51 186.999c-38.667 52 -96 78 -172 78c-74 0 -130.333 -26.333 -169 -79c-34.667 -46.667 -52 -108.334 -52 -185.001c0 -94.667 24 -166 72 -214
c18 -18 43.667 -33.333 77 -46l16 -158h-308v168h18c4 -16 7.33301 -26.667 10 -32c5.33301 -13.333 12.333 -21.333 21 -24c17.333 -6.66699 53.333 -9.33398 108 -8.00098l92 2l-2 28c-59.333 18 -103 39.667 -131 65c-63.333 56.667 -95 128.334 -95 215.001
c0 93.333 35 168 105 224c64.667 52 144.667 78 240 78c94.667 0 174.334 -26 239.001 -78c70 -56 105 -130.333 105 -223c0 -48.667 -11.333 -95 -34 -139c-24 -46 -56.333 -80.333 -97 -103c-26.667 -14.667 -58 -27.667 -94 -39l-2 -28
c10.667 0 26.334 -0.333008 47.001 -1s36.334 -1 47.001 -1c58 0 93 2.33301 105 7c14 9.33301 23.667 24.333 29 45l3 12h16v-168z" />
    <glyph glyph-name="Omega" unicode="&#x2126;" horiz-adv-x="799" 
d="M765 0l-306.003 0.00195312l16 158c34.667 14 60.667 30 78 48c46 46.667 69 117 69 211c0 79.333 -17 141.666 -51 186.999c-38.667 52 -96 78 -172 78c-74 0 -130.333 -26.333 -169 -79c-34.667 -46.667 -52 -108.334 -52 -185.001c0 -94.667 24 -166 72 -214
c18 -18 43.667 -33.333 77 -46l16 -158h-308v168h18c4 -16 7.33301 -26.667 10 -32c5.33301 -13.333 12.333 -21.333 21 -24c17.333 -6.66699 53.333 -9.33398 108 -8.00098l92 2l-2 28c-59.333 18 -103 39.667 -131 65c-63.333 56.667 -95 128.334 -95 215.001
c0 93.333 35 168 105 224c64.667 52 144.667 78 240 78c94.667 0 174.334 -26 239.001 -78c70 -56 105 -130.333 105 -223c0 -48.667 -11.333 -95 -34 -139c-24 -46 -56.333 -80.333 -97 -103c-26.667 -14.667 -58 -27.667 -94 -39l-2 -28
c10.667 0 26.334 -0.333008 47.001 -1s36.334 -1 47.001 -1c58 0 93 2.33301 105 7c14 9.33301 23.667 24.333 29 45l3 12h16v-168z" />
    <glyph glyph-name="pi" unicode="&#x3c0;" horiz-adv-x="571" 
d="M551 158c0 -43.333 -9.33105 -81.334 -27.998 -114.001c-23.333 -40 -55 -60 -95 -60c-31.333 0 -56 16.333 -74 49c-20 36.667 -29 81.334 -27 134.001l3 77l18 173h-116l-1 -16c-4 -65.333 -13 -145.333 -27 -240c-10 -68 -19.333 -113.667 -28 -137
c-10.667 -29.333 -31 -44 -61 -44c-16.667 0 -30.334 5.66699 -41.001 17s-16 25.666 -16 42.999c0 8.66699 2.66699 15.667 8 21l50 67c11.333 11.333 18.333 27.333 21 48l30 241h-23c-31.333 0 -54.333 -4.33301 -69 -13c-12 -8 -27.333 -26 -46 -54h-19
c10 30 17.667 51 23 63c9.33301 20.667 21.666 39.334 36.999 56.001c22 24.667 48.667 37 80 37h393v-89h-130l-1 -13c-8 -104 -12 -173 -12 -207v-8c0 -72.667 21.667 -109 65 -109c36.667 0 57.667 26 63 78h23z" />
    <glyph glyph-name="endash" unicode="&#x2013;" horiz-adv-x="556" 
d="M556 240h-557v74h557v-74z" />
    <glyph glyph-name="emdash" unicode="&#x2014;" horiz-adv-x="546" 
d="M-7 224v80h560v-80h-560z" />
    <glyph glyph-name="quoteleft" unicode="&#x2018;" horiz-adv-x="188" 
d="M116 717c28 0 42 -14.334 42 -43.001c0 -24.667 -3 -50 -9 -76c-0.666992 -26 -2.66699 -53.667 -6 -83c-4 -39.333 -18.333 -59 -43 -59c-48.667 0 -73 13.333 -73 40c0 8.66699 7.66699 47.334 23 116.001c2 9.33301 6.66699 33.333 14 72c8 22 25.333 33 52 33z" />
    <glyph glyph-name="quoteright" unicode="&#x2019;" horiz-adv-x="189" 
d="M28 507c0 18.667 3.33398 42 10.001 70c0.666992 26 2.66699 53.333 6 82c4 39.333 17.667 59 41 59c50 0 75 -12.667 75 -38c0 -26 -4.33301 -55 -13 -87l-23 -85c-6 -22.667 -10 -35.667 -12 -39c-4.66699 -8 -16.334 -12 -35.001 -12h-7c-17.333 0 -29 4.33301 -35 13
c-4.66699 6.66699 -7 19 -7 37z" />
    <glyph glyph-name="quotesinglbase" unicode="&#x201a;" horiz-adv-x="222" 
d="M158 60c0 -72.667 -5.66602 -120.333 -16.999 -143c-16.667 -34 -46.334 -56 -89.001 -66v47c35.333 6 53 37.667 53 95v7h-53v106h106v-46z" />
    <glyph glyph-name="quotedblleft" unicode="&#x201c;" horiz-adv-x="356" 
d="M116 717c28 0 42 -14.334 42 -43.001c0 -24.667 -3 -50 -9 -76c-0.666992 -26 -2.66699 -53.667 -6 -83c-4 -39.333 -18.333 -59 -43 -59c-48.667 0 -73 13.333 -73 40c0 8.66699 7.66699 47.334 23 116.001c2 9.33301 6.66699 33.333 14 72c8 22 25.333 33 52 33z
M266 716.999c28 0 42 -14.334 42 -43.001c0 -24.667 -3 -50 -9 -76c-0.666992 -26 -2.66699 -53.667 -6 -83c-4 -39.333 -18.333 -59 -43 -59c-48.667 0 -73 13.333 -73 40c0 8.66699 7.66699 47.334 23 116.001c2 9.33301 6.66699 33.333 14 72c8 22 25.333 33 52 33z" />
    <glyph glyph-name="quotedblright" unicode="&#x201d;" horiz-adv-x="343" 
d="M28 507c0 18.667 3.33398 42 10.001 70c0.666992 26 2.66699 53.333 6 82c4 39.333 17.667 59 41 59c50 0 75 -12.667 75 -38c0 -26 -4.33301 -55 -13 -87l-23 -85c-6 -22.667 -10 -35.667 -12 -39c-4.66699 -8 -16.334 -12 -35.001 -12h-7c-17.333 0 -29 4.33301 -35 13
c-4.66699 6.66699 -7 19 -7 37zM178.001 507c0 18.667 3.33398 42 10.001 70c0.666992 26 2.66699 53.333 6 82c4 39.333 17.667 59 41 59c50 0 75 -12.667 75 -38c0 -26 -4.33301 -55 -13 -87l-23 -85c-6 -22.667 -10 -35.667 -12 -39c-4.66699 -8 -16.334 -12 -35.001 -12
h-7c-17.333 0 -29 4.33301 -35 13c-4.66699 6.66699 -7 19 -7 37z" />
    <glyph glyph-name="quotedblbase" unicode="&#x201e;" 
d="M296 59c0 -71.333 -5.66699 -118.668 -17 -142.001c-16.667 -34 -46 -56 -88 -66v47c34.667 6.66699 52 38.334 52 95.001v7h-52v106h105v-47zM131 51.998c0 -67.333 -5.33301 -111.668 -16 -133.001c-18 -36 -48 -58.667 -90 -68v48c36 4.66699 54 38.334 54 101.001
h-54v106h106v-54z" />
    <glyph glyph-name="dagger" unicode="&#x2020;" horiz-adv-x="556" 
d="M514 430h-188v-589h-95v589h-188v77h188v211h95v-211h188v-77z" />
    <glyph glyph-name="daggerdbl" unicode="&#x2021;" horiz-adv-x="556" 
d="M514 43h-188v-202h-95v202h-188v77h188v318h-188v77h188v203h95v-203h188v-77h-188v-318h188v-77z" />
    <glyph glyph-name="bullet" unicode="&#x2022;" horiz-adv-x="350" 
d="M334 359c0 -43.333 -15.5 -80.333 -46.5 -111s-68.5 -46 -112.5 -46s-81.167 15.167 -111.5 45.5s-45.5 67.5 -45.5 111.5c0 44.667 15.167 82.167 45.5 112.5s67.833 45.5 112.5 45.5c43.333 0 80.5 -15.5 111.5 -46.5s46.5 -68.167 46.5 -111.5z" />
    <glyph glyph-name="ellipsis" unicode="&#x2026;" horiz-adv-x="1000" 
d="M885 0h-105v106h105v-106zM552 0h-105v106h105v-106zM220 0h-105v106h105v-106z" />
    <glyph glyph-name="perthousand" unicode="&#x2030;" horiz-adv-x="955" 
d="M127 47c0 26 50.667 129.667 152 311c86 154 149.333 261 190 321c14.667 22 25.667 33 33 33c13.333 0 29 -3.33301 47 -10c21.333 -8 32 -17.333 32 -28l-138 -230c-80 -134 -159.333 -278 -238 -432c-4 -8 -11.667 -12 -23 -12c-5.33301 0 -15.833 6.66699 -31.5 20
s-23.5 22.333 -23.5 27zM19 527c0 16.667 3.33301 37.001 10 61.001c12 43.333 23.667 71.666 35 84.999c17.333 20.667 46 31 86 31c44 0 79.833 -14.333 107.5 -43s41.5 -65 41.5 -109c0 -68.667 -21.667 -116.667 -65 -144l-1 -1c-44 -6.66699 -64 -10 -60 -10
c-40.667 0 -75.667 11.333 -105 34c-32.667 24.667 -49 56.667 -49 96zM352 150.001c7.33301 99.333 45.001 148.998 113.001 148.998c51.333 0 91.666 -13.667 120.999 -41s44 -66.666 44 -117.999c0 -37.333 -8.33301 -69.666 -25 -96.999c-20 -32 -47.333 -48 -82 -48
c-20.667 0 -47 6 -79 18c-34 12 -57.333 25 -70 39c-18 20 -25.667 48.333 -23 85zM163.001 454.999c29.333 0 44 31.999 44 95.999c0 18.667 -2.66699 35.667 -8 51c-7.33301 22 -18.333 33 -33 33c-15.333 0 -27.333 -14.667 -36 -44c-6.66699 -22 -10 -43 -10 -63
c0 -17.333 3 -32.666 9 -45.999c8 -18 19.333 -27 34 -27zM456.001 97.998c0 -26.667 10.666 -40.001 31.999 -40.001c28.667 0 43 31.333 43 94c0 31.333 -8 57 -24 77c-17.333 -7.33301 -30.666 -26.666 -39.999 -57.999c-7.33301 -24 -11 -48.333 -11 -73zM652 149.997
c7.33301 99.333 45.001 148.998 113.001 148.998c51.333 0 91.666 -13.667 120.999 -41s44 -66.666 44 -117.999c0 -37.333 -8.33301 -69.666 -25 -96.999c-20 -32 -47.333 -48 -82 -48c-20.667 0 -47 6 -79 18c-34 12 -57.333 25 -70 39c-18 20 -25.667 48.333 -23 85z
M756.001 97.9951c0 -26.667 10.666 -40.001 31.999 -40.001c28.667 0 43 31.333 43 94c0 31.333 -8 57 -24 77c-17.333 -7.33301 -30.666 -26.666 -39.999 -57.999c-7.33301 -24 -11 -48.333 -11 -73z" />
    <glyph glyph-name="guilsinglleft" unicode="&#x2039;" 
d="M246 107l-158 125v91l157 123l1 -88l-105 -81l104 -81z" />
    <glyph glyph-name="guilsinglright" unicode="&#x203a;" 
d="M246 231l-158 -124v89l105 81l-105 81v89l158 -124v-92z" />
    <glyph glyph-name="fraction" unicode="&#x2044;" horiz-adv-x="167" 
d="M334 703l-443 -722h-57l441 722h59z" />
    <glyph glyph-name="trademark" unicode="&#x2122;" horiz-adv-x="760" 
d="M250 601c-5.33301 -14 -10.3311 -60.334 -14.998 -139.001c-3.33301 -58 -5 -108.667 -5 -152v0c-4.66699 -5.33301 -10.334 -8 -17.001 -8c-16 0 -25.333 1 -28 3c-5.33301 2.66699 -8 11 -8 25c0 112 2.66699 200.667 8 266h-81c-51.333 0 -77 8.66699 -77 26
c0 4.66699 2 8.66699 6 12c10.667 0.666992 53.667 6.33398 129 17.001c52 7.33301 94.333 10 127 8c30 -2 46.333 -3.66699 49 -5c6 -3.33301 14 -16.666 24 -39.999l-5 -6c-12.667 -2.66699 -30.334 -4.33398 -53.001 -5.00098c-26 0 -44 -0.666992 -54 -2z
M506.002 390.999c9.33301 18.667 24.998 64.001 46.998 136.001c20.667 68.667 33.334 106 38.001 112c8 10.667 22.333 16 43 16c17.333 0 26 -16.333 26 -49c0 -6 -0.5 -15.333 -1.5 -28s-1.5 -22 -1.5 -28c0 -128.667 9.33301 -193 28 -193c4.66699 0 10.667 2 18 6l13 7
c10 -2.66699 15 -7.33398 15 -14.001c0 -9.33301 -8.5 -19 -25.5 -29s-30.833 -15 -41.5 -15c-32 0 -52.667 27.333 -62 82c-1.33301 8 -4 48 -8 120c-10.667 -38 -21 -73 -31 -105c-17.333 -53.333 -33.666 -80 -48.999 -80c-26 0 -44.333 6.33301 -55 19
c-8 9.33301 -15 29.333 -21 60c-12.667 61.333 -20.334 94.666 -23.001 99.999c-13.333 -84 -20.666 -144.667 -21.999 -182v-15c-4.66699 -8 -11.334 -12 -20.001 -12c-16.667 0 -23.667 11 -21 33l17 157c6 60.667 9.33301 113.334 10 158.001
c8.66699 10 23.334 15 44.001 15c22 0 33 -7.66699 33 -23c0 -73.333 16.667 -156 50 -248z" />
    <glyph glyph-name="partialdiff" unicode="&#x2202;" horiz-adv-x="514" 
d="M480 417c0 -107.333 -16.335 -200 -49.002 -278c-44 -106.667 -112.333 -160 -205 -160c-56.667 0 -104 19.5 -142 58.5s-57 86.833 -57 143.5c0 62 18.333 116 55 162c39.333 50 89.333 75 150 75c46.667 0 95.667 -20.667 147 -62l10 -8c7.33301 48 11 85 11 111
c0 46.667 -6.33301 91.667 -19 135c-16.667 55.333 -40.667 92.333 -72 111c-26 15.333 -55 23 -87 23c-17.333 0 -33.666 -2.66699 -48.999 -8l-46 -19l-19 -8l-40 53l12 4l23 8l12 3l22 5c26.667 6 47.334 9 62.001 9c92 0 163.333 -38 214 -114
c44.667 -66 67 -147.333 67 -244zM379.998 311c-35.333 43.333 -71.668 65.001 -109.001 65.001c-50 0 -89.333 -26 -118 -78c-23.333 -42.667 -35 -91.334 -35 -146.001c0 -37.333 6 -68.333 18 -93c16 -32.667 40.667 -49 74 -49c61.333 0 107.333 48 138 144
c16.667 52.667 27.334 105 32.001 157z" />
    <glyph glyph-name="product" unicode="&#x220f;" horiz-adv-x="856" 
d="M835 -105h-319v25c66.667 0 100 25 100 75v728h-371v-733c0 -46.667 33.333 -70 100 -70v-25h-319v25c66.667 0 100 23.333 100 70v676c0 28 -8.66699 50 -26 66s-40 24 -68 24h-4v25h804v-25h-4c-62.667 0 -94 -33.667 -94 -101v-660c0 -50 33.667 -75 101 -75v-25z" />
    <glyph glyph-name="summation" unicode="&#x2211;" horiz-adv-x="742" 
d="M723 121l-3 -14l-17 -72l-18 -89l-7 -58l-75 11l-588 -3l363 414l-361 471l83 -6h542l7 -167h-23l-3 13c-9.33301 39.333 -25 67.666 -47 84.999c-19.333 14 -50 21 -92 21h-287l281 -371l-304 -352h404c32 0 58 12.333 78 37c14 16.667 27.667 43.334 41 80.001h26z" />
    <glyph glyph-name="radical" unicode="&#x221a;" horiz-adv-x="571" 
d="M536 947l-155 -989l-254 524l-100 -49l-18 35l154 75l204 -417l131 827z" />
    <glyph glyph-name="infinity" unicode="&#x221e;" horiz-adv-x="742" 
d="M716 276c0 -38 -13.667 -72.168 -41 -102.501s-60 -45.5 -98 -45.5c-38.667 0 -77.667 12 -117 36c-17.333 10.667 -33 22.334 -47 35.001c-6.66699 6 -20.667 19.667 -42 41c-14.667 -15.333 -37.334 -36.333 -68.001 -63c-44 -32 -89.667 -48 -137 -48
c-38.667 0 -71.5 15 -98.5 45s-40.5 64.333 -40.5 103c0 40.667 14.5 74.667 43.5 102s63.833 41 104.5 41c44.667 0 98.667 -26.667 162 -80l35 -30l10 8c16.667 15.333 42.334 37 77.001 65c36 24.667 73 37 111 37c40 0 74.333 -14 103 -42s43 -62 43 -102zM662 269.999
c0 25.333 -9 47.667 -27 67s-39.667 29 -65 29c-34.667 0 -77 -20.333 -127 -61l-27 -22l-9 -8l10 -11c26 -28.667 54.333 -51.667 85 -69c18.667 -10.667 40.667 -16 66 -16c26 0 48.167 8.66699 66.5 26s27.5 39 27.5 65zM337 275l-9 8
c-31.333 28 -60.666 49.333 -87.999 64c-22.667 12 -44.334 18 -65.001 18c-26 0 -48.333 -9 -67 -27s-28 -40 -28 -66s9.5 -48 28.5 -66s41.5 -27 67.5 -27c43.333 0 90.333 25.333 141 76z" />
    <glyph glyph-name="integral" unicode="&#x222b;" horiz-adv-x="285" 
d="M303 894c0 -31.333 -19.332 -47 -57.999 -47c-4 0 -8.66699 1.33301 -14 4l-22 17c-2.66699 0.666992 -6 2.33398 -10 5.00098c-15.333 0 -22.333 -11.333 -21 -34l1 -22l15 -187c3.33301 -41.333 5 -119 5 -233c0 -105.333 -1.66699 -179.666 -5 -222.999
c-8.66699 -116.667 -26.334 -199.334 -53.001 -248.001c-13.333 -24 -40 -36 -80 -36c-16.667 0 -30.667 6.66699 -42 20s-17 28.333 -17 45c0 13.333 7.66699 24.666 23 33.999c10 6 18.333 9 25 9c8 0 24 -10.667 48 -32c24.667 2 36 33 34 93l-8 261l1 285
c0 88.667 3.66699 155 11 199c16 98 49 147 99 147c18.667 0 34.667 -5 48 -15s20 -24 20 -42z" />
    <glyph glyph-name="approxequal" unicode="&#x2248;" horiz-adv-x="571" 
d="M548 385c-34.667 -56 -84.333 -84 -149 -84l-18 3l-179 50c-12 3.33301 -24.667 5 -38 5c-39.333 0 -74 -21 -104 -63l-45 30c44.667 54.667 95.667 82 153 82l33 -3l174 -48l25 -4c41.333 0 78 19 110 57zM548.001 228c-35.333 -56 -84.334 -84 -147.001 -84
c-6.66699 0 -13.667 1 -21 3l-178 50c-12 3.33301 -25.333 5 -40 5c-37.333 0 -71.333 -20.667 -102 -62l-46 28c42.667 55.333 94 83 154 83c10.667 0 22.334 -1.66699 35.001 -5l172 -46l24 -4c41.333 0 78 19.333 110 58z" />
    <glyph glyph-name="approxequal" unicode="&#x22f2;" horiz-adv-x="571" 
d="M548 385c-34.667 -56 -84.333 -84 -149 -84l-18 3l-179 50c-12 3.33301 -24.667 5 -38 5c-39.333 0 -74 -21 -104 -63l-45 30c44.667 54.667 95.667 82 153 82l33 -3l174 -48l25 -4c41.333 0 78 19 110 57zM548.001 228c-35.333 -56 -84.334 -84 -147.001 -84
c-6.66699 0 -13.667 1 -21 3l-178 50c-12 3.33301 -25.333 5 -40 5c-37.333 0 -71.333 -20.667 -102 -62l-46 28c42.667 55.333 94 83 154 83c10.667 0 22.334 -1.66699 35.001 -5l172 -46l24 -4c41.333 0 78 19.333 110 58z" />
    <glyph glyph-name="notequal" unicode="&#x2260;" horiz-adv-x="571" 
d="M562 141h-314l-94 -167l-52 29l76 138h-162v59h195l79 142h-274v58h307l94 171l52 -29l-78 -142h171v-58h-203l-80 -142h283v-59z" />
    <glyph glyph-name="lessequal" unicode="&#x2264;" horiz-adv-x="571" 
d="M547 122l-518 239v64l518 240v-65l-448 -207l448 -207v-64zM547 0h-518v58h518v-58z" />
    <glyph glyph-name="greaterequal" unicode="&#x2265;" horiz-adv-x="571" 
d="M547 361l-517 -240v65l449 207l-449 206v66l517 -240v-64zM547 0h-517v58h517v-58z" />
    <glyph glyph-name="lozenge" unicode="&#x25ca;" horiz-adv-x="514" 
d="M485 392l-201 -392h-64l-201 392l200 383h65zM421 392l-169 325l-170 -325l170 -334z" />
    <glyph glyph-name="apple" unicode="&#xf000;" horiz-adv-x="822" 
d="M555 708c0 -43.333 -15 -82.334 -45 -117.001s-66.333 -52 -109 -52c0 50 13.333 90.833 40 122.5s64.667 50.834 114 57.501v-11zM724 175.999c-54.667 -136 -113.333 -204 -176 -204c-14 0 -28 3 -42 9l-42 18c-6 2.66699 -17 4 -33 4c-24.667 0 -43 -1.66699 -55 -5
l-44 -19c-12.667 -5.33301 -26 -8 -40 -8c-38.667 0 -77 28.333 -115 85c-58.667 87.333 -88 174.666 -88 261.999c0 63.333 16.333 116.333 49 159c36 46.667 84.667 70 146 70c22 0 49 -6.33301 81 -19c20.667 -8 37 -12 49 -12s27 3.33301 45 10
c42 15.333 73.667 23 95 23c64 0 114 -24.667 150 -74c-55.333 -43.333 -83 -91.666 -83 -144.999c0 -74.667 34.333 -126 103 -154z" />
    <glyph glyph-name="fi" unicode="&#xf001;" horiz-adv-x="462" 
d="M265 168c0.666992 8 2.34082 26.667 5.00781 56l2 49c1.33301 20 4 36 8 48c-12.667 -4.66699 -28.334 -7.33398 -47.001 -8.00098c-28.667 -1.33301 -47.334 -3.33301 -56.001 -6c-6.66699 -32.667 -10 -71 -10 -115c0 -18.667 0.833008 -46.5 2.5 -83.5
s2.5 -64.833 2.5 -83.5c0 -19.333 -12 -29 -36 -29c-32.667 0 -52.334 1.33301 -59.001 4c-16 6 -24 22 -24 48c0 78 3.66699 163 11 255l-17 -1c-18.667 -1.33301 -35.667 1.66699 -51 9c-18.667 8.66699 -28 21.667 -28 39c0 19.333 21.667 29 65 29
c22 0 33.333 6.33301 34 19c1.33301 28 4.66602 78 9.99902 150c15.333 178 66 267 152 267c38.667 0 74.5 -16.167 107.5 -48.5s49.5 -67.833 49.5 -106.5c0 -6 -4.33301 -11.833 -13 -17.5s-16.334 -8.5 -23.001 -8.5c-10.667 0 -20.667 2.66699 -30 8
c-8.66699 26 -13.334 39.333 -14.001 40c-5.33301 12.667 -13.333 24.334 -24 35.001c-38.667 -4 -66.334 -50.333 -83.001 -139c-10.667 -57.333 -15.334 -117.333 -14.001 -180l158 -12c29.333 -6.66699 44 -22 44 -46v0c-11.333 -52.667 -17 -125 -17 -217
c0 -47.333 8.66699 -71 26 -71c6 0 25 8.16699 57 24.5s53.333 24.5 64 24.5s16 -6.33301 16 -19c0 -10.667 -9.66699 -24.667 -29 -42c-22.667 -20.667 -39.667 -33.667 -51 -39c-16.667 -8 -38 -12 -64 -12c-50 0 -84.667 18.667 -104 56
c-13.333 26.667 -20 67.667 -20 123z" />
    <glyph glyph-name="fl" unicode="&#xf002;" horiz-adv-x="456" 
d="M264 389c2.66699 24.667 6.00195 52 10.002 82c12 92.667 18 162.334 18 209.001c0 4.66699 -1.33301 11 -4 19s-4 13.333 -4 16l-2 2c-38.667 -4 -66.334 -50.333 -83.001 -139c-10.667 -57.333 -15.334 -117.333 -14.001 -180c24 -2 48 -4.33301 72 -7
c2.66699 -0.666992 5 -1.33398 7 -2.00098zM390.002 46c13.333 0.666992 25.668 2.66895 37.001 6.00195v1c26 16.667 54 31 84 43l18 -8c2 -4 3 -8.66699 3 -14c0 -21.333 -16 -42 -48 -62c-28.667 -18 -54.667 -27 -78 -27c-70 0 -115 31.667 -135 95
c-10 31.333 -15 91.666 -15 180.999c0 15.333 0.666992 33.666 2 54.999c-7.33301 -1.33301 -15.666 -2.33301 -24.999 -3c-28.667 -1.33301 -47.334 -3.33301 -56.001 -6c-6.66699 -32.667 -10 -71 -10 -115c0 -18.667 0.833008 -46.5 2.5 -83.5s2.5 -64.833 2.5 -83.5
c0 -19.333 -12 -29 -36 -29c-32.667 0 -52.334 1.33301 -59.001 4c-16 6 -24 22 -24 48c0 78 3.66699 163 11 255l-17 -1c-18.667 -1.33301 -35.667 1.66699 -51 9c-18.667 8.66699 -28 21.667 -28 39c0 19.333 21.667 29 65 29c22 0 33.333 6.33301 34 19
c1.33301 28 4.66602 78 9.99902 150c15.333 178 66 267 152 267c22 0 48.333 -4.33301 79 -13c35.333 -10 61.333 -22 78 -36c14 -12 23 -23 27 -33c0.666992 -1.33301 1.33398 -3.33301 2.00098 -6c0.666992 -3.33301 0.666992 -7 0 -11
c-0.666992 -9.33301 -3.66699 -25.333 -9 -48c-6.66699 -28.667 -10.667 -47.334 -12 -56.001c-20 -169.333 -30 -307.666 -30 -414.999c0 -82 8.66699 -132.333 26 -151z" />
    <glyph glyph-name=".null" horiz-adv-x="0" 
 />
    <glyph glyph-name="nonmarkingreturn" horiz-adv-x="282" 
 />
    <glyph glyph-name="HT" horiz-adv-x="278" 
 />
    <glyph glyph-name="glyph107" horiz-adv-x="280" 
 />
    <glyph glyph-name="glyph243" horiz-adv-x="282" 
 />
    <glyph glyph-name="glyph244" horiz-adv-x="282" 
 />
  </font>
</defs>
</svg>
